<svg preserveAspectRatio="none" width="100%" height="100%" overflow="visible" style="display: block;" viewBox="0 0 598 88" fill="none" xmlns="http://www.w3.org/2000/svg">
<g id="Vector">
<path d="M0 0H23.0064L63.7607 40.9131L23.0064 87.671H0L28.9224 40.9131L0 0Z" fill="var(--fill-0, #FBFAF8)"/>
<path d="M46.4914 8.56068e-05H69.4979L110.252 40.9132L69.4979 87.6711H46.4914L75.4138 40.9132L46.4914 8.56068e-05Z" fill="var(--fill-0, #FBFAF8)"/>
<path d="M149.324 43.1315C149.324 46.2211 149.324 49.287 149.324 52.3291C149.372 55.3712 149.419 58.3895 149.467 61.3841H151.82C155.907 61.3841 159.116 59.7204 161.445 56.3931C163.822 53.0183 165.01 48.2413 165.01 42.062C165.01 35.7877 163.822 31.0106 161.445 27.7309C159.116 24.4511 155.931 22.8112 151.891 22.8112H149.467C149.419 25.7583 149.372 28.7291 149.324 31.7236C149.324 34.7182 149.324 37.7365 149.324 40.7786V43.1315ZM131.856 22.526V18.6759H153.032C158.118 18.6759 162.467 19.6266 166.079 21.5279C169.692 23.3816 172.473 26.0435 174.421 29.5134C176.37 32.9833 177.345 37.1424 177.345 41.9907C177.345 46.9341 176.299 51.1645 174.207 54.6819C172.116 58.1994 169.145 60.885 165.295 62.7388C161.492 64.5925 156.977 65.5194 151.748 65.5194H131.856V61.6693L137.203 61.0989C137.298 58.1994 137.346 55.2523 137.346 52.2578C137.346 49.2632 137.346 46.2449 137.346 43.2028V40.7786C137.346 37.8316 137.346 34.8846 137.346 31.9375C137.346 28.943 137.298 25.9959 137.203 23.0964L131.856 22.526Z" fill="var(--fill-0, #FBFAF8)"/>
<path d="M182.626 65.5194V62.1684L186.477 61.3128C186.524 59.6016 186.548 57.7478 186.548 55.7514C186.548 53.7551 186.548 52.0201 186.548 50.5466V47.1242C186.548 45.1754 186.524 43.5593 186.477 42.2759C186.477 40.945 186.429 39.5665 186.334 38.1406L181.913 37.4989V34.7182L196.886 29.9412L198.098 30.7254L197.884 41.0638V50.5466C197.884 52.0201 197.884 53.7788 197.884 55.8227C197.884 57.8191 197.908 59.6967 197.956 61.4554L201.521 62.1684V65.5194H182.626ZM192.109 24.665C190.445 24.665 189.02 24.1422 187.831 23.0964C186.643 22.0032 186.049 20.6485 186.049 19.0324C186.049 17.3687 186.643 16.0141 187.831 14.9683C189.02 13.8751 190.445 13.3285 192.109 13.3285C193.773 13.3285 195.199 13.8751 196.387 14.9683C197.575 16.0141 198.17 17.3687 198.17 19.0324C198.17 20.6485 197.575 22.0032 196.387 23.0964C195.199 24.1422 193.773 24.665 192.109 24.665Z" fill="var(--fill-0, #FBFAF8)"/>
<path d="M205.685 65.5194V62.1684L209.606 61.3841C209.654 59.6254 209.678 57.7478 209.678 55.7514C209.678 53.7551 209.678 52.0201 209.678 50.5466V46.34C209.678 45.009 209.654 43.9158 209.606 43.0602C209.606 42.2046 209.583 41.4203 209.535 40.7073C209.535 39.9468 209.511 39.0912 209.464 38.1406L205.115 37.4989V34.7182L219.16 29.9412L220.444 30.7254L221.086 39.1387C222.084 36.0966 223.486 33.8151 225.292 32.294C227.098 30.7254 228.881 29.9412 230.64 29.9412C232.208 29.9412 233.563 30.3927 234.704 31.2958C235.844 32.1514 236.557 33.4586 236.843 35.2173C236.795 37.0711 236.296 38.5208 235.345 39.5665C234.395 40.5647 233.206 41.0638 231.78 41.0638C229.784 41.0638 227.954 39.9468 226.29 37.7128L225.863 37.1424C224.817 38.1406 223.842 39.4002 222.939 40.9212C222.084 42.4423 221.466 44.0346 221.086 45.6983V50.5466C221.086 52.0201 221.086 53.7075 221.086 55.6088C221.086 57.5101 221.109 59.2926 221.157 60.9563L226.789 62.1684V65.5194H205.685Z" fill="var(--fill-0, #FBFAF8)"/>
<path d="M256.111 33.6487C254.78 33.6487 253.544 34.4805 252.403 36.1442C251.31 37.7603 250.692 40.7549 250.549 45.1279H256.61C258.321 45.1279 259.462 44.7951 260.032 44.1297C260.65 43.4167 260.959 42.2521 260.959 40.636C260.959 38.2594 260.484 36.5007 259.533 35.3599C258.582 34.2191 257.442 33.6487 256.111 33.6487ZM256.253 66.5889C252.783 66.5889 249.718 65.8759 247.056 64.4499C244.394 62.9764 242.302 60.885 240.781 58.1756C239.26 55.4187 238.5 52.1389 238.5 48.3363C238.5 44.3436 239.379 40.9925 241.138 38.2832C242.944 35.5263 245.249 33.4586 248.054 32.0801C250.858 30.6541 253.782 29.9412 256.824 29.9412C259.961 29.9412 262.623 30.6066 264.809 31.9375C267.043 33.2684 268.731 35.0747 269.871 37.3563C271.012 39.5903 271.583 42.1571 271.583 45.0566C271.583 46.435 271.44 47.6946 271.155 48.8354H250.549C250.787 52.5905 251.809 55.3712 253.615 57.1774C255.469 58.9361 257.632 59.8155 260.103 59.8155C262.052 59.8155 263.716 59.459 265.094 58.746C266.473 57.9855 267.685 57.0586 268.731 55.9653L271.226 58.2469C269.753 61.0513 267.756 63.1428 265.237 64.5212C262.718 65.8997 259.723 66.5889 256.253 66.5889Z" fill="var(--fill-0, #FBFAF8)"/>
<path d="M294.076 66.5889C290.844 66.5889 287.873 65.9234 285.164 64.5925C282.502 63.2141 280.363 61.1702 278.747 58.4608C277.131 55.7514 276.323 52.4004 276.323 48.4076C276.323 44.5099 277.178 41.1826 278.89 38.4257C280.648 35.6688 282.977 33.5774 285.877 32.1514C288.824 30.6779 292.056 29.9412 295.574 29.9412C298.093 29.9412 300.327 30.4165 302.276 31.3671C304.225 32.3178 305.769 33.5774 306.91 35.146C308.099 36.7146 308.764 38.4495 308.907 40.3508C308.146 42.8225 306.53 44.0584 304.058 44.0584C302.68 44.0584 301.468 43.5593 300.422 42.5611C299.376 41.5629 298.782 39.8042 298.639 37.285L298.14 33.72C297.95 33.6725 297.736 33.6487 297.499 33.6487C297.261 33.6487 297.023 33.6487 296.786 33.6487C295.455 33.6487 294.124 34.1003 292.793 35.0034C291.462 35.9065 290.369 37.3325 289.513 39.2813C288.658 41.2302 288.23 43.8207 288.23 47.0529C288.23 51.1408 289.133 54.3017 290.939 56.5357C292.793 58.7222 295.217 59.8155 298.212 59.8155C299.923 59.8155 301.42 59.459 302.704 58.746C303.987 57.9855 305.151 57.0111 306.197 55.8227L308.693 58.033C307.314 60.9325 305.365 63.0952 302.846 64.5212C300.374 65.8997 297.451 66.5889 294.076 66.5889Z" fill="var(--fill-0, #FBFAF8)"/>
<path d="M326.65 66.5889C323.465 66.5889 320.97 65.8284 319.164 64.3073C317.357 62.7387 316.454 60.1957 316.454 56.6783C316.454 55.4425 316.454 54.3017 316.454 53.256C316.502 52.1627 316.526 50.9269 316.526 49.5484V35.9303H311.891V31.7236L317.167 31.0106L320.732 21.0288H328.005L327.862 31.0819H335.349V35.9303H327.862V55.894C327.862 57.5577 328.195 58.7935 328.86 59.6016C329.573 60.3621 330.453 60.7424 331.498 60.7424C332.734 60.7424 334.018 60.2195 335.349 59.1738L337.131 60.885C336.18 62.6912 334.849 64.0934 333.138 65.0916C331.475 66.0898 329.312 66.5889 326.65 66.5889Z" fill="var(--fill-0, #FBFAF8)"/>
<path d="M339.488 22.526V18.6759H375.85L376.349 30.9393H370.432L369.006 22.6686H357.099C357.051 25.378 357.004 28.1111 356.956 30.868C356.956 33.6249 356.956 36.4056 356.956 39.21H364.656L365.512 33.6487H369.647V48.978H365.512L364.656 43.4167H356.956C356.956 46.6964 356.956 49.8098 356.956 52.7569C357.004 55.7039 357.051 58.6272 357.099 61.5267H370.432L371.858 53.256H377.775L377.276 65.5194H339.488V61.6693L344.835 61.0989C344.93 58.1994 344.978 55.2761 344.978 52.3291C344.978 49.382 344.978 46.4113 344.978 43.4167V40.7786C344.978 37.8316 344.978 34.8846 344.978 31.9375C344.978 28.943 344.93 25.9959 344.835 23.0964L339.488 22.526Z" fill="var(--fill-0, #FBFAF8)"/>
<path d="M405.135 34.2191V31.0819H417.612V34.2191L413.548 35.0034L405.277 46.1974L414.831 61.4554L418.895 62.1684V65.5194H398.504V62.1684L401.784 61.6693L396.508 53.1134L390.946 61.5267L394.44 62.1684V65.5194H380.964V62.1684L385.884 61.3841L394.44 49.7623L385.171 34.7895L381.178 34.2191V31.0819H401.213V34.2191L398.076 34.7182L403.281 42.9889L408.557 35.0034L405.135 34.2191Z" fill="var(--fill-0, #FBFAF8)"/>
<path d="M420.979 81.7043V78.3533L424.972 77.4977C425.02 75.2636 425.043 73.1722 425.043 71.2233C425.091 69.322 425.115 67.492 425.115 65.7333V46.4113C425.115 44.4624 425.091 42.9651 425.043 41.9194C425.043 40.8262 424.996 39.5665 424.901 38.1406L420.48 37.4989V34.7182L434.455 29.9412L435.667 30.6541L435.952 34.6469C438.947 31.5097 442.464 29.9412 446.504 29.9412C449.119 29.9412 451.472 30.6304 453.563 32.0088C455.654 33.3873 457.318 35.4312 458.554 38.1406C459.837 40.8499 460.479 44.1772 460.479 48.1224C460.479 51.9251 459.766 55.2286 458.34 58.033C456.914 60.7899 455.037 62.9051 452.707 64.3786C450.426 65.8521 447.93 66.5889 445.221 66.5889C441.561 66.5889 438.566 65.3531 436.237 62.8813V65.662C436.237 67.4207 436.237 69.2507 436.237 71.152C436.285 73.0534 436.332 75.0973 436.38 77.2838L440.943 78.3533V81.7043H420.979ZM441.3 36.1442C440.396 36.1442 439.541 36.3343 438.733 36.7146C437.972 37.0948 437.212 37.5702 436.451 38.1406V58.8173C437.877 60.0056 439.422 60.5998 441.086 60.5998C443.225 60.5998 444.96 59.6016 446.29 57.6052C447.669 55.6088 448.358 52.4954 448.358 48.265C448.358 44.0346 447.693 40.9688 446.362 39.0674C445.078 37.1186 443.391 36.1442 441.3 36.1442Z" fill="var(--fill-0, #FBFAF8)"/>
<path d="M465.137 65.5194V62.1684L469.058 61.3841C469.106 59.6254 469.13 57.7478 469.13 55.7514C469.13 53.7551 469.13 52.0201 469.13 50.5466V46.34C469.13 45.009 469.106 43.9158 469.058 43.0602C469.058 42.2046 469.035 41.4203 468.987 40.7073C468.987 39.9468 468.963 39.0912 468.916 38.1406L464.566 37.4989V34.7182L478.612 29.9412L479.896 30.7254L480.537 39.1387C481.536 36.0966 482.938 33.8151 484.744 32.294C486.55 30.7254 488.333 29.9412 490.092 29.9412C491.66 29.9412 493.015 30.3927 494.156 31.2958C495.296 32.1514 496.009 33.4586 496.295 35.2173C496.247 37.0711 495.748 38.5208 494.797 39.5665C493.847 40.5647 492.658 41.0638 491.232 41.0638C489.236 41.0638 487.406 39.9468 485.742 37.7128L485.314 37.1424C484.269 38.1406 483.294 39.4002 482.391 40.9212C481.536 42.4423 480.918 44.0346 480.537 45.6983V50.5466C480.537 52.0201 480.537 53.7075 480.537 55.6088C480.537 57.5101 480.561 59.2926 480.609 60.9563L486.241 62.1684V65.5194H465.137Z" fill="var(--fill-0, #FBFAF8)"/>
<path d="M515.563 33.6487C514.232 33.6487 512.996 34.4805 511.855 36.1442C510.762 37.7603 510.144 40.7549 510.001 45.1279H516.062C517.773 45.1279 518.914 44.7951 519.484 44.1297C520.102 43.4167 520.411 42.2521 520.411 40.636C520.411 38.2594 519.936 36.5007 518.985 35.3599C518.034 34.2191 516.894 33.6487 515.563 33.6487ZM515.705 66.5889C512.235 66.5889 509.169 65.8759 506.508 64.4499C503.846 62.9764 501.754 60.885 500.233 58.1756C498.712 55.4187 497.952 52.1389 497.952 48.3363C497.952 44.3436 498.831 40.9925 500.59 38.2832C502.396 35.5263 504.701 33.4586 507.506 32.0801C510.31 30.6541 513.233 29.9412 516.276 29.9412C519.413 29.9412 522.075 30.6066 524.261 31.9375C526.495 33.2684 528.183 35.0747 529.323 37.3563C530.464 39.5903 531.034 42.1571 531.034 45.0566C531.034 46.435 530.892 47.6946 530.607 48.8354H510.001C510.239 52.5905 511.261 55.3712 513.067 57.1774C514.921 58.9361 517.084 59.8155 519.555 59.8155C521.504 59.8155 523.168 59.459 524.546 58.746C525.925 57.9855 527.137 57.0586 528.183 55.9653L530.678 58.2469C529.204 61.0513 527.208 63.1428 524.689 64.5212C522.17 65.8997 519.175 66.5889 515.705 66.5889Z" fill="var(--fill-0, #FBFAF8)"/>
<path d="M548.323 66.5889C543.808 66.5889 539.672 65.4956 535.917 63.3091L536.131 54.6106H541.835L543.047 61.6693C543.903 62.002 544.758 62.2634 545.614 62.4535C546.47 62.5961 547.397 62.6674 548.395 62.6674C550.439 62.6674 552.007 62.3347 553.1 61.6693C554.194 60.9563 554.74 59.8868 554.74 58.4608C554.74 57.3675 554.336 56.4169 553.528 55.6088C552.72 54.8008 551.128 54.064 548.751 53.3986L544.901 52.2578C542.144 51.4497 540.005 50.1426 538.484 48.3363C537.011 46.5301 536.274 44.296 536.274 41.6342C536.274 38.3545 537.557 35.5976 540.124 33.3635C542.691 31.0819 546.375 29.9412 551.175 29.9412C553.267 29.9412 555.192 30.2026 556.951 30.7254C558.757 31.2008 560.587 31.9138 562.441 32.8644L561.942 40.636H556.238L554.812 34.5043C553.813 34.124 552.506 33.9339 550.89 33.9339C549.274 33.9339 547.967 34.2666 546.969 34.9321C546.018 35.5976 545.543 36.5957 545.543 37.9267C545.543 38.8773 545.923 39.7329 546.684 40.4934C547.444 41.2064 549.06 41.9432 551.532 42.7037L555.026 43.7019C558.4 44.7001 560.825 46.1261 562.298 47.9798C563.772 49.8336 564.508 52.0914 564.508 54.7532C564.508 58.5083 563.059 61.4316 560.159 63.523C557.307 65.5669 553.362 66.5889 548.323 66.5889Z" fill="var(--fill-0, #FBFAF8)"/>
<path d="M581.483 66.5889C576.967 66.5889 572.832 65.4956 569.077 63.3091L569.291 54.6106H574.995L576.207 61.6693C577.063 62.002 577.918 62.2634 578.774 62.4535C579.629 62.5961 580.556 62.6674 581.554 62.6674C583.598 62.6674 585.167 62.3347 586.26 61.6693C587.353 60.9563 587.9 59.8868 587.9 58.4608C587.9 57.3675 587.496 56.4169 586.688 55.6088C585.88 54.8008 584.288 54.064 581.911 53.3986L578.061 52.2578C575.304 51.4497 573.165 50.1426 571.644 48.3363C570.17 46.5301 569.434 44.296 569.434 41.6342C569.434 38.3545 570.717 35.5976 573.284 33.3635C575.85 31.0819 579.534 29.9412 584.335 29.9412C586.427 29.9412 588.352 30.2026 590.11 30.7254C591.917 31.2008 593.747 31.9138 595.6 32.8644L595.101 40.636H589.397L587.971 34.5043C586.973 34.124 585.666 33.9339 584.05 33.9339C582.434 33.9339 581.127 34.2666 580.128 34.9321C579.178 35.5976 578.702 36.5957 578.702 37.9267C578.702 38.8773 579.083 39.7329 579.843 40.4934C580.604 41.2064 582.22 41.9432 584.692 42.7037L588.185 43.7019C591.56 44.7001 593.984 46.1261 595.458 47.9798C596.931 49.8336 597.668 52.0914 597.668 54.7532C597.668 58.5083 596.218 61.4316 593.319 63.523C590.467 65.5669 586.522 66.5889 581.483 66.5889Z" fill="var(--fill-0, #FBFAF8)"/>
</g>
</svg>
