<svg width="200" height="200" viewBox="0 0 200 200" fill="none" xmlns="http://www.w3.org/2000/svg">
<path d="M139.8 100H179V126C179 137.046 170.046 146 159 146H142.5C135.596 146 130 140.404 130 133.5Lnan nanL130 133.5H157L145.5 116.5L139.8 100Z" fill="#C3E8EC"/>
<path d="M131.231 133.148C145.634 133.529 155.146 133.314 155.999 133C132.322 134.231 109.981 131.009 91.8154 122.732C85.2271 119.73 82.2052 117.626 82.2052 117.626C82.2052 117.626 80.91 117.626 73.2701 110.935C69.196 107.367 64.8135 102.577 61.9076 98.0023C52.7646 109.398 40.9216 119.727 33.499 117C56.3563 128.369 102.745 132.407 131.231 133.148Z" fill="#ABD6C0"/>
<path fill-rule="evenodd" clip-rule="evenodd" d="M105.742 73.9946C105.538 71.043 105.414 68.449 105.341 66.5933C105.312 65.8531 105.291 65.2306 105.277 64.7499H119.334C119.383 65.6926 119.451 66.9709 119.536 68.4155C119.696 71.1364 119.916 74.467 120.171 77.2579L121.928 77.2502C121.387 71.4153 121 62.9999 121 62.9999H37.0002C37.0002 62.9999 37.0042 63.4646 37.0333 64.7499C37.0784 66.7427 37.1837 70.7082 37.4278 77.9732L37.4287 77.9999C37.5686 82.1629 37.7539 87.4074 37.9995 93.9823L38.0001 93.9999C38.0221 94.588 38.0481 95.1652 38.0779 95.7317C38.5751 105.167 40.0867 111.224 41.8003 115.594L43.5002 115.41C42.9059 113.901 42.3241 112.114 41.8003 110.003L51.0002 110.018L53.0002 108.271L41.3963 108.252C40.6693 104.859 40.0972 100.728 39.8296 95.7166L55.4921 95.5816C55.8888 98.4847 56.328 101.333 56.8114 104L58.323 102.5C57.9385 100.278 57.5832 97.943 57.2564 95.5664L73.878 95.4232C75.0311 100.415 76.2285 104.69 77.3877 108.312L70.5323 108.3L72.5002 110.054L77.9619 110.063C78.8523 112.713 79.7113 114.974 80.5002 116.878L82.8524 117.927C82.7534 117.703 82.6528 117.472 82.5507 117.235C81.7183 115.301 80.7868 112.925 79.8105 110.066L95.1083 110.091C96.0762 112.89 97.0028 115.228 97.8364 117.145C98.9056 119.604 99.8216 121.37 100.475 122.528C100.518 122.605 100.56 122.679 100.601 122.75L90.8871 122.879L95.1083 124.5H135.5C135.5 124.5 135.079 123.95 134.377 122.75C132.321 119.235 127.855 110.147 124.5 92.9999C124.5 92.9999 122.586 83.9096 122 77.9999L121.995 77.9545C121.973 77.7246 121.95 77.4896 121.928 77.2502L120.171 77.2579L105.996 77.3197C105.9 76.1777 105.815 75.0634 105.742 73.9946ZM54.5168 67.8522C54.6865 70.3167 54.9378 73.69 55.2762 77.5408L71.266 77.4711C71.1749 76.3851 71.0942 75.3269 71.0228 74.3113C70.8098 71.2832 70.6785 68.6229 70.6004 66.7192C70.5676 65.9201 70.5442 65.2541 70.5281 64.7499H54.3141C54.359 65.4812 54.4263 66.5372 54.5168 67.8522ZM72.3489 66.6475C72.4265 68.5382 72.5569 71.1811 72.7685 74.1885C72.8426 75.2422 72.9265 76.3393 73.0215 77.4634L88.249 77.397C88.1558 76.2832 88.0738 75.1983 88.0017 74.1587C87.7947 71.1738 87.6686 68.5512 87.5943 66.6746C87.5634 65.8956 87.5415 65.2449 87.5263 64.7499H72.279C72.2949 65.2423 72.3176 65.8834 72.3489 66.6475ZM89.3429 66.6053C89.4167 68.4688 89.542 71.0736 89.7475 74.0376C89.8222 75.1149 89.9075 76.2382 90.0045 77.3894L104.24 77.3273C104.148 76.2226 104.067 75.1465 103.996 74.1151C103.79 71.1425 103.666 68.5308 103.593 66.6619C103.562 65.8886 103.541 65.2423 103.526 64.7499H89.2772C89.2921 65.2332 89.3134 65.8598 89.3429 66.6053ZM108.149 92.8972C107.223 88.7615 106.586 83.7639 106.15 79.069L120.347 79.0071C120.672 81.8808 121.245 85.2828 121.748 88.0315C122.026 89.5482 122.286 90.8785 122.476 91.8299C122.571 92.3057 122.648 92.6872 122.702 92.9502L122.715 93.0112L122.765 93.2519L122.765 93.2531L122.785 93.3479C122.854 93.7032 122.924 94.0551 122.995 94.4036C124.099 99.8654 125.314 104.501 126.523 108.393C126.682 108.906 126.841 109.406 127 109.893C128.073 113.182 129.128 115.89 130.084 118.076C130.945 120.044 131.726 121.588 132.366 122.75H118.765C118.741 122.713 118.714 122.671 118.685 122.626C118.52 122.368 118.276 121.97 117.964 121.42C117.342 120.321 116.454 118.617 115.41 116.223C114.676 114.539 113.865 112.515 113.015 110.12L127 110.143L127 109.893C126.841 109.406 126.682 108.906 126.523 108.393L112.409 108.369C111.184 104.736 109.899 100.348 108.662 95.1235L123 94.9999L122.995 94.4036C122.924 94.0551 122.854 93.7032 122.785 93.3479L122.765 93.2531L122.765 93.2519L108.257 93.3769C108.221 93.2177 108.185 93.0578 108.149 92.8972ZM116.442 122.282C115.789 121.129 114.874 119.371 113.806 116.922C112.995 115.063 112.097 112.808 111.158 110.117L96.9628 110.094C97.8434 112.597 98.6835 114.704 99.4413 116.447C100.487 118.852 101.376 120.564 101.999 121.668C102.263 122.135 102.479 122.494 102.639 122.75H116.711C116.627 122.607 116.537 122.451 116.442 122.282ZM55.259 93.8335C54.6123 88.8621 54.0876 83.8069 53.6765 79.2978L39.2257 79.3608C39.3593 83.2806 39.5302 88.08 39.7489 93.9346L39.7501 93.9672L55.259 93.8335ZM53.5202 77.5484C53.1871 73.745 52.9391 70.4143 52.771 67.9725C52.679 66.6377 52.611 65.5683 52.5658 64.8322L52.5608 64.7499H38.7837C38.8046 65.6703 38.8383 67.0069 38.8923 68.8872C38.9537 71.0282 39.0415 73.8734 39.1666 77.611L53.5202 77.5484ZM55.4331 79.2901C55.8473 83.8171 56.3744 88.8697 57.0219 93.8184L73.4831 93.6765C72.524 89.3071 71.8672 84.0747 71.4198 79.2204L55.4331 79.2901ZM73.1766 79.2128C73.6252 84.0392 74.2794 89.1939 75.226 93.4535L75.2723 93.6611L90.4869 93.53L90.4584 93.4024C89.4988 89.1089 88.8456 83.9469 88.4028 79.1464L73.1766 79.2128ZM90.1596 79.1387C90.5981 83.8519 91.2383 88.8686 92.1662 93.0207C92.2032 93.1861 92.2402 93.3507 92.2773 93.5146L106.467 93.3923L106.441 93.2795C105.484 89.0021 104.834 83.859 104.393 79.0767L90.1596 79.1387ZM106.868 95.1389L92.6813 95.2612C93.8969 100.403 95.1578 104.737 96.3625 108.343L110.563 108.366C109.347 104.701 108.082 100.318 106.868 95.1389ZM94.5178 108.34C93.3221 104.705 92.0808 100.374 90.8871 95.2766L75.6709 95.4077C76.8441 100.44 78.0593 104.719 79.2275 108.315L94.5178 108.34Z" fill="#ABD6C0"/>
<path d="M132.5 73.4999C135.815 82.937 138.559 84.8049 144.197 83.0885C149.835 81.3721 155.168 70.9536 150.752 63.0969C145.402 55.128 130.501 45.9998 130.5 51C130.5 51.4383 130.525 63.53 132.5 73.4999Z" fill="#ABD6C0"/>
<path d="M176.143 48.9964C173.461 57.1795 166.177 61.7248 160.858 59.9815C155.539 58.2383 151.125 49.6103 153.807 41.4272C156.489 33.2441 165.773 23.8346 171.092 25.5779C176.411 27.3211 178.825 40.8133 176.143 48.9964Z" fill="#ABD6C0"/>
<path d="M182.662 74.3411C177.7 79.6688 170.426 80.9753 166.879 77.6721C163.333 74.3689 165.182 67.7062 170.144 62.3785C175.106 57.0507 181.994 55.9013 184.844 58.5557C187.016 60.5781 187.72 67.6869 182.662 74.3411Z" fill="#ABD6C0"/>
<path d="M28 44L131 44L131 58L28 58L28 44Z" fill="#EA6516"/>
<path fill-rule="evenodd" clip-rule="evenodd" d="M113.744 70.4607L100.133 92.4474L94.3525 86.0887L95.6474 84.9115L99.8668 89.5528L112.256 69.5396L113.744 70.4607Z" fill="#EA6516"/>
<path fill-rule="evenodd" clip-rule="evenodd" d="M27.158 42.6248C26.6747 42.6248 26.283 43.0165 26.283 43.4998L26.2826 94.7316C25.8797 94.8203 25.5841 95.1854 25.5971 95.6127C25.6062 95.9104 25.7295 96.4198 26.2656 96.6307C26.2726 96.6335 26.2797 96.6362 26.2867 96.6388C26.3137 99.8221 26.4706 102.559 26.75 104.909C27.0386 107.336 27.4579 109.35 28 111.017C28.0675 111.225 28.1369 111.427 28.2081 111.624C29.4826 115.145 31.3862 117.046 33.8196 117.931C35.9256 118.701 38.2508 118.527 40.6326 117.727C43.0133 116.928 45.5107 115.485 48.0214 113.625C52.7696 110.107 57.6832 105.01 62.1006 99.6252C64.9312 103.869 68.3131 107.72 72.1589 111.077L72.1615 111.079C72.489 111.363 72.82 111.65 73.1545 111.941C78.4768 116.561 84.6552 121.925 91.1427 124.798C102.109 129.778 114.772 132.484 128.25 133.597C128.832 133.645 129.415 133.69 130 133.732C138.609 134.353 147.533 134.342 156.545 133.874C156.886 133.856 157.185 133.642 157.312 133.326C157.439 133.01 157.371 132.649 157.137 132.401C143.803 118.221 137.46 96.0695 134.472 77.3273C132.981 67.9777 132.332 59.5203 132.055 53.4005C131.917 50.3412 131.872 47.8676 131.862 46.1607C131.856 45.3072 131.86 44.6455 131.864 44.1982C131.867 43.9746 131.869 43.8045 131.871 43.6909L131.874 43.5632L131.875 43.5317L131.875 43.5225C131.875 43.5225 131.875 43.5222 131 43.4999L131.875 43.5225C131.881 43.2866 131.791 43.0581 131.627 42.8891C131.462 42.7202 131.236 42.6249 131 42.6249L61.3615 42.6248L51.389 42.6248L49.2439 42.6248L28 42.6248L27.158 42.6248ZM130.113 44.3749C130.109 44.8198 130.107 45.4235 130.112 46.1714C130.122 47.8985 130.168 50.395 130.307 53.4795C130.586 59.6472 131.24 68.1725 132.744 77.6029C135.651 95.8354 141.756 117.617 154.604 132.216C146.225 132.592 137.965 132.557 130 131.977C129.415 131.935 128.832 131.889 128.25 131.841C114.976 130.733 102.569 128.066 91.8624 123.203L91.8549 123.2C85.617 120.438 79.6241 115.238 74.2448 110.57C73.9305 110.297 73.6184 110.026 73.3083 109.757C69.2852 106.245 65.7855 102.175 62.9161 97.672C62.7646 97.4343 62.5079 97.2841 62.2264 97.2685C61.945 97.253 61.6733 97.374 61.4965 97.5935C56.9326 103.264 51.8327 108.623 46.9797 112.218C44.5529 114.016 42.2207 115.348 40.0755 116.068C37.932 116.788 36.0358 116.879 34.4193 116.287L34.4173 116.286C32.571 115.615 30.9912 114.171 29.8537 111.028C28.6999 107.84 28.0296 102.97 28.0326 95.5864L28.033 44.3748L48.3653 44.3748L50.6417 44.3748L130.113 44.3749Z" fill="#02514E"/>
<path d="M78.6007 51.1911C85.4694 50.212 90.7505 44.3061 90.7505 37.1668C90.7505 29.3427 84.4078 23 76.5837 23C68.7596 23 62.4169 29.3427 62.4169 37.1668C62.4169 39.435 62.95 41.5787 63.8977 43.4795H61.6958C61.5766 43.1986 61.465 42.9136 61.3615 42.6248C61.2875 42.4185 61.2175 42.2102 61.1518 42C60.6743 40.4738 60.4169 38.8504 60.4169 37.1668C60.4169 28.2381 67.655 21 76.5837 21C85.5124 21 92.7505 28.2381 92.7505 37.1668C92.7505 45.4124 86.5774 52.2162 78.6007 53.209V51.1911Z" fill="#02514E"/>
<path d="M119.001 51.1935C125.878 50.2217 131.167 44.312 131.167 37.1668C131.167 29.3427 124.825 23 117.001 23C109.177 23 102.834 29.3427 102.834 37.1668C102.834 39.435 103.367 41.5787 104.315 43.4795H102.113C101.289 41.54 100.834 39.4066 100.834 37.1668C100.834 28.2381 108.072 21 117.001 21C125.929 21 133.167 28.2381 133.167 37.1668C133.167 40.7674 131.99 44.0931 130 46.78C129.472 47.4932 128.886 48.1614 128.25 48.7779C125.791 51.1611 122.576 52.7699 119.001 53.2111V51.1935Z" fill="#02514E"/>
<path d="M43 52.5C43 54.433 41.6569 56 40 56C38.3431 56 37 54.433 37 52.5C37 50.567 38.3431 49 40 49C40.8284 49 41.5784 49.3918 42.1213 50.0251C42.5389 50.5122 42.8339 51.1423 42.9479 51.8469C42.9821 52.0585 43 52.2768 43 52.5Z" fill="#02514E"/>
<path d="M82 52.5C82 54.433 80.6569 56 79 56C77.3431 56 76 54.433 76 52.5C76 50.567 77.3431 49 79 49C80.6569 49 82 50.567 82 52.5Z" fill="#02514E"/>
<path d="M120 52.5C120 54.433 118.657 56 117 56C115.343 56 114 54.433 114 52.5C114 50.567 115.343 49 117 49C118.657 49 120 50.567 120 52.5Z" fill="#02514E"/>
<path d="M50.6417 44.3748L48.3653 44.3748C46.9091 46.834 44.7303 48.8149 42.1213 50.0251C42.5389 50.5122 42.8339 51.1423 42.9479 51.8469C46.2835 50.3035 49.0043 47.6567 50.6417 44.3748Z" fill="#02514E"/>
<path d="M49.4877 42H51.5987C52.0762 40.4738 52.3335 38.8504 52.3335 37.1668C52.3335 28.2381 45.0954 21 36.1668 21C27.2381 21 20 28.2381 20 37.1668C20 38.8504 20.2573 40.4738 20.7348 42H22.8459C22.2985 40.4917 22 38.8641 22 37.1668C22 29.3427 28.3427 23 36.1668 23C43.9909 23 50.3335 29.3427 50.3335 37.1668C50.3335 38.8641 50.0351 40.4917 49.4877 42Z" fill="#02514E"/>
<path d="M49.2439 42.6248L51.389 42.6248C51.463 42.4185 51.533 42.2101 51.5987 42H49.4877C49.4112 42.2106 49.3299 42.419 49.2439 42.6248Z" fill="#02514E"/>
<path d="M61.3615 42.6248C61.2875 42.4185 61.2175 42.2102 61.1518 42H51.5987C51.533 42.2101 51.463 42.4185 51.389 42.6248L61.3615 42.6248Z" fill="#02514E"/>
<path d="M28 42V42.6248L49.2439 42.6248C49.3299 42.419 49.4112 42.2106 49.4877 42H28Z" fill="#02514E"/>
<path d="M28 146V144.25H26.75V104.909C26.4706 102.559 26.3137 99.8221 26.2867 96.6388L26.2656 96.6307C25.7295 96.4198 25.6062 95.9104 25.5971 95.6127C25.5841 95.1854 25.8797 94.8203 26.2826 94.7316L26.283 43.4998C26.283 43.0165 26.6747 42.6248 27.158 42.6248L28 42.6248V42H22.8459H20.7348H12V146H28Z" fill="#02514E"/>
<path d="M28 146H130V133.732C129.415 133.69 128.832 133.645 128.25 133.597V144.25H28V146Z" fill="#02514E"/>
<path d="M26.75 144.25H28V111.017C27.4579 109.35 27.0386 107.336 26.75 104.909V144.25Z" fill="#02514E"/>
<path fill-rule="evenodd" clip-rule="evenodd" d="M165.695 38.4652C165.695 38.4652 165.695 38.465 166.534 38.7128C167.373 38.9605 167.373 38.9607 167.373 38.9607L167.372 38.9634L167.316 39.153C167.279 39.28 167.224 39.4679 167.154 39.7113C167.012 40.198 166.807 40.9062 166.555 41.7914C166.05 43.5618 165.354 46.0394 164.59 48.8674C163.06 54.529 161.263 61.574 160.179 67.16C158.773 74.3977 157.661 83.8315 156.899 91.4741C156.528 95.2016 156.24 98.4963 156.043 100.892C156.378 99.6922 156.795 98.2613 157.282 96.7127C158.637 92.3976 160.553 87.0968 162.764 83.3538C164.898 79.7421 168.327 75.8534 171.186 72.8944C172.623 71.4084 173.927 70.1446 174.873 69.2518C175.346 68.8054 175.73 68.4513 175.996 68.2084C176.129 68.0869 176.233 67.9932 176.304 67.9295L176.385 67.8569L176.406 67.838L176.413 67.8317C176.413 67.8317 176.414 67.8311 176.995 68.4853L177.576 69.1396L177.57 69.1447L177.551 69.1617L177.474 69.2304C177.406 69.2914 177.306 69.3823 177.176 69.5009C176.916 69.7379 176.54 70.0854 176.074 70.5246C175.143 71.4033 173.858 72.648 172.445 74.1105C169.606 77.0486 166.296 80.8167 164.271 84.244C162.169 87.8029 160.301 92.9399 158.951 97.2371C158.28 99.3759 157.742 101.289 157.372 102.667C157.187 103.355 157.044 103.91 156.947 104.291C156.899 104.482 156.863 104.63 156.838 104.729L156.811 104.842L156.802 104.877L156.802 104.878L155.951 104.675C155.878 104.657 155.812 104.641 155.752 104.627C155.751 104.638 155.75 104.649 155.749 104.66L155.73 104.923C155.73 104.923 155.73 104.923 155.59 104.914V104.917L153.84 104.916C153.842 102.065 152.777 97.9147 151.506 93.9765C150.359 90.4254 149.078 87.1463 148.365 85.3189C148.293 85.1358 148.227 84.9673 148.168 84.8145C146.517 80.5706 143.168 75.9393 140.182 72.3292C138.697 70.5337 137.317 69.0087 136.308 67.933C135.804 67.3954 135.393 66.9705 135.109 66.6809C134.967 66.536 134.857 66.425 134.783 66.3507C134.745 66.3135 134.717 66.2854 134.699 66.2669L134.678 66.2463L134.672 66.2404L135.285 65.6164C135.899 64.9925 135.899 64.9928 135.899 64.9928L135.907 65.0012L135.931 65.0244C135.951 65.0447 135.981 65.0746 136.021 65.1137C136.099 65.1918 136.213 65.3068 136.359 65.4558C136.651 65.7538 137.071 66.188 137.585 66.736C138.612 67.8316 140.017 69.3841 141.531 71.2138C144.542 74.8538 148.042 79.663 149.799 84.1801C149.858 84.3318 149.924 84.4997 149.995 84.6828C150.708 86.5088 152.007 89.8346 153.171 93.4388C153.659 94.9519 154.13 96.5321 154.525 98.0836C154.697 96.1104 154.908 93.8027 155.158 91.3005C155.92 83.6483 157.039 74.1476 158.461 66.8264C159.558 61.1755 161.369 54.0803 162.9 48.4109C163.667 45.5734 164.365 43.0878 164.872 41.3114C165.125 40.4231 165.331 39.712 165.473 39.2228C165.544 38.9782 165.599 38.789 165.637 38.6608L165.695 38.4652Z" fill="#02514E"/>
</svg>
