<svg width="200" height="200" viewBox="0 0 200 200" fill="none" xmlns="http://www.w3.org/2000/svg">
<rect x="56.4854" y="105.384" width="95.5659" height="57.9205" rx="5" transform="rotate(-10.179 56.4854 105.384)" fill="#ABD6C0"/>
<path d="M167.818 52.0082C173.504 52.1874 178.381 59.2086 178.346 66.6002L178.65 66.6098C178.685 59.2083 183.323 52.4969 189.009 52.6761C183.323 52.4969 178.751 45.4852 178.786 38.0936L178.481 38.084C178.446 45.4855 173.504 52.1874 167.818 52.0082Z" fill="#EA6516"/>
<path d="M35.75 119.964C28.1574 119.964 23.4074 128.934 23.4074 138.75H23.0926C23.0926 128.924 18.3473 119.964 10.75 119.964V119.536C18.3473 119.536 23.0926 110.566 23.0926 100.75H23.4074C23.4074 110.571 28.1574 119.536 35.75 119.536" fill="#EA6516"/>
<path d="M61.4068 104.5C58.6889 104.988 56.8812 107.587 57.3692 110.305L65.8379 157.471C66.2467 159.748 68.1368 161.386 70.3373 161.571L66.7748 162.267C64.0188 162.806 61.3595 160.97 60.8867 158.202L52.7519 110.576C52.2856 107.846 54.127 105.258 56.8587 104.802L96.6584 98.1704L61.4068 104.5Z" fill="#02514E"/>
<path fill-rule="evenodd" clip-rule="evenodd" d="M96.6584 98.1704L56.8587 104.802C54.127 105.258 52.2856 107.846 52.7519 110.576L60.8867 158.202C61.3595 160.97 64.0188 162.806 66.7748 162.267L70.3373 161.571C69.615 161.51 68.9262 161.293 68.3122 160.948C67.0556 160.242 66.1125 159 65.8379 157.471L57.3692 110.305C57.0227 108.375 57.8335 106.505 59.3057 105.408C59.907 104.96 60.6187 104.641 61.4068 104.5L96.6584 98.1704ZM57.5879 105.695L57.023 105.789C54.8377 106.153 53.3646 108.224 53.7376 110.408L61.8725 158.034C62.2507 160.248 64.3781 161.717 66.5829 161.286L66.9412 161.216C65.8821 160.343 65.1153 159.105 64.8536 157.648L56.3849 110.482C56.0683 108.718 56.5569 106.997 57.5879 105.695Z" fill="#02514E"/>
<path fill-rule="evenodd" clip-rule="evenodd" d="M145.891 90.8547L61.6714 105.976C59.7688 106.318 58.5034 108.137 58.845 110.04L67.3137 157.206C67.6553 159.109 69.4746 160.374 71.3772 160.032L155.596 144.911C157.499 144.569 158.764 142.75 158.423 140.847L149.954 93.681C149.612 91.7785 147.793 90.513 145.891 90.8547ZM61.4068 104.5C58.6889 104.988 56.8812 107.587 57.3692 110.305L65.8379 157.471C66.3259 160.189 68.9243 161.997 71.6423 161.509L155.861 146.387C158.579 145.899 160.387 143.3 159.899 140.582L151.43 93.4159C150.942 90.698 148.343 88.8902 145.625 89.3783L61.4068 104.5Z" fill="#02514E"/>
<path d="M50.8325 60.1146L52.3747 48.9196L145.75 66.75L143.227 77.2479L50.8325 60.1146Z" fill="#02514E"/>
<path fill-rule="evenodd" clip-rule="evenodd" d="M50.375 39.9163C50.8512 37.103 53.5813 35.258 56.3692 35.8655L59.7285 36.5973C57.0352 36.1678 54.4873 37.9798 54.0169 40.6756L45.609 88.8528C45.1343 91.5731 46.9547 94.1632 49.675 94.638L83.3751 100.519L72.75 102.363L45.65 97.6336C42.9394 97.1606 41.1205 94.5864 41.5797 91.8735L50.375 39.9163Z" fill="#02514E"/>
<path fill-rule="evenodd" clip-rule="evenodd" d="M59.5441 38.0873L143.836 52.7978C145.74 53.1301 147.015 54.9432 146.682 56.8474L140.853 90.25H142.25L148.16 57.1053C148.635 54.385 146.814 51.7949 144.094 51.3202L59.802 36.6096C57.0817 36.1349 54.4916 37.9553 54.0169 40.6756L45.609 88.8528C45.1343 91.5731 46.9547 94.1632 49.675 94.638L83.3751 100.519L87.75 99.7601L49.9329 93.1603C48.0286 92.828 46.7544 91.0149 47.0867 89.1107L55.4945 40.9335C55.8269 39.0292 57.6399 37.755 59.5441 38.0873Z" fill="#02514E"/>
<path fill-rule="evenodd" clip-rule="evenodd" d="M177.961 37.544C178.107 37.4035 178.303 37.3279 178.505 37.3343L178.81 37.3439C179.216 37.3567 179.538 37.6907 179.536 38.0971C179.519 41.6457 180.611 45.0964 182.371 47.6655C184.137 50.2426 186.507 51.8467 189.033 51.9263C189.447 51.9394 189.772 52.2856 189.759 52.6996C189.746 53.1136 189.4 53.4387 188.986 53.4256C186.467 53.3462 184.097 54.7908 182.318 57.2409C180.541 59.6864 179.417 63.0596 179.4 66.6133C179.399 66.8157 179.317 67.0091 179.171 67.1496C179.025 67.2901 178.829 67.3658 178.627 67.3594L178.322 67.3498C177.916 67.337 177.594 67.003 177.596 66.5966C177.613 63.0589 176.451 59.6091 174.617 57.0348C172.775 54.4506 170.326 52.8375 167.794 52.7577C167.38 52.7446 167.055 52.3985 167.068 51.9844C167.081 51.5704 167.428 51.2454 167.842 51.2584C170.367 51.338 172.815 49.889 174.671 47.4362C176.521 44.9903 177.715 41.6228 177.732 38.0803C177.732 37.8779 177.815 37.6845 177.961 37.544ZM171.221 52.1076C173.001 52.9613 174.581 54.3998 175.838 56.1641C177.026 57.8314 177.952 59.8209 178.508 61.9626C179.055 59.8706 179.949 57.9491 181.104 56.3593C182.331 54.6703 183.877 53.3265 185.634 52.5775C183.88 51.7226 182.345 50.2808 181.133 48.5133C179.993 46.8481 179.115 44.8637 178.59 42.7291C178.012 44.8273 177.07 46.7517 175.867 48.3413C174.594 50.024 173.003 51.3614 171.221 52.1076ZM22.3426 100.75C22.3426 100.336 22.6784 100 23.0926 100H23.4074C23.8216 100 24.1574 100.336 24.1574 100.75C24.1574 105.551 25.3205 110.105 27.3701 113.433C29.416 116.754 32.291 118.786 35.75 118.786C36.1642 118.786 36.5 119.122 36.5 119.536C36.5 119.61 36.4892 119.682 36.469 119.75C36.4892 119.818 36.5 119.89 36.5 119.964C36.5 120.378 36.1642 120.714 35.75 120.714C32.2912 120.714 29.4162 122.747 27.3701 126.069C25.3205 129.398 24.1574 133.951 24.1574 138.75C24.1574 139.164 23.8216 139.5 23.4074 139.5H23.0926C22.6784 139.5 22.3426 139.164 22.3426 138.75C22.3426 133.946 21.1805 129.392 19.1317 126.065C17.0865 122.745 14.2116 120.714 10.75 120.714C10.3358 120.714 10 120.378 10 119.964V119.536C10 119.122 10.3358 118.786 10.75 118.786C14.2113 118.786 17.0862 116.753 19.1316 113.431C21.1806 110.103 22.3426 105.549 22.3426 100.75ZM32.5153 119.75C29.8737 118.84 27.7037 116.834 26.0929 114.219C24.7773 112.083 23.8159 109.517 23.25 106.738C22.6845 109.516 21.7238 112.081 20.409 114.217C18.7986 116.833 16.6288 118.839 13.9865 119.75C16.6286 120.659 18.7985 122.664 20.4089 125.279C21.7243 127.415 22.6852 129.981 23.2506 132.761C23.8166 129.984 24.7778 127.418 26.0929 125.283C27.7036 122.667 29.8737 120.66 32.5153 119.75Z" fill="#02514E"/>
<path d="M147.75 177.75C147.75 179.959 126.26 181.75 99.75 181.75C73.2403 181.75 51.75 179.959 51.75 177.75C51.75 175.541 73.2403 173.75 99.75 173.75C126.26 173.75 147.75 175.541 147.75 177.75Z" fill="#02514E"/>
<path fill-rule="evenodd" clip-rule="evenodd" d="M99.75 17C100.164 17 100.5 17.3358 100.5 17.75V24H105.75C106.164 24 106.5 24.3358 106.5 24.75C106.5 25.1642 106.164 25.5 105.75 25.5H100.5V31.75C100.5 32.1642 100.164 32.5 99.75 32.5C99.3358 32.5 99 32.1642 99 31.75V25.5H93.75C93.3358 25.5 93 25.1642 93 24.75C93 24.3358 93.3358 24 93.75 24H99V17.75C99 17.3358 99.3358 17 99.75 17ZM24.75 49.5C22.9551 49.5 21.5 50.9551 21.5 52.75C21.5 54.5449 22.9551 56 24.75 56C26.5449 56 28 54.5449 28 52.75C28 50.9551 26.5449 49.5 24.75 49.5ZM20 52.75C20 50.1267 22.1266 48 24.75 48C27.3733 48 29.5 50.1267 29.5 52.75C29.5 55.3734 27.3733 57.5 24.75 57.5C22.1266 57.5 20 55.3734 20 52.75ZM59.4964 72.0745C59.1119 71.9987 58.7081 72.0836 58.3718 72.3204C58.0338 72.5585 57.7908 72.9323 57.7068 73.3649L56.4892 79.5878L56.4888 79.5899C56.4074 80.0227 56.4941 80.4659 56.7221 80.8215C56.9498 81.1766 57.2971 81.4129 57.6824 81.4909L57.6849 81.4914L118.461 94.0154C118.867 94.099 119.128 94.4957 119.045 94.9014C118.961 95.3071 118.564 95.5682 118.159 95.4846L57.3846 82.961L57.3828 82.9607C56.5886 82.7992 55.8991 82.3169 55.4594 81.6312C55.0202 80.9463 54.8634 80.1116 55.0154 79.3087L55.0162 79.3043L56.2343 73.0789C56.3901 72.277 56.8442 71.5616 57.5081 71.0941C58.1733 70.6256 58.9941 70.4457 59.7897 70.6035L59.793 70.6041L128.199 84.4891C128.993 84.6509 129.683 85.1337 130.122 85.8197C130.561 86.5046 130.718 87.3389 130.566 88.1412C130.564 88.1501 130.562 88.159 130.56 88.1678L129.481 92.9161C129.39 93.3201 128.988 93.5731 128.584 93.4814C128.18 93.3896 127.927 92.9878 128.019 92.5839L129.094 87.8499C129.172 87.4205 129.085 86.9817 128.859 86.6288C128.632 86.2739 128.285 86.0374 127.9 85.959L59.4979 72.0748L59.4964 72.0745ZM167.75 78.5C166.507 78.5 165.5 79.5074 165.5 80.75C165.5 81.9926 166.507 83 167.75 83C168.993 83 170 81.9926 170 80.75C170 79.5074 168.993 78.5 167.75 78.5ZM164 80.75C164 78.6789 165.679 77 167.75 77C169.821 77 171.5 78.6789 171.5 80.75C171.5 82.8211 169.821 84.5 167.75 84.5C165.679 84.5 164 82.8211 164 80.75ZM134.873 120.654C136.329 120.422 137.818 120.493 139.254 120.863C140.69 121.232 142.044 121.893 143.239 122.805C144.435 123.716 145.448 124.861 146.224 126.173C147 127.485 147.523 128.939 147.764 130.452C148.006 131.966 147.961 133.51 147.632 134.998C147.303 136.486 146.696 137.89 145.844 139.128C144.992 140.367 143.911 141.416 142.661 142.214C141.412 143.013 140.019 143.544 138.563 143.776C137.108 144.008 135.619 143.937 134.183 143.567C133.478 143.386 132.792 143.134 132.135 142.817C130.509 144.361 128.443 145.392 126.197 145.75C123.267 146.218 120.272 145.502 117.87 143.761C115.468 142.02 113.856 139.397 113.388 136.467C112.921 133.538 113.636 130.542 115.377 128.14C117.118 125.738 119.742 124.126 122.671 123.659C124.62 123.348 126.598 123.56 128.411 124.25C129.102 123.462 129.897 122.777 130.776 122.215C132.025 121.417 133.418 120.886 134.873 120.654ZM127.457 125.503C126.005 125.025 124.446 124.894 122.908 125.14C120.371 125.545 118.099 126.941 116.592 129.02C115.084 131.1 114.465 133.694 114.87 136.231C115.274 138.767 116.67 141.039 118.75 142.547C120.83 144.054 123.424 144.674 125.96 144.269C127.754 143.983 129.415 143.201 130.767 142.033C130.574 141.903 130.384 141.767 130.198 141.625C129.002 140.714 127.989 139.569 127.213 138.257C126.437 136.945 125.914 135.491 125.673 133.978C125.431 132.464 125.476 130.92 125.805 129.432C126.116 128.024 126.676 126.691 127.457 125.503ZM131.843 140.943C131.591 140.785 131.346 140.614 131.107 140.433C130.068 139.64 129.183 138.642 128.504 137.493C127.825 136.345 127.366 135.07 127.154 133.741C126.942 132.413 126.981 131.058 127.269 129.755C127.557 128.453 128.088 127.228 128.828 126.152C128.842 126.132 128.855 126.113 128.869 126.094C129.301 126.316 129.719 126.573 130.118 126.862C132.198 128.369 133.594 130.641 133.999 133.178C134.403 135.715 133.784 138.308 132.276 140.388C132.138 140.579 131.994 140.764 131.843 140.943ZM133.199 141.653C133.299 141.527 133.396 141.399 133.491 141.268C135.232 138.866 135.947 135.871 135.48 132.942C135.012 130.012 133.4 127.388 130.998 125.647C130.625 125.377 130.238 125.132 129.839 124.911C130.364 124.365 130.949 123.884 131.583 123.48C132.661 122.791 133.859 122.335 135.11 122.135C136.361 121.936 137.642 121.996 138.88 122.315C140.118 122.634 141.29 123.205 142.329 123.997C143.369 124.79 144.254 125.788 144.933 126.937C145.612 128.085 146.071 129.36 146.283 130.689C146.495 132.017 146.456 133.372 146.168 134.675C145.88 135.977 145.349 137.202 144.608 138.278C143.868 139.354 142.931 140.262 141.854 140.95C140.776 141.639 139.578 142.095 138.327 142.295C137.076 142.494 135.795 142.434 134.557 142.115C134.094 141.996 133.64 141.841 133.199 141.653ZM40.75 137C41.1642 137 41.5 137.336 41.5 137.75V143H45.75C46.1642 143 46.5 143.336 46.5 143.75C46.5 144.164 46.1642 144.5 45.75 144.5H41.5V149.75C41.5 150.164 41.1642 150.5 40.75 150.5C40.3358 150.5 40 150.164 40 149.75V144.5H34.75C34.3358 144.5 34 144.164 34 143.75C34 143.336 34.3358 143 34.75 143H40V137.75C40 137.336 40.3358 137 40.75 137ZM178.75 140C179.164 140 179.5 140.336 179.5 140.75V146H183.75C184.164 146 184.5 146.336 184.5 146.75C184.5 147.164 184.164 147.5 183.75 147.5H179.5V152.75C179.5 153.164 179.164 153.5 178.75 153.5C178.336 153.5 178 153.164 178 152.75V147.5H172.75C172.336 147.5 172 147.164 172 146.75C172 146.336 172.336 146 172.75 146H178V140.75C178 140.336 178.336 140 178.75 140ZM94.8522 143.195C94.9341 143.601 94.6714 143.996 94.2654 144.078L77.8983 147.381C77.4923 147.463 77.0967 147.2 77.0148 146.794C76.9329 146.388 77.1956 145.992 77.6017 145.91L93.9687 142.608C94.3747 142.526 94.7703 142.789 94.8522 143.195ZM105.17 145.807C105.252 146.213 104.989 146.609 104.583 146.691L78.8085 151.891C78.4025 151.973 78.0069 151.711 77.925 151.305C77.843 150.899 78.1058 150.503 78.5118 150.421L104.287 145.22C104.693 145.138 105.088 145.401 105.17 145.807ZM52.7575 177.75C52.8281 177.715 52.9111 177.678 53.0081 177.638C53.5801 177.406 54.4671 177.165 55.6671 176.929C58.0551 176.458 61.5374 176.03 65.8712 175.669C74.5309 174.947 86.5091 174.5 99.75 174.5C112.991 174.5 124.969 174.947 133.629 175.669C137.963 176.03 141.445 176.458 143.833 176.929C145.033 177.165 145.92 177.406 146.492 177.638C146.589 177.678 146.672 177.715 146.742 177.75C146.672 177.785 146.589 177.822 146.492 177.862C145.92 178.094 145.033 178.335 143.833 178.571C141.445 179.042 137.963 179.47 133.629 179.831C124.969 180.553 112.991 181 99.75 181C86.5091 181 74.5309 180.553 65.8712 179.831C61.5374 179.47 58.0551 179.042 55.6671 178.571C54.4671 178.335 53.5801 178.094 53.0081 177.862C52.9111 177.822 52.8281 177.785 52.7575 177.75ZM65.7466 174.174C74.4594 173.448 86.4812 173 99.75 173C113.019 173 125.041 173.448 133.753 174.174C138.106 174.537 141.653 174.971 144.123 175.457C145.352 175.699 146.351 175.961 147.058 176.249C147.407 176.392 147.73 176.558 147.978 176.761C148.216 176.957 148.5 177.285 148.5 177.75C148.5 178.215 148.216 178.543 147.978 178.739C147.73 178.942 147.407 179.108 147.058 179.251C146.351 179.539 145.352 179.801 144.123 180.043C141.653 180.529 138.106 180.963 133.753 181.326C125.041 182.052 113.019 182.5 99.75 182.5C86.4812 182.5 74.4594 182.052 65.7466 181.326C61.3941 180.963 57.8469 180.529 55.3771 180.043C54.1481 179.801 53.1491 179.539 52.4423 179.251C52.0926 179.108 51.7699 178.942 51.5221 178.739C51.2838 178.543 51 178.215 51 177.75C51 177.285 51.2838 176.957 51.5221 176.761C51.7699 176.558 52.0926 176.392 52.4423 176.249C53.1491 175.961 54.1481 175.699 55.3771 175.457C57.8469 174.971 61.3941 174.537 65.7466 174.174Z" fill="#02514E"/>
</svg>
