<svg width="200" height="200" viewBox="0 0 200 200" fill="none" xmlns="http://www.w3.org/2000/svg">
<path fill-rule="evenodd" clip-rule="evenodd" d="M17.7202 118.166L12 123.803L18 129.892V141H27.8797L33.0875 160.778L41.9691 158.439L50.9768 173.399L57.1853 169.661L67.863 180.498L107.858 141.09L108.199 141H183V121.304L192.896 118.698L185.907 92.156L192.55 88.1561L183 72.2955V57.9999H176.913L171.934 39.0913L164.229 41.1202L149.573 16.7796L136.144 24.8653L124.453 13L78.783 57.9999H18V79.6241L12.126 81.1708L16.3006 97.0249L8 102.023L17.7202 118.166ZM156.752 66.5814L157.005 68.0313C158.671 77.6095 165.983 84.9762 174.993 86.2401L176.5 86.4514V96.7818V98.8426V113.5H175C171.787 113.951 168.822 115.361 166.22 117.188C166.237 116.578 166.249 116.475 166.301 116.052C166.312 115.962 166.324 115.856 166.339 115.728C165.696 116.124 165.072 116.551 164.47 117.009C162.834 118.254 161.359 119.721 160.084 121.371C159.552 122.059 159.056 122.778 158.597 123.526C157.995 124.506 157.458 125.536 156.992 126.608C156.707 127.264 156.449 127.936 156.219 128.621C155.818 129.818 155.502 131.057 155.281 132.331H142.129H135.257H121.755H116.833H116.091H114.227H43.7516C42.2525 123.718 36.476 116.698 28.8497 113.85C28.2125 113.612 27.5625 113.403 26.901 113.225L26.75 112.593V106.996V100.824V98.0952V87C28.4257 86.5614 29.9925 85.8066 31.5 85C31.7601 84.8608 32.0185 84.7532 32.2741 84.6468L32.2742 84.6467C32.6327 84.4974 32.9858 84.3503 33.3304 84.1217C33.5358 83.9855 33.7394 83.8519 33.9411 83.7197C35.3529 82.7938 36.6713 81.9291 37.8336 80.6316C38.4623 79.9298 39.0519 79.1881 39.5986 78.4104L36.884 79.0593C37.6494 78.1624 38.3483 77.1988 38.9721 76.1772C39.1569 75.8746 39.4182 75.5899 39.6816 75.3029C40.0091 74.9461 40.3399 74.5857 40.5313 74.1827C41.4213 72.3093 42.1283 70.1359 42.5 68L43.1562 66.5814H68.5421H70.16H75.4147H89.0891H96.617H116.13H123.658H149.572H152.084H156.752ZM32.7286 108.952C40.0048 112.263 45.6409 118.589 48.346 126.315H139.4H146.928H151.46C151.518 126.15 151.385 125.986 151.253 125.822C151.12 125.657 150.987 125.493 151.051 125.329C151.189 124.973 151.494 124.669 151.798 124.366C152.076 124.089 152.352 123.813 152.5 123.5C155.49 117.168 159.955 111.859 166.234 108.982C166.987 108.637 167.759 108.324 168.546 108.046L168.66 108.006L168.771 107.967L169.205 107.689C169.352 107.62 169.473 107.554 169.5 107.5C169.729 107.047 169.827 106.619 169.923 106.202C170.044 105.681 170.16 105.177 170.522 104.662L170.521 101.809V91.4166C161.652 88.8318 154.706 81.6516 151.955 72.598H98.4854H90.9575H71.4445H63.9166H57.1697H47.0774C46.9149 73.133 46.7378 73.6614 46.5465 74.1827C46.187 75.1625 45.7775 76.117 45.3211 77.0427C44.9725 77.7496 44.5965 78.4397 44.1945 79.1113C43.7498 79.8543 43.2732 80.5747 42.7667 81.2703C41.8303 82.556 40.7916 83.7568 39.6623 84.8585C39.3397 85.1732 39.0096 85.4799 38.6725 85.7782C38.3609 86.0538 38.0432 86.3223 37.7197 86.5833C37.6939 86.8368 37.6772 87.0388 37.6622 87.2203C37.6283 87.6313 37.603 87.9377 37.5 88.5C36.5775 89.1532 35.5636 89.5066 34.5283 89.8675C33.931 90.0756 33.3267 90.2863 32.7286 90.5584V100.511V103.475V108.952Z" fill="#ABD6C0"/>
<path d="M35.0693 28.9203C42.2536 29.1826 48.4234 37.5576 48.3873 46.3294L48.772 46.3435C48.8081 37.5599 56.4607 28.6128 63.6449 28.8751C56.4607 28.6128 48.875 21.2745 48.911 12.5027L48.5263 12.4887C48.4902 21.2722 42.2536 29.1826 35.0693 28.9203Z" fill="#EA6516"/>
<path d="M135.032 171.83C138.357 171.951 141.212 175.827 141.195 179.886L141.373 179.892C141.39 175.828 144.931 171.688 148.255 171.809C144.931 171.688 141.421 168.292 141.437 164.233L141.259 164.226C141.243 168.291 138.357 171.951 135.032 171.83Z" fill="#EA6516"/>
<path d="M28 140H109L102.144 145H29.9641L28 140Z" fill="#02514E"/>
<path fill-rule="evenodd" clip-rule="evenodd" d="M131.339 38.0699L130.406 36.9314L90.9417 59.2191H94.5004L129.985 39.1789C133.238 43.1497 137.445 45.9885 142 47.5072L145.5 46.6201C140.156 45.5876 135.084 42.6415 131.339 38.0699ZM60.1991 156.735L71.0004 150.635L76.4078 149.591L59.7782 158.982L58.8454 157.844C57.4577 156.15 55.8873 154.679 54.1883 153.446H57.0004C58.1428 154.435 59.2146 155.533 60.1991 156.735ZM113 55.9905L128.892 47.0157C130.037 48.0244 131.243 48.9461 132.5 49.7763L135 49.2674C132.905 48.0529 130.933 46.5795 129.137 44.8673L106.5 57.6516L113 55.9905Z" fill="#02514E"/>
<path fill-rule="evenodd" clip-rule="evenodd" d="M181.25 59.75H154.704H152.43H146.946H143.575H124.062H116.534H19.75V103.918V108.796V139.25H41.2004H43.7734H84.1447H91.6726H181.25V96.2585V92.5664V59.75ZM18 58V141H183V58H18Z" fill="#02514E"/>
<path fill-rule="evenodd" clip-rule="evenodd" d="M99.7116 86.2411L99.695 76.6293L101.445 76.6263L101.462 86.2213C104.404 86.2377 107.259 86.4916 109.439 86.7519C110.644 86.8958 111.647 87.0421 112.35 87.1527C112.701 87.208 112.978 87.2544 113.167 87.2871C113.262 87.3035 113.335 87.3164 113.385 87.3254L113.442 87.3357L113.457 87.3385L113.462 87.3394C113.462 87.3394 113.463 87.3396 113.303 88.1998L113.143 89.0601L113.127 89.0572L113.076 89.0478C113.029 89.0396 112.96 89.0273 112.869 89.0116C112.688 88.9803 112.42 88.9353 112.077 88.8814C111.393 88.7737 110.412 88.6305 109.232 88.4896C106.869 88.2073 103.723 87.9363 100.566 87.9739C97.392 88.0118 94.2881 88.3617 91.9646 89.2725C89.6588 90.1764 88.3003 91.5454 88.1586 93.5813C88.0593 95.0096 88.359 95.9971 88.8757 96.7122C89.4005 97.4384 90.2205 97.9822 91.3381 98.3821C93.6196 99.1984 96.8053 99.3083 100.247 99.4074C100.312 99.4092 100.377 99.4111 100.443 99.413C103.736 99.5074 107.235 99.6077 109.961 100.48C111.37 100.93 112.642 101.606 113.588 102.651C114.548 103.71 115.114 105.085 115.21 106.816C115.291 108.279 114.871 109.516 114.057 110.52C113.258 111.504 112.121 112.216 110.831 112.734C108.352 113.728 105.096 114.091 101.891 114.151L101.734 121.613C101.724 122.096 101.324 122.48 100.841 122.47C100.358 122.459 99.9743 122.06 99.9844 121.576L100.14 114.155C97.2851 114.117 94.5131 113.877 92.3627 113.631C91.1098 113.488 90.0637 113.342 89.3298 113.232C88.9628 113.177 88.6736 113.131 88.4754 113.099C88.3763 113.082 88.2999 113.069 88.2479 113.06L88.1884 113.05L88.1727 113.048L88.1685 113.047Lnan nanL88.1685 113.047C88.1679 113.046 88.1676 113.045 88.1678 113.044C88.1706 113.027 88.1896 112.916 88.319 112.185L88.4713 111.323L88.4881 111.326L88.5424 111.335C88.591 111.344 88.6637 111.356 88.7591 111.372C88.9499 111.403 89.231 111.448 89.5895 111.502C90.3065 111.609 91.332 111.752 92.5615 111.893C95.0241 112.174 98.2886 112.444 101.525 112.406C104.783 112.367 107.92 112.016 110.179 111.109C111.302 110.659 112.149 110.094 112.698 109.418C113.23 108.761 113.52 107.954 113.462 106.912C113.386 105.533 112.95 104.553 112.291 103.826C111.619 103.084 110.657 102.54 109.428 102.147C106.939 101.351 103.646 101.256 100.216 101.157L100.191 101.156C96.8475 101.06 93.3471 100.96 90.7486 100.03C89.4254 99.5564 88.2563 98.8428 87.4573 97.7372C86.6504 96.6206 86.2917 95.2021 86.4129 93.4599C86.6201 90.4809 88.6881 88.6773 91.3259 87.6432C93.722 86.7039 96.7341 86.3281 99.7116 86.2411Z" fill="#02514E"/>
<path fill-rule="evenodd" clip-rule="evenodd" d="M190.758 117.452L184.345 93.0966L185.907 92.1561L192.896 118.698L182.5 121.436V119.626L190.758 117.452Z" fill="#02514E"/>
<path fill-rule="evenodd" clip-rule="evenodd" d="M14.4748 123.821L19.9307 118.445L10.4019 102.619L18.3269 97.8477L14.2639 82.4176L18.6486 81.263V79.4534L12.126 81.1709L16.3006 97.0251L8 102.023L17.7202 118.166L12 123.803L19.7456 131.664V129.17L14.4748 123.821ZM27.4913 139.525L33.0875 160.778L41.9691 158.439L50.9768 173.399L57.1854 169.661L67.863 180.498L108 140.969L110 139.381H107.475L106.962 139.516L34.3342 158.64L29.9609 142.031L29.5 139.5L27.4913 139.525ZM51.5733 170.997L43.7323 157.975L96.1041 144.185L51.5733 170.997ZM58.7273 168.733L102.133 142.597L104.455 141.986L67.8813 178.023L58.7273 168.733ZM97.1942 58.7714L152.696 44.157L154.647 43.6434L162.466 41.5846L148.977 19.1817L137.408 26.1475L135.866 27.0759L83.2254 58.7714H80.4934H79.8328H78L124.453 13L136.144 24.8654L149.573 16.7798L164.229 41.1203L171.934 39.0914L177.244 59.2553H175.434L170.687 41.2293L165.169 42.6823L163.406 43.1466L156.063 45.0802L154.112 45.5939L104.067 58.7714H97.1942ZM115.307 133.75H114.683H113.434L116.341 132H117.083L115.307 133.75ZM184.345 93.0966L183.88 91.3334L181.818 83.5V76.6274L185.442 90.3929L190.148 87.5597L181.818 73.7249V70.3323L192.55 88.1562L185.907 92.1561L184.345 93.0966ZM134.602 25.7938L81.5312 57.7487L124.435 15.4748L134.602 25.7938ZM157.242 126.277L159.448 125.696C159.11 126.36 158.802 127.045 158.527 127.748L156.469 128.29C156.699 127.604 156.957 126.933 157.242 126.277ZM142.379 132H135.507L128.861 133.75H135.733L142.379 132ZM151.71 127.733H152.205C152.22 127.686 152.234 127.639 152.249 127.592L151.71 127.733Z" fill="#02514E"/>
<path fill-rule="evenodd" clip-rule="evenodd" d="M157.255 67.7L157.002 66.25H152.334H123.908H116.38H96.867H89.3391H70.41H68.7921H42.53L42.2777 67.7C41.9059 69.8358 41.2532 71.8622 40.3632 73.7357C40.0177 74.4629 39.6365 75.1672 39.2221 75.8458C38.5983 76.8674 37.8994 77.831 37.134 78.7279C36.4099 79.5765 35.6263 80.3654 34.7907 81.0873C34.4089 81.4171 34.0163 81.733 33.6135 82.0342C33.0554 82.4514 32.4779 82.8404 31.8827 83.1994C30.2298 84.1963 28.4411 84.9613 26.5569 85.4545L25.25 85.7965V99.7977V102.221V114.204L26.5569 114.546C26.9149 114.64 27.2694 114.743 27.6202 114.856C28.2946 115.074 28.9552 115.326 29.6001 115.612C35.3461 118.159 39.8442 123.351 41.7044 129.81C41.9305 130.595 42.1176 131.399 42.2632 132.218L42.2776 132.3L42.5299 133.75H107.156H113.434H114.683H115.307H128.861H135.733H157.002L157.255 132.3C157.53 130.716 157.96 129.193 158.527 127.748C158.802 127.045 159.11 126.36 159.448 125.696C160.004 124.604 160.642 123.567 161.353 122.595C161.933 121.801 162.562 121.05 163.235 120.346C163.696 119.864 164.178 119.404 164.679 118.968C165.24 118.479 165.824 118.021 166.43 117.596C169.033 115.77 172.03 114.543 175.243 114.092L176.75 113.881V98.5112V96.4504V86.1201L175.243 85.9087C166.233 84.6448 158.921 77.2782 157.255 67.7ZM46.3934 78.9057C46.5192 78.6809 46.6424 78.4542 46.7628 78.2258C47.1125 77.5623 47.439 76.8842 47.7413 76.1926C48.0523 75.481 48.3377 74.7552 48.5963 74.0167H54.5132H56.8449H64.3728H83.8858H91.4137H150.936C153.94 82.5914 160.56 89.4541 169.021 92.3651V103.788V107.255V107.635C168.946 107.661 168.871 107.688 168.796 107.714C168.009 107.993 167.237 108.305 166.484 108.651C160.205 111.528 155.152 116.661 152.163 122.993C151.853 123.649 151.565 124.317 151.301 124.998C151.174 125.324 151.053 125.652 150.937 125.983H147.178H139.65H48.596C45.8909 118.257 40.2548 111.932 32.9786 108.621V103.143V100.18C32.4342 100.99 31.8503 101.772 31.2286 102.523V105.16V109.774C38.9117 112.882 44.837 119.535 47.3272 127.733H132.328H139.856H151.71H152.205C152.22 127.686 152.234 127.639 152.249 127.592C152.576 126.532 152.962 125.499 153.401 124.496C153.704 123.803 154.034 123.124 154.387 122.461C156.989 117.586 160.917 113.574 165.689 111.001C166.396 110.62 167.121 110.271 167.862 109.955C168.806 109.553 169.776 109.205 170.771 108.915L170.772 104.331L170.771 101.477V91.0852C161.902 88.5004 154.956 81.3202 152.205 72.2667H98.7354H91.2075H71.6945H64.1666H57.4197H47.3274C47.1649 72.8017 46.9878 73.3301 46.7965 73.8513C46.437 74.8311 46.0275 75.7857 45.5711 76.7113C45.2225 77.4182 44.8465 78.1083 44.4445 78.7799C43.9998 79.5229 43.5232 80.2434 43.0167 80.9389C42.0803 82.2246 41.0416 83.4254 39.9123 84.5271C39.5897 84.8419 39.2596 85.1486 38.9225 85.4468C38.6109 85.7225 38.2932 85.9909 37.9697 86.2519C37.8855 87.0791 37.7687 87.899 37.6202 88.7096C38.3125 88.2195 38.9827 87.699 39.6292 87.1501C40.0221 86.8166 40.4063 86.4727 40.7813 86.1187C41.5593 85.3844 42.2982 84.6069 42.9949 83.7903C43.4184 83.2939 43.8263 82.7829 44.2178 82.2584C45.0122 81.1943 45.7393 80.0743 46.3934 78.9057ZM32.8436 89.5094C32.3146 89.7661 31.7761 90.0056 31.2286 90.227V94.104C31.904 92.6398 32.4462 91.1014 32.8436 89.5094ZM67.8984 68H44.0017C43.6886 69.7996 43.1886 71.5297 42.5241 73.1667C42.2383 73.8709 41.922 74.5578 41.577 75.2257C41.0627 76.2213 40.4846 77.1745 39.8486 78.0791C39.3019 78.8567 38.7123 79.5984 38.0836 80.3002C36.7553 81.7831 35.2524 83.088 33.6099 84.1777C33.0195 84.5693 32.4111 84.9332 31.7862 85.2675C30.2787 86.0741 28.6757 86.7089 27 87.1474V97.7638V100.493V106.665V112.262V112.853C27.0504 112.866 27.1007 112.88 27.151 112.893C27.8125 113.072 28.4625 113.28 29.0997 113.518C36.726 116.367 42.5025 123.387 44.0016 132H114.477H116.341H117.083H122.005H135.507H142.379H155.531C155.752 130.726 156.068 129.486 156.469 128.29C156.699 127.604 156.957 126.933 157.242 126.277C157.708 125.205 158.245 124.175 158.847 123.194C159.306 122.446 159.802 121.727 160.334 121.039C161.609 119.39 163.084 117.922 164.72 116.678C165.322 116.22 165.946 115.792 166.589 115.397C169.125 113.839 171.969 112.784 175 112.359V99.7897V97.5886V87.6417C165.175 86.2635 157.316 78.2626 155.53 68H116.586H109.058H89.5454H82.0175H69.0186H68.6339H67.8984Z" fill="#02514E"/>
<path d="M31.2286 102.523C31.8503 101.772 32.4342 100.99 32.9786 100.18V91.3795C34.6135 90.6357 36.1655 89.7396 37.6202 88.7096C37.7687 87.899 37.8855 87.0791 37.9697 86.2519C36.392 87.5248 34.6749 88.6206 32.8436 89.5094C32.4462 91.1014 31.904 92.6398 31.2286 94.104V102.523Z" fill="#02514E"/>
<path fill-rule="evenodd" clip-rule="evenodd" d="M150.512 53.1193L149.93 51.7678L116.534 59.75H124.062L148.905 53.812C149.838 55.9764 151.03 57.967 152.43 59.75H154.704C153.007 57.8251 151.58 55.5969 150.512 53.1193ZM181.25 92.5664V96.2585L182.057 95.9419L181.25 92.5664ZM176.75 98.5112V96.4504C176.148 96.8043 175.564 97.1843 175 97.5886V99.7897C175.561 99.3354 176.145 98.9084 176.75 98.5112ZM165.689 111.001C165.918 110.202 166.183 109.418 166.484 108.651C167.237 108.305 168.009 107.993 168.796 107.714C168.449 108.441 168.137 109.189 167.862 109.955C167.121 110.271 166.396 110.62 165.689 111.001ZM169.021 107.255V103.788C169.56 102.983 170.144 102.211 170.771 101.477L170.772 104.331C170.121 105.257 169.536 106.234 169.021 107.255ZM163.235 120.346L160.334 121.039C159.802 121.727 159.306 122.446 158.847 123.194L161.353 122.595C161.933 121.801 162.562 121.05 163.235 120.346ZM152.163 122.993L154.387 122.461C154.034 123.124 153.704 123.803 153.401 124.496L151.301 124.998C151.565 124.317 151.853 123.649 152.163 122.993ZM139.65 125.983L132.328 127.733H139.856L147.178 125.983H139.65ZM107.156 133.75L114.477 132H116.341H117.083H122.005L114.683 133.75H113.434H107.156ZM84.1447 139.25L49.3981 147.555C48.0279 144.376 46.0988 141.572 43.7734 139.25H41.2004C43.9664 141.624 46.2523 144.677 47.791 148.248L48.3735 149.599L91.6726 139.25H84.1447ZM25.25 102.221C25.8627 101.676 26.4466 101.098 27 100.493V97.7638C26.4562 98.477 25.872 99.1564 25.25 99.7977V102.221ZM18.7162 104.471L19.75 103.918V108.796L18.7162 104.471ZM31.2286 94.104C31.904 92.6398 32.4462 91.1014 32.8436 89.5094C32.3146 89.7661 31.7761 90.0056 31.2286 90.227V94.104ZM33.6135 82.0342C33.6408 82.7532 33.6393 83.4682 33.6099 84.1777C33.0195 84.5693 32.4111 84.9332 31.7862 85.2675C31.8465 84.5845 31.879 83.8946 31.8827 83.1994C32.4779 82.8404 33.0554 82.4514 33.6135 82.0342ZM166.43 117.596C166.451 116.856 166.505 116.122 166.589 115.397C165.946 115.792 165.322 116.22 164.72 116.678C164.674 117.435 164.66 118.199 164.679 118.968C165.24 118.479 165.824 118.021 166.43 117.596ZM96.867 66.25H89.3391L82.0175 68H89.5454L96.867 66.25ZM71.6945 72.2667H64.1666L56.8449 74.0167H64.3728L71.6945 72.2667ZM46.7628 78.2258C47.1125 77.5623 47.439 76.8842 47.7413 76.1926L45.5711 76.7113C45.2225 77.4182 44.8465 78.1083 44.4445 78.7799L46.7628 78.2258ZM37.134 78.7279C36.4099 79.5765 35.6263 80.3654 34.7907 81.0873L38.0836 80.3002C38.7123 79.5984 39.3019 78.8567 39.8486 78.0791L37.134 78.7279ZM31.2286 105.16C31.8414 104.513 32.4251 103.84 32.9786 103.143V100.18C32.4342 100.99 31.8503 101.772 31.2286 102.523V105.16ZM29.6001 115.612L29.0997 113.518C28.4625 113.28 27.8125 113.072 27.151 112.893L27.6202 114.856C28.2946 115.074 28.9552 115.326 29.6001 115.612ZM27 112.262V106.665C26.6299 106.958 26.2518 107.242 25.866 107.517L27 112.262ZM39.6292 87.1501C39.6613 86.8919 39.6903 86.6329 39.7163 86.3732L40.7813 86.1187C41.5593 85.3844 42.2982 84.6069 42.9949 83.7903L39.9123 84.5271C39.5897 84.8419 39.2596 85.1486 38.9225 85.4468C38.6109 85.7225 38.2932 85.9909 37.9697 86.2519C37.8855 87.0791 37.7687 87.899 37.6202 88.7096C38.3125 88.2195 38.9827 87.699 39.6292 87.1501ZM123.908 66.25H116.38L109.058 68H116.586L123.908 66.25ZM143.575 59.75H146.946C146.802 59.5175 146.66 59.2827 146.521 59.0457L143.575 59.75ZM91.2075 72.2667H98.7354L91.4137 74.0167H83.8858L91.2075 72.2667Z" fill="#02514E"/>
<path fill-rule="evenodd" clip-rule="evenodd" d="M47.9203 11.8571C48.0912 11.693 48.3214 11.6052 48.5582 11.6139L48.9429 11.6279C49.4148 11.6451 49.7879 12.0337 49.786 12.5059C49.769 16.6357 51.5478 20.4544 54.2075 23.2798C56.8743 26.1129 60.3607 27.8792 63.6769 28.0003C64.1598 28.0179 64.537 28.4237 64.5194 28.9066C64.5017 29.3896 64.096 29.7668 63.613 29.7491C60.387 29.6314 56.9123 31.5965 54.1937 34.7845C51.4886 37.9567 49.6641 42.1955 49.647 46.3467C49.6461 46.5836 49.549 46.8101 49.3781 46.9742C49.2071 47.1384 48.9769 47.2261 48.7401 47.2175L48.3554 47.2034C47.8835 47.1862 47.5104 46.7977 47.5123 46.3254C47.5295 42.1376 46.0622 38.0363 43.7379 34.961C41.408 31.8784 38.2905 29.9131 35.0374 29.7943C34.5545 29.7767 34.1773 29.3709 34.1949 28.888C34.2126 28.4051 34.6183 28.0279 35.1013 28.0455C38.3465 28.164 41.4588 26.4374 43.7981 23.5459C46.1344 20.6582 47.6341 16.6777 47.6513 12.4847C47.6523 12.2477 47.7493 12.0213 47.9203 11.8571ZM39.3071 29.0642C41.5436 30.0829 43.539 31.7956 45.134 33.9058C46.7418 36.0331 47.972 38.599 48.6561 41.3549C49.5016 38.5062 50.9979 35.8351 52.8621 33.649C54.681 31.516 56.9019 29.788 59.2772 28.826C56.9439 27.9225 54.7475 26.4066 52.9333 24.4793C51.0784 22.5089 49.5964 20.0808 48.7668 17.3819C48.0614 20.1135 46.8017 22.6158 45.1586 24.6466C43.5478 26.6377 41.543 28.2026 39.3071 29.0642ZM140.653 163.594C140.824 163.43 141.054 163.342 141.291 163.351L141.469 163.358C141.941 163.375 142.314 163.763 142.312 164.236C142.305 166.009 143.069 167.664 144.23 168.897C145.398 170.138 146.901 170.883 148.287 170.934C148.77 170.952 149.147 171.357 149.129 171.84C149.112 172.323 148.706 172.7 148.223 172.683C146.927 172.635 145.445 173.434 144.239 174.848C143.047 176.246 142.255 178.104 142.248 179.895C142.247 180.132 142.15 180.359 141.979 180.523C141.808 180.687 141.578 180.775 141.341 180.766L141.163 180.76C140.691 180.742 140.318 180.354 140.32 179.882C140.327 178.05 139.684 176.252 138.668 174.908C137.647 173.557 136.323 172.752 135 172.704C134.517 172.686 134.14 172.28 134.157 171.797C134.175 171.314 134.581 170.937 135.064 170.955C136.379 171.003 137.689 170.304 138.706 169.047C139.719 167.794 140.376 166.055 140.384 164.222C140.385 163.985 140.482 163.758 140.653 163.594ZM138.019 171.924C138.797 172.425 139.489 173.091 140.064 173.853C140.583 174.539 141.021 175.319 141.353 176.157C141.761 175.262 142.294 174.432 142.908 173.713C143.553 172.955 144.316 172.29 145.15 171.8C144.345 171.361 143.599 170.78 142.956 170.097C142.344 169.447 141.814 168.693 141.409 167.862C141.064 168.703 140.608 169.477 140.066 170.147C139.486 170.864 138.794 171.477 138.019 171.924Z" fill="#02514E"/>
<path fill-rule="evenodd" clip-rule="evenodd" d="M24 178.25C25.2426 178.25 26.25 177.243 26.25 176C26.25 174.757 25.2426 173.75 24 173.75C22.7574 173.75 21.75 174.757 21.75 176C21.75 177.243 22.7574 178.25 24 178.25ZM79 18.25C80.2426 18.25 81.25 17.2426 81.25 16C81.25 14.7574 80.2426 13.75 79 13.75C77.7574 13.75 76.75 14.7574 76.75 16C76.75 17.2426 77.7574 18.25 79 18.25ZM162 158.25C163.243 158.25 164.25 157.243 164.25 156C164.25 154.757 163.243 153.75 162 153.75C160.757 153.75 159.75 154.757 159.75 156C159.75 157.243 160.757 158.25 162 158.25ZM83 16C83 18.2091 81.2091 20 79 20C76.7909 20 75 18.2091 75 16C75 13.7909 76.7909 12 79 12C81.2091 12 83 13.7909 83 16ZM28 176C28 178.209 26.2091 180 24 180C21.7909 180 20 178.209 20 176C20 173.791 21.7909 172 24 172C26.2091 172 28 173.791 28 176ZM162 160C164.209 160 166 158.209 166 156C166 153.791 164.209 152 162 152C159.791 152 158 153.791 158 156C158 158.209 159.791 160 162 160Z" fill="#02514E"/>
</svg>
