<svg width="200" height="200" viewBox="0 0 200 200" fill="none" xmlns="http://www.w3.org/2000/svg">
<path d="M50 61L30.5 97H150.003L168 61H50Z" fill="#ABD6C0"/>
<rect x="31" y="97" width="119" height="41" fill="#E4F7F0"/>
<path d="M167.818 59.0082C173.504 59.1874 178.381 66.2086 178.346 73.6002L178.65 73.6098C178.685 66.2083 183.323 59.4969 189.009 59.6761C183.323 59.4969 178.751 52.4852 178.786 45.0936L178.481 45.084C178.446 52.4855 173.504 59.1874 167.818 59.0082Z" fill="#EA6516"/>
<path d="M35.75 126.964C28.1574 126.964 23.4074 135.934 23.4074 145.75H23.0926C23.0926 135.924 18.3473 126.964 10.75 126.964V126.536C18.3473 126.536 23.0926 117.566 23.0926 107.75H23.4074C23.4074 117.571 28.1574 126.536 35.75 126.536" fill="#EA6516"/>
<path d="M149.814 138H150V97H150.003L168 61V103.004C168 105.304 167.471 107.573 166.454 109.636L152.823 137.287C152.222 138.507 150.742 138.699 149.814 138Z" fill="#02514E"/>
<path fill-rule="evenodd" clip-rule="evenodd" d="M151 107.75H31V106H151V107.75Z" fill="#02514E"/>
<path fill-rule="evenodd" clip-rule="evenodd" d="M151 97.75H31V96H151V97.75Z" fill="#02514E"/>
<path fill-rule="evenodd" clip-rule="evenodd" d="M151 117.75H31V116H151V117.75Z" fill="#02514E"/>
<path fill-rule="evenodd" clip-rule="evenodd" d="M151 127.75H31V126H151V127.75Z" fill="#02514E"/>
<path fill-rule="evenodd" clip-rule="evenodd" d="M151 138.546H31V136.796H151V138.546Z" fill="#02514E"/>
<path d="M69.399 65.1698H67.4747C65.8425 68.46 61.7865 71.0169 56.5915 71.0169C55.3519 71.0169 54.1771 70.8713 53.0846 70.6049L52.232 72.1824C53.5988 72.5613 55.0654 72.7669 56.5915 72.7669C62.6067 72.7669 67.6971 69.5718 69.399 65.1698Z" fill="#02514E"/>
<path d="M60.9997 90C60.9997 84.4771 55.4033 80 48.4997 80C48.3333 80 48.1675 80.0026 48.0026 80.0077L47.0201 81.8255C47.5004 81.7758 47.994 81.75 48.4997 81.75C54.8214 81.75 59.2497 85.7878 59.2497 90C59.2497 90.0827 59.248 90.1653 59.2446 90.2479H60.996C60.9985 90.1655 60.9997 90.0828 60.9997 90Z" fill="#02514E"/>
<path d="M137.428 84.633C139.812 82.8846 143.191 81.75 147 81.75C148.103 81.75 149.169 81.8451 150.186 82.0227L151.14 80.4244C149.825 80.148 148.436 80 147 80C139.06 80 132.561 84.5235 132.034 90.2479H133.794C134.04 88.1723 135.299 86.1945 137.428 84.633Z" fill="#02514E"/>
<path d="M144.391 65.1698C145.707 69.561 150.19 72.8299 155.576 72.9935L156.626 71.2342C156.419 71.2446 156.211 71.2499 156 71.2499C151.283 71.2499 147.545 68.5995 146.245 65.1698H144.391Z" fill="#02514E"/>
<path fill-rule="evenodd" clip-rule="evenodd" d="M69.8815 63.4198C68.8382 63.4198 67.9624 64.1644 67.5073 65.1032C67.4966 65.1254 67.4857 65.1476 67.4747 65.1698H69.399H144.391H146.245C146.245 64.2033 145.462 63.4198 144.495 63.4198H69.8815ZM157.615 72.9919C158.075 72.2207 157.524 71.2411 156.626 71.2342L155.576 72.9935L151.14 80.4244L150.186 82.0227C151.45 82.0227 152.621 81.358 153.269 80.2727L157.615 72.9919ZM132.034 90.2479H133.794C133.794 91.2144 133.011 91.9979 132.044 91.9979H60.9946C60.0281 91.9979 59.2446 91.2144 59.2446 90.2479H60.996H132.034ZM53.0846 70.6049C53.0741 70.6024 53.0637 70.5998 53.0532 70.5972C52.0821 70.358 51.0275 70.7304 50.552 71.6103L45.9829 80.0642C45.5557 80.8546 46.1217 81.8158 47.0201 81.8255L48.0026 80.0077L52.232 72.1824L53.0846 70.6049Z" fill="#02514E"/>
<path fill-rule="evenodd" clip-rule="evenodd" d="M101.715 66.1517C102.183 66.2701 102.467 66.7458 102.349 67.2144L101.517 70.506C102.983 70.4596 104.357 70.4912 105.433 70.5406C106.116 70.5719 106.681 70.6106 107.077 70.6415C107.275 70.6569 107.431 70.6705 107.538 70.6802C107.591 70.6851 107.632 70.6891 107.661 70.6918L107.693 70.695L107.702 70.6959L107.706 70.6963C107.706 70.6963 107.706 70.6963 107.617 71.5667L107.706 70.6963C108.187 70.7457 108.536 71.1754 108.487 71.6561C108.438 72.1368 108.008 72.4865 107.527 72.4371L107.526 72.437L107.519 72.4363L107.492 72.4336C107.467 72.4312 107.429 72.4276 107.379 72.423C107.279 72.4139 107.131 72.401 106.941 72.3862C106.561 72.3565 106.014 72.3191 105.353 72.2887C104.028 72.2279 102.252 72.1958 100.434 72.3077C100.049 72.3314 99.6701 72.352 99.2978 72.3723C97.8059 72.4536 96.4239 72.5288 95.2641 72.7679C93.7933 73.071 93.0682 73.5623 92.8304 74.2764C92.6441 74.8361 92.7375 75.1129 92.8576 75.2846C93.0151 75.5099 93.3626 75.7578 94.0207 75.9756C95.3421 76.413 97.3247 76.5503 99.5111 76.6869C99.5717 76.6907 99.6324 76.6945 99.6933 76.6983C101.746 76.8263 103.952 76.9638 105.59 77.4445C106.435 77.6926 107.248 78.0635 107.811 78.6729C108.418 79.3302 108.655 80.1783 108.477 81.1564C108.301 82.1258 107.605 82.7696 106.827 83.191C106.05 83.6117 105.069 83.8832 104.05 84.0719C102.253 84.4044 100.118 84.5152 98.3218 84.6083C98.2943 84.6097 98.2669 84.6112 98.2396 84.6126L97.2165 88.3418C97.0886 88.8079 96.6072 89.082 96.1412 88.9541C95.6751 88.8263 95.401 88.3448 95.5288 87.8788L96.4025 84.6945C94.9484 84.7334 93.5841 84.7026 92.5143 84.6563C91.832 84.6268 91.2669 84.5909 90.8713 84.5622C90.6735 84.5479 90.5179 84.5353 90.4111 84.5263C90.3577 84.5218 90.3164 84.5182 90.2882 84.5157L90.2557 84.5127L90.2435 84.5116C90.2435 84.5116 90.2434 84.5116 90.3259 83.6405L90.2435 84.5116C89.7624 84.466 89.4092 84.039 89.4548 83.5579C89.5004 83.0769 89.9273 82.7238 90.4084 82.7693M90.4084 82.7693L90.4165 82.7701L90.4446 82.7727C90.4698 82.7749 90.5079 82.7783 90.5581 82.7825C90.6585 82.791 90.8073 82.803 90.9978 82.8168C91.379 82.8444 91.927 82.8793 92.5899 82.908C93.918 82.9654 95.6968 82.9975 97.5153 82.8984C97.7514 82.8856 97.9924 82.873 98.237 82.8602C100.049 82.7657 102.057 82.6609 103.731 82.3511C104.682 82.1751 105.454 81.9444 105.993 81.6523C106.531 81.3609 106.712 81.0812 106.756 80.8437C106.844 80.3597 106.729 80.0803 106.526 79.8604C106.278 79.5926 105.822 79.3366 105.097 79.1237C103.65 78.699 101.607 78.5713 99.4362 78.4357L99.402 78.4335C97.3015 78.3023 95.0559 78.1616 93.4708 77.637C92.6757 77.3738 91.9004 76.9696 91.4234 76.2875C90.909 75.5518 90.8563 74.666 91.17 73.7236C91.7246 72.0577 93.3231 71.3811 94.9109 71.0539C96.212 70.7857 97.7667 70.7018 99.27 70.6207C99.4101 70.6131 99.5497 70.6056 99.6886 70.5979L100.652 66.7856C100.77 66.3171 101.246 66.0333 101.715 66.1517" fill="#02514E"/>
<path fill-rule="evenodd" clip-rule="evenodd" d="M177.961 44.544C178.107 44.4035 178.303 44.3279 178.505 44.3343L178.81 44.3439C179.216 44.3567 179.538 44.6907 179.536 45.0971C179.519 48.6457 180.611 52.0964 182.371 54.6655C184.137 57.2426 186.507 58.8467 189.033 58.9263C189.447 58.9394 189.772 59.2856 189.759 59.6996C189.746 60.1136 189.4 60.4387 188.986 60.4256C186.467 60.3462 184.097 61.7908 182.318 64.2409C180.541 66.6864 179.417 70.0596 179.4 73.6133C179.399 73.8157 179.317 74.0091 179.171 74.1496C179.025 74.2901 178.829 74.3658 178.627 74.3594L178.322 74.3498C177.916 74.337 177.594 74.003 177.596 73.5966C177.613 70.0589 176.451 66.6091 174.617 64.0348C172.775 61.4506 170.326 59.8375 167.794 59.7577C167.38 59.7446 167.055 59.3985 167.068 58.9844C167.081 58.5704 167.428 58.2454 167.842 58.2584C170.367 58.338 172.815 56.889 174.671 54.4362C176.521 51.9903 177.715 48.6228 177.732 45.0803C177.732 44.8779 177.815 44.6845 177.961 44.544ZM171.221 59.1076C173.001 59.9613 174.581 61.3998 175.838 63.1641C177.026 64.8314 177.952 66.8209 178.508 68.9626C179.055 66.8706 179.949 64.9491 181.104 63.3593C182.331 61.6703 183.877 60.3265 185.634 59.5775C183.88 58.7226 182.345 57.2808 181.133 55.5133C179.993 53.8481 179.115 51.8637 178.59 49.7291C178.012 51.8273 177.07 53.7517 175.867 55.3413C174.594 57.024 173.003 58.3614 171.221 59.1076ZM22.3426 107.75C22.3426 107.336 22.6784 107 23.0926 107H23.4074C23.8216 107 24.1574 107.336 24.1574 107.75C24.1574 112.551 25.3205 117.105 27.3701 120.433C29.416 123.754 32.291 125.786 35.75 125.786C36.1642 125.786 36.5 126.122 36.5 126.536C36.5 126.61 36.4892 126.682 36.469 126.75C36.4892 126.818 36.5 126.89 36.5 126.964C36.5 127.378 36.1642 127.714 35.75 127.714C32.2912 127.714 29.4162 129.747 27.3701 133.069C25.3205 136.398 24.1574 140.951 24.1574 145.75C24.1574 146.164 23.8216 146.5 23.4074 146.5H23.0926C22.6784 146.5 22.3426 146.164 22.3426 145.75C22.3426 140.946 21.1805 136.392 19.1317 133.065C17.0865 129.745 14.2116 127.714 10.75 127.714C10.3358 127.714 10 127.378 10 126.964V126.536C10 126.122 10.3358 125.786 10.75 125.786C14.2113 125.786 17.0862 123.753 19.1316 120.431C21.1806 117.103 22.3426 112.549 22.3426 107.75ZM32.5153 126.75C29.8737 125.84 27.7037 123.834 26.0929 121.219C24.7773 119.083 23.8159 116.517 23.25 113.738C22.6845 116.516 21.7238 119.081 20.409 121.217C18.7986 123.833 16.6288 125.839 13.9865 126.75C16.6286 127.659 18.7985 129.664 20.4089 132.279C21.7243 134.415 22.6852 136.981 23.2506 139.761C23.8166 136.984 24.7778 134.418 26.0929 132.283C27.7036 129.667 29.8737 127.66 32.5153 126.75Z" fill="#02514E"/>
<path fill-rule="evenodd" clip-rule="evenodd" d="M99.75 24C100.164 24 100.5 24.3358 100.5 24.75V31H105.75C106.164 31 106.5 31.3358 106.5 31.75C106.5 32.1642 106.164 32.5 105.75 32.5H100.5V38.75C100.5 39.1642 100.164 39.5 99.75 39.5C99.3358 39.5 99 39.1642 99 38.75V32.5H93.75C93.3358 32.5 93 32.1642 93 31.75C93 31.3358 93.3358 31 93.75 31H99V24.75C99 24.3358 99.3358 24 99.75 24ZM24.75 56.5C22.9551 56.5 21.5 57.9551 21.5 59.75C21.5 61.5449 22.9551 63 24.75 63C26.5449 63 28 61.5449 28 59.75C28 57.9551 26.5449 56.5 24.75 56.5ZM20 59.75C20 57.1267 22.1266 55 24.75 55C27.3733 55 29.5 57.1267 29.5 59.75C29.5 62.3734 27.3733 64.5 24.75 64.5C22.1266 64.5 20 62.3734 20 59.75ZM40.75 144C41.1642 144 41.5 144.336 41.5 144.75V150H45.75C46.1642 150 46.5 150.336 46.5 150.75C46.5 151.164 46.1642 151.5 45.75 151.5H41.5V156.75C41.5 157.164 41.1642 157.5 40.75 157.5C40.3358 157.5 40 157.164 40 156.75V151.5H34.75C34.3358 151.5 34 151.164 34 150.75C34 150.336 34.3358 150 34.75 150H40V144.75C40 144.336 40.3358 144 40.75 144ZM178.75 147C179.164 147 179.5 147.336 179.5 147.75V153H183.75C184.164 153 184.5 153.336 184.5 153.75C184.5 154.164 184.164 154.5 183.75 154.5H179.5V159.75C179.5 160.164 179.164 160.5 178.75 160.5C178.336 160.5 178 160.164 178 159.75V154.5H172.75C172.336 154.5 172 154.164 172 153.75C172 153.336 172.336 153 172.75 153H178V147.75C178 147.336 178.336 147 178.75 147Z" fill="#02514E"/>
<path fill-rule="evenodd" clip-rule="evenodd" d="M175.75 85C173.679 85 172 86.6789 172 88.75C172 90.8211 173.679 92.5 175.75 92.5C177.821 92.5 179.5 90.8211 179.5 88.75C179.5 86.6789 177.821 85 175.75 85ZM175.75 86.5C174.507 86.5 173.5 87.5074 173.5 88.75C173.5 89.9926 174.507 91 175.75 91C176.993 91 178 89.9926 178 88.75C178 87.5074 176.993 86.5 175.75 86.5Z" fill="#02514E"/>
</svg>
