<svg width="200" height="200" viewBox="0 0 200 200" fill="none" xmlns="http://www.w3.org/2000/svg">
<circle cx="93.5291" cy="86.5294" r="66.5291" fill="#ABD6C0"/>
<path d="M23.1036 48.7819C34.2826 49.1343 43.8853 59.9283 43.8315 71.2204L44.4302 71.2393C44.4839 59.9321 53.5877 49.7427 64.7667 50.0951C53.5877 49.7427 44.5837 38.9675 44.6374 27.6754L44.0388 27.6566C43.985 38.9638 34.2826 49.1343 23.1036 48.7819Z" fill="#EA6516"/>
<path d="M160.052 141.926C165.66 142.103 170.477 147.518 170.45 153.182L170.75 153.192C170.777 147.52 175.344 142.408 180.951 142.585C175.344 142.408 170.827 137.003 170.854 131.339L170.554 131.329C170.527 137.001 165.66 142.103 160.052 141.926Z" fill="#EA6516"/>
<path d="M170.225 86.5291C170.225 122.344 141.926 151.548 106.468 153.002V153.058H93.7113C130.371 152.96 160.058 123.212 160.058 86.5294C160.058 49.7864 130.272 20.0002 93.5291 20.0002C92.2898 20.0002 91.0584 20.0341 89.8358 20.101V20H106.468V20.0567C141.926 21.5099 170.225 50.7147 170.225 86.5291Z" fill="#02514E"/>
<path d="M93.3469 153.058C92.1691 153.055 90.9985 153.021 89.8358 152.958V153.058H93.3469Z" fill="#02514E"/>
<path fill-rule="evenodd" clip-rule="evenodd" d="M105.337 152.014C136.447 146.441 160.058 119.243 160.058 86.5294C160.058 53.8151 136.446 26.6158 105.334 21.0445C101.503 20.3584 97.5579 20.0002 93.5291 20.0002C92.642 20.0002 91.759 20.0176 90.8803 20.052C90.5314 20.0657 90.1833 20.082 89.8358 20.101V20H106.468V20.0567C141.926 21.5099 170.225 50.7147 170.225 86.5291C170.225 122.344 141.926 151.548 106.468 153.002V153.058H93.7113C97.6778 153.048 101.563 152.69 105.337 152.014ZM112.348 21.6109C144.424 25.8444 169.181 53.2959 169.181 86.5291C169.181 119.761 144.426 147.212 112.351 151.447C140.512 143.296 161.103 117.317 161.103 86.5294C161.103 55.7402 140.511 29.7606 112.348 21.6109ZM89.8358 152.958C90.1833 152.977 90.5314 152.993 90.8803 153.007C91.6988 153.039 92.5211 153.056 93.3469 153.058H89.8358V152.958Z" fill="#02514E"/>
<path d="M151 174C151 177.866 128.167 181 100 181C71.8335 181 49 177.866 49 174C49 170.134 71.8335 167 100 167C128.167 167 151 170.134 151 174Z" fill="#02514E"/>
<path fill-rule="evenodd" clip-rule="evenodd" d="M91.9909 62.4077L91.959 43.9561L93.709 43.9531L93.7409 62.3881C99.3975 62.3774 104.939 62.8647 109.129 63.3657C111.334 63.6294 113.169 63.8973 114.454 64.0996C115.096 64.2007 115.601 64.2854 115.946 64.345C116.119 64.3748 116.252 64.3983 116.342 64.4145L116.444 64.4331L116.471 64.4379L116.478 64.4392L116.48 64.4396C116.48 64.4396 116.481 64.4397 116.321 65.3L116.161 66.1603L116.153 66.1589L116.129 66.1545L116.032 66.137C115.946 66.1215 115.817 66.0986 115.649 66.0695C115.311 66.0113 114.815 65.928 114.182 65.8283C112.915 65.6288 111.102 65.364 108.921 65.1033C104.556 64.5814 98.7338 64.0778 92.8772 64.1437C86.9833 64.2101 81.1364 64.8535 76.7129 66.5821C72.3069 68.3038 69.4924 71.0148 69.203 75.1754C69.0105 77.9424 69.5883 79.9461 70.664 81.4346C71.7478 82.9343 73.4077 84.0092 75.556 84.7778C79.899 86.3318 85.9092 86.5304 92.2168 86.7119L92.5131 86.7204C98.6384 86.8963 105.003 87.079 109.932 88.6553C112.454 89.4618 114.67 90.6528 116.299 92.4525C117.942 94.2663 118.932 96.6347 119.1 99.6792C119.243 102.265 118.483 104.408 117.032 106.134C115.599 107.839 113.533 109.091 111.129 110.008C106.549 111.756 100.515 112.374 94.546 112.44L94.2084 128.531L92.4588 128.495L92.7955 112.444C87.1483 112.409 81.6151 111.923 77.4305 111.436C75.2261 111.18 73.3923 110.922 72.1085 110.728C71.4665 110.632 70.9618 110.551 70.617 110.494C70.4445 110.465 70.312 110.443 70.2222 110.428L70.1198 110.41L70.0864 110.404L70.0845 110.404C70.0845 110.404 70.0837 110.404 70.236 109.542L70.3883 108.681L70.3956 108.682L70.4196 108.686L70.5169 108.703C70.6034 108.718 70.7324 108.739 70.9013 108.767C71.2389 108.823 71.7358 108.902 72.3695 108.998C73.6369 109.189 75.451 109.444 77.6329 109.698C82 110.206 87.8261 110.71 93.6869 110.696C99.8755 110.681 106.011 110.088 110.505 108.373C112.746 107.518 114.516 106.407 115.692 105.008C116.85 103.63 117.472 101.927 117.353 99.776C117.204 97.0826 116.345 95.1094 115.002 93.6272C113.647 92.1309 111.741 91.0713 109.399 90.3221C104.708 88.8219 98.5483 88.6447 92.2869 88.4647L92.1665 88.4612C85.9553 88.2825 79.628 88.0934 74.9665 86.4255C72.6126 85.5833 70.6035 84.3387 69.2456 82.4597C67.8797 80.5695 67.2429 78.135 67.4572 75.0539C67.8124 69.9485 71.3386 66.8034 76.076 64.9521C80.5675 63.1969 86.3082 62.5264 91.9909 62.4077ZM50.5236 173.316C49.9034 173.732 49.875 173.975 49.875 174C49.875 174.025 49.9034 174.268 50.5236 174.684C51.1045 175.074 52.018 175.484 53.2779 175.892C55.7858 176.706 59.4607 177.452 64.0565 178.083C73.2353 179.343 85.9437 180.125 100 180.125C114.056 180.125 126.765 179.343 135.943 178.083C140.539 177.452 144.214 176.706 146.722 175.892C147.982 175.484 148.895 175.074 149.476 174.684C150.097 174.268 150.125 174.025 150.125 174C150.125 173.975 150.097 173.732 149.476 173.316C148.895 172.926 147.982 172.516 146.722 172.108C144.214 171.294 140.539 170.548 135.943 169.917C126.765 168.657 114.056 167.875 100 167.875C85.9437 167.875 73.2353 168.657 64.0565 169.917C59.4607 170.548 55.7858 171.294 53.2779 172.108C52.018 172.516 51.1045 172.926 50.5236 173.316ZM63.8186 168.183C73.0981 166.91 85.8898 166.125 100 166.125C114.11 166.125 126.902 166.91 136.181 168.183C140.815 168.819 144.609 169.582 147.262 170.443C148.583 170.872 149.674 171.341 150.451 171.863C151.19 172.358 151.875 173.058 151.875 174C151.875 174.942 151.19 175.642 150.451 176.137C149.674 176.659 148.583 177.128 147.262 177.557C144.609 178.418 140.815 179.181 136.181 179.817C126.902 181.09 114.11 181.875 100 181.875C85.8898 181.875 73.0981 181.09 63.8186 179.817C59.1853 179.181 55.3914 178.418 52.7378 177.557C51.417 177.128 50.3265 176.659 49.5487 176.137C48.8102 175.642 48.125 174.942 48.125 174C48.125 173.058 48.8102 172.358 49.5487 171.863C50.3265 171.341 51.417 170.872 52.7378 170.443C55.3914 169.582 59.1853 168.819 63.8186 168.183Z" fill="#02514E"/>
<path fill-rule="evenodd" clip-rule="evenodd" d="M26 14.875C24.8264 14.875 23.875 15.8264 23.875 17C23.875 18.1736 24.8264 19.125 26 19.125C27.1736 19.125 28.125 18.1736 28.125 17C28.125 15.8264 27.1736 14.875 26 14.875ZM22.125 17C22.125 14.8599 23.8599 13.125 26 13.125C28.1401 13.125 29.875 14.8599 29.875 17C29.875 19.1401 28.1401 20.875 26 20.875C23.8599 20.875 22.125 19.1401 22.125 17ZM43.4312 27.0268C43.6012 26.8629 43.8302 26.7747 44.0662 26.7821L44.6648 26.801C45.1387 26.8159 45.5145 27.2056 45.5122 27.6797C45.4604 38.5759 54.1635 48.8856 64.7941 49.2206C65.2771 49.2358 65.6563 49.6397 65.6411 50.1227C65.6258 50.6057 65.222 50.985 64.7389 50.9697C54.1325 50.6354 45.3568 60.3444 45.305 71.2436C45.3039 71.4797 45.2074 71.7053 45.0374 71.8692C44.8674 72.0332 44.6384 72.1214 44.4024 72.114L43.8038 72.0951C43.3299 72.0802 42.9541 71.6905 42.9564 71.2164C42.9712 68.1044 42.2209 65.0336 40.8921 62.228C40.5809 61.571 40.2379 60.9284 39.8657 60.3033C36.2785 54.2801 29.9676 49.8738 23.0759 49.6566C22.5929 49.6414 22.2137 49.2375 22.2289 48.7545C22.2441 48.2715 22.648 47.8923 23.131 47.9075C33.7704 48.2428 43.1119 38.5161 43.1636 27.6525C43.1647 27.4164 43.2612 27.1907 43.4312 27.0268ZM28.8153 48.9558C33.6799 50.616 37.9165 54.1014 40.7893 58.4846C41.1654 59.0585 41.5181 59.6478 41.8459 60.2504C42.8759 62.1445 43.6587 64.1701 44.1428 66.2626C45.9396 58.5568 51.6889 52.0269 59.0962 49.9227C56.5537 49.0429 54.2126 47.65 52.1652 45.8828C51.7241 45.5021 51.2967 45.104 50.8838 44.69C47.6367 41.4337 45.29 37.1891 44.2932 32.6316C42.3936 40.3485 36.3286 46.8577 28.8153 48.9558ZM178 54.875C176.826 54.875 175.875 55.8264 175.875 57C175.875 58.1736 176.826 59.125 178 59.125C179.174 59.125 180.125 58.1736 180.125 57C180.125 55.8264 179.174 54.875 178 54.875ZM174.125 57C174.125 54.8599 175.86 53.125 178 53.125C180.14 53.125 181.875 54.8599 181.875 57C181.875 59.1401 180.14 60.875 178 60.875C175.86 60.875 174.125 59.1401 174.125 57ZM169.946 130.7C170.116 130.536 170.345 130.447 170.581 130.455L170.882 130.464C171.355 130.479 171.731 130.869 171.729 131.343C171.704 136.612 175.92 141.551 180.979 141.711C181.462 141.726 181.841 142.13 181.826 142.613C181.811 143.096 181.407 143.475 180.924 143.46C175.889 143.301 171.65 147.932 171.625 153.196C171.624 153.432 171.527 153.658 171.357 153.822C171.187 153.986 170.958 154.074 170.722 154.066L170.422 154.057C169.948 154.042 169.573 153.652 169.575 153.178C169.6 147.942 165.114 142.961 160.024 142.801C159.541 142.786 159.162 142.382 159.177 141.899C159.193 141.416 159.597 141.037 160.08 141.052C165.148 141.212 169.654 136.554 169.679 131.325C169.68 131.089 169.776 130.863 169.946 130.7ZM164.166 142.047C167.11 143.424 169.479 146.087 170.608 149.177C171.713 146.178 173.987 143.666 176.876 142.465C173.986 141.088 171.729 138.424 170.658 135.342C169.495 138.348 167.109 140.85 164.166 142.047ZM34 142.875C30.6173 142.875 27.875 145.617 27.875 149C27.875 152.383 30.6173 155.125 34 155.125C37.3827 155.125 40.125 152.383 40.125 149C40.125 145.617 37.3827 142.875 34 142.875ZM26.125 149C26.125 144.651 29.6508 141.125 34 141.125C38.3492 141.125 41.875 144.651 41.875 149C41.875 153.349 38.3492 156.875 34 156.875C29.6508 156.875 26.125 153.349 26.125 149Z" fill="#02514E"/>
<path fill-rule="evenodd" clip-rule="evenodd" d="M150.685 86.1829C150.685 117.941 124.94 143.685 93.1827 143.685C61.4249 143.685 35.6802 117.941 35.6802 86.1829C35.6802 77.6339 37.5458 69.5206 40.8921 62.228C41.1978 61.5619 41.5158 60.9026 41.8459 60.2504C41.5181 59.6478 41.1654 59.0585 40.7893 58.4846C40.4713 59.0848 40.1634 59.6911 39.8657 60.3033C36.0632 68.1226 33.9302 76.9037 33.9302 86.1829C33.9302 118.907 60.4584 145.435 93.1827 145.435C125.907 145.435 152.435 118.907 152.435 86.1829C152.435 53.4587 125.907 26.9304 93.1827 26.9304C76.6156 26.9304 61.6365 33.7297 50.8838 44.69C51.2967 45.104 51.7241 45.5021 52.1652 45.8828C62.598 35.2654 77.1214 28.6804 93.1827 28.6804C124.94 28.6804 150.685 54.4252 150.685 86.1829Z" fill="#02514E"/>
</svg>
