<svg width="200" height="200" viewBox="0 0 200 200" fill="none" xmlns="http://www.w3.org/2000/svg">
<path d="M34 119.214C26.4074 119.214 21.6574 128.184 21.6574 138H21.3426C21.3426 128.174 16.5973 119.214 9 119.214V118.786C16.5973 118.786 21.3426 109.816 21.3426 100H21.6574C21.6574 109.821 26.4074 118.786 34 118.786" fill="#EA6516"/>
<path d="M179 55.6626C172.618 55.6626 168.634 62.5061 168.634 70H168.367C168.367 62.5061 164.382 55.6626 158 55.6626V55.3374C164.382 55.3374 168.367 48.4939 168.367 41H168.634C168.634 48.4939 172.618 55.3374 179 55.3374" fill="#EA6516"/>
<path d="M65.3967 81.8514C80.2527 53.7665 107.475 39.0282 126.198 48.9325C144.922 58.8368 148.058 89.6332 133.202 117.718C118.346 145.803 91.124 160.541 72.4001 150.637C53.6762 140.733 50.5407 109.936 65.3967 81.8514Z" fill="#ABD6C0"/>
<path d="M189.129 148.827C193.17 163.265 186.863 177.652 175.042 180.962C163.22 184.271 150.36 175.25 146.318 160.812C142.276 146.374 148.583 131.987 160.405 128.678C172.227 125.368 185.087 134.39 189.129 148.827Z" fill="#ABD6C0"/>
<path d="M46.1198 68.8302C34.2333 73.5289 21.4785 69.4479 17.6313 59.7151C13.784 49.9824 20.3011 38.2834 32.1875 33.5848C44.074 28.8861 56.8288 32.9671 60.6761 42.6999C64.5234 52.4326 58.0063 64.1316 46.1198 68.8302Z" fill="#ABD6C0"/>
<path d="M78.9101 154.861L79.6477 154.39L79.5301 154.206L79.3396 154.098L78.9101 154.861ZM74.3395 151.563L74.6834 150.758L73.752 152.211L74.3395 151.563ZM78.9994 155L78.2617 155.471L78.9977 156.625L79.736 155.473L78.9994 155ZM79.0418 154.934L79.4668 154.169L78.7486 153.77L78.3052 154.462L79.0418 154.934ZM79.6225 155.247L79.2176 156.023L79.6225 155.247ZM140.023 122.258L140.794 122.671L140.023 122.258ZM133.657 54.423L134.062 53.6473H134.062L133.657 54.423ZM132.971 54.0779L133.352 53.2903L132.337 54.6815L132.971 54.0779ZM133.202 117.718L132.428 117.309H132.428L133.202 117.718ZM34.0003 120.089C34.4836 120.089 34.8753 119.697 34.8753 119.214C34.8753 118.73 34.4836 118.339 34.0003 118.339V120.089ZM21.6577 138V138.875C22.1409 138.875 22.5327 138.483 22.5327 138H21.6577ZM21.3429 138H20.4679C20.4679 138.483 20.8597 138.875 21.3429 138.875V138ZM9.00031 119.214H8.12531C8.12531 119.697 8.51706 120.089 9.00031 120.089V119.214ZM9.00031 118.786V117.911C8.51706 117.911 8.12531 118.303 8.12531 118.786H9.00031ZM21.3429 99.9998V99.1248C20.8597 99.1248 20.4679 99.5165 20.4679 99.9998H21.3429ZM21.6577 99.9998H22.5327C22.5327 99.5165 22.1409 99.1248 21.6577 99.1248V99.9998ZM34.0003 119.661C34.4836 119.661 34.8753 119.269 34.8753 118.786C34.8753 118.303 34.4836 117.911 34.0003 117.911V119.661ZM179 56.5373C179.484 56.5373 179.875 56.1456 179.875 55.6623C179.875 55.1791 179.484 54.7873 179 54.7873V56.5373ZM168.634 69.9998V70.8748C169.117 70.8748 169.509 70.483 169.509 69.9998H168.634ZM168.367 69.9998H167.492C167.492 70.483 167.884 70.8748 168.367 70.8748V69.9998ZM158 55.6623H157.125C157.125 56.1456 157.517 56.5373 158 56.5373V55.6623ZM158 55.3372V54.4622C157.517 54.4622 157.125 54.8539 157.125 55.3372H158ZM168.367 40.9998V40.1248C167.884 40.1248 167.492 40.5165 167.492 40.9998H168.367ZM168.634 40.9998H169.509C169.509 40.5165 169.117 40.1248 168.634 40.1248V40.9998ZM179 56.2122C179.484 56.2122 179.875 55.8204 179.875 55.3372C179.875 54.8539 179.484 54.4622 179 54.4622V56.2122ZM38.8753 143C38.8753 142.517 38.4836 142.125 38.0003 142.125C37.5171 142.125 37.1253 142.517 37.1253 143H38.8753ZM37.1253 165C37.1253 165.483 37.5171 165.875 38.0003 165.875C38.4836 165.875 38.8753 165.483 38.8753 165H37.1253ZM28.0003 153.125C27.5171 153.125 27.1253 153.517 27.1253 154C27.1253 154.483 27.5171 154.875 28.0003 154.875V153.125ZM48.0003 154.875C48.4836 154.875 48.8753 154.483 48.8753 154C48.8753 153.517 48.4836 153.125 48.0003 153.125V154.875ZM84.8753 16.9998C84.8753 16.5165 84.4836 16.1248 84.0003 16.1248C83.5171 16.1248 83.1253 16.5165 83.1253 16.9998H84.8753ZM83.1253 30.9998C83.1253 31.483 83.5171 31.8748 84.0003 31.8748C84.4836 31.8748 84.8753 31.483 84.8753 30.9998H83.1253ZM78.0003 23.1248C77.5171 23.1248 77.1253 23.5165 77.1253 23.9998C77.1253 24.483 77.5171 24.8748 78.0003 24.8748V23.1248ZM90.0003 24.8748C90.4836 24.8748 90.8753 24.483 90.8753 23.9998C90.8753 23.5165 90.4836 23.1248 90.0003 23.1248V24.8748ZM120.637 86.1223C121.117 86.1721 121.547 85.8229 121.597 85.3422C121.647 84.8615 121.298 84.4315 120.817 84.3816L120.637 86.1223ZM81.5178 93.5723L80.6868 93.2981L81.5178 93.5723ZM116.748 107.357L115.886 107.202L116.748 107.357ZM77.6218 114.807C77.1407 114.761 76.7135 115.113 76.6675 115.594C76.6215 116.075 76.9742 116.503 77.4553 116.549L77.6218 114.807ZM106.546 72.6821C106.661 72.2127 106.373 71.7391 105.904 71.6242C105.434 71.5094 104.961 71.7968 104.846 72.2662L106.546 72.6821ZM91.7977 126.712C91.6708 127.178 91.9461 127.659 92.4124 127.786C92.8787 127.913 93.3595 127.637 93.4863 127.171L91.7977 126.712ZM172.765 145.299C173.248 145.275 173.619 144.864 173.595 144.382C173.572 143.899 173.161 143.527 172.678 143.551L172.765 145.299ZM158.361 152.604L157.506 152.792L158.361 152.604ZM177.122 157.782L177.953 157.508L177.122 157.782ZM170.53 164.645L170.291 163.803L170.53 164.645ZM162.708 165.087C162.226 165.116 161.858 165.531 161.887 166.013C161.917 166.496 162.331 166.863 162.814 166.834L162.708 165.087ZM163.659 137.916C163.528 137.451 163.045 137.18 162.58 137.311C162.115 137.442 161.844 137.925 161.975 138.39L163.659 137.916ZM171.433 171.556C171.555 172.023 172.033 172.303 172.501 172.181C172.968 172.059 173.248 171.581 173.126 171.113L171.433 171.556ZM47.5429 54.6633C47.6166 55.1409 48.0635 55.4684 48.5411 55.3947C49.0187 55.321 49.3462 54.8741 49.2725 54.3965L47.5429 54.6633ZM40.2077 43.0729L39.9328 42.2422L40.2077 43.0729ZM37.4698 59.4373L37.1116 58.639L37.4698 59.4373ZM30.1331 47.8376C30.0543 47.3608 29.6039 47.0382 29.1271 47.117C28.6503 47.1958 28.3277 47.6462 28.4065 48.123L30.1331 47.8376ZM53.1766 46.3923C53.6258 46.214 53.8454 45.7054 53.6671 45.2562C53.4888 44.807 52.9801 44.5874 52.531 44.7657L53.1766 46.3923ZM25.2435 55.7054C24.7911 55.8753 24.5621 56.3798 24.732 56.8322C24.9019 57.2846 25.4064 57.5136 25.8588 57.3437L25.2435 55.7054ZM79.3396 154.098C77.7416 153.198 76.2703 152.131 74.9269 150.914L73.752 152.211C75.19 153.514 76.767 154.657 78.4806 155.623L79.3396 154.098ZM79.737 154.53L79.6477 154.39L78.1725 155.331L78.2617 155.471L79.737 154.53ZM78.3052 154.462L78.2627 154.528L79.736 155.473L79.7785 155.406L78.3052 154.462ZM80.0273 154.471C79.8388 154.373 79.6519 154.272 79.4668 154.169L78.6169 155.699C78.8153 155.809 79.0156 155.917 79.2176 156.023L80.0273 154.471ZM139.252 121.844C131.86 135.636 121.483 146.156 110.722 152.033C99.9513 157.916 88.9029 159.103 80.0273 154.471L79.2176 156.023C88.779 161.013 100.47 159.627 111.56 153.569C122.659 147.507 133.264 136.721 140.794 122.671L139.252 121.844ZM133.252 55.1987C142.125 59.8291 147.344 69.5019 148.478 81.5898C149.612 93.6703 146.643 108.052 139.252 121.844L140.794 122.671C148.324 108.621 151.391 93.8971 150.221 81.4263C149.051 68.9628 143.627 58.6392 134.062 53.6473L133.252 55.1987ZM132.59 54.8656C132.812 54.9731 133.033 55.0841 133.253 55.1987L134.062 53.6473C133.827 53.5245 133.59 53.4055 133.352 53.2903L132.59 54.8656ZM132.337 54.6815C138.376 61.0206 141.599 70.6253 141.701 81.7169C141.802 92.7987 138.784 105.294 132.428 117.309L133.975 118.127C140.453 105.88 143.555 93.1005 143.451 81.7008C143.346 70.3109 140.037 60.2268 133.605 53.4744L132.337 54.6815ZM132.428 117.309C125.32 130.746 115.37 141.067 104.938 147.04C94.4966 153.017 83.6638 154.597 74.6834 150.758L73.9955 152.367C83.6372 156.489 95.0602 154.711 105.807 148.558C116.562 142.401 126.732 131.82 133.975 118.127L132.428 117.309ZM184.749 149.857C188.168 162.068 182.942 173.848 173.559 176.475L174.031 178.16C184.673 175.18 190.011 162.16 186.434 149.385L184.749 149.857ZM173.559 176.475C164.176 179.101 153.594 171.747 150.175 159.535L148.49 160.007C152.067 172.782 163.388 181.139 174.031 178.16L173.559 176.475ZM150.175 159.535C146.757 147.324 151.983 135.544 161.366 132.917L160.894 131.232C150.251 134.211 144.914 147.232 148.49 160.007L150.175 159.535ZM161.366 132.917C170.748 130.291 181.331 137.645 184.749 149.857L186.434 149.385C182.858 136.61 171.536 128.253 160.894 131.232L161.366 132.917ZM72.5023 86.0792C78.5135 74.7151 86.979 66.0713 95.765 61.2624C104.558 56.4495 113.568 55.5219 120.813 59.3541L121.631 57.8071C113.701 53.6125 104.044 54.7358 94.9248 59.7273C85.7979 64.7228 77.104 73.6371 70.9554 85.2609L72.5023 86.0792ZM120.813 59.3541C128.057 63.1862 132.361 71.156 133.33 81.1333C134.299 91.1022 131.918 102.964 125.907 114.328L127.454 115.147C133.602 103.523 136.079 91.3198 135.072 80.964C134.066 70.6164 129.561 62.0018 121.631 57.8071L120.813 59.3541ZM125.907 114.328C119.895 125.692 111.43 134.336 102.644 139.145C93.8508 143.958 84.8409 144.886 77.5964 141.053L76.7781 142.6C84.7079 146.795 94.3646 145.672 103.484 140.68C112.611 135.685 121.305 126.77 127.454 115.147L125.907 114.328ZM77.5964 141.053C70.3518 137.221 66.0484 129.251 65.0786 119.274C64.1097 109.305 66.4911 97.4432 72.5023 86.0792L70.9554 85.2609C64.8068 96.8847 62.3303 109.088 63.3368 119.444C64.3426 129.791 68.8482 138.406 76.7781 142.6L77.5964 141.053ZM44.5741 65.0795C34.841 68.927 24.6968 65.4985 21.6875 57.8856L20.06 58.5289C23.5389 67.3297 34.9048 70.7835 45.2175 66.707L44.5741 65.0795ZM21.6875 57.8856C18.6782 50.2727 23.7364 40.8349 33.4695 36.9874L32.8262 35.3599C22.5136 39.4365 16.5811 49.7281 20.06 58.5289L21.6875 57.8856ZM33.4695 36.9874C43.2027 33.14 53.3469 36.5685 56.3562 44.1813L57.9837 43.538C54.5048 34.7372 43.1389 31.2834 32.8262 35.3599L33.4695 36.9874ZM56.3562 44.1813C59.3655 51.7942 54.3073 61.2321 44.5741 65.0795L45.2175 66.707C55.5301 62.6305 61.4625 52.3388 57.9837 43.538L56.3562 44.1813ZM34.0003 118.339C29.8103 118.339 26.4789 120.826 24.2367 124.467C21.9986 128.101 20.7827 132.965 20.7827 138H22.5327C22.5327 133.219 23.6918 128.689 25.7268 125.385C27.7578 122.087 30.5977 120.089 34.0003 120.089V118.339ZM21.6577 137.125H21.3429V138.875H21.6577V137.125ZM22.2179 138C22.2179 132.96 21.0033 128.096 18.7656 124.463C16.5237 120.823 13.1921 118.339 9.00031 118.339V120.089C12.4058 120.089 15.2455 122.085 17.2756 125.381C19.3099 128.684 20.4679 133.214 20.4679 138H22.2179ZM9.87531 119.214V118.786H8.12531V119.214H9.87531ZM9.00031 119.661C13.1925 119.661 16.524 117.174 18.7657 113.532C21.0032 109.898 22.2179 105.035 22.2179 99.9998H20.4679C20.4679 104.781 19.31 109.31 17.2755 112.615C15.2452 115.913 12.4054 117.911 9.00031 117.911V119.661ZM21.3429 100.875H21.6577V99.1248H21.3429V100.875ZM20.7827 99.9998C20.7827 105.037 21.9986 109.901 24.2368 113.535C26.4791 117.175 29.8105 119.661 34.0003 119.661V117.911C30.5975 117.911 27.7576 115.914 25.7268 112.617C23.6918 109.313 22.5327 104.783 22.5327 99.9998H20.7827ZM179 54.7873C175.456 54.7873 172.617 56.6999 170.699 59.53C168.791 62.3472 167.759 66.1103 167.759 69.9998H169.509C169.509 66.3953 170.469 62.9897 172.148 60.5116C173.818 58.0465 176.163 56.5373 179 56.5373V54.7873ZM168.634 69.1248H168.367V70.8748H168.634V69.1248ZM169.242 69.9998C169.242 66.1103 168.21 62.3472 166.301 59.53C164.384 56.6999 161.545 54.7873 158 54.7873V56.5373C160.838 56.5373 163.182 58.0465 164.852 60.5116C166.531 62.9897 167.492 66.3953 167.492 69.9998H169.242ZM158.875 55.6623V55.3372H157.125V55.6623H158.875ZM158 56.2122C161.545 56.2122 164.384 54.2996 166.301 51.4695C168.21 48.6523 169.242 44.8892 169.242 40.9998H167.492C167.492 44.6042 166.531 48.0098 164.852 50.4879C163.182 52.953 160.838 54.4622 158 54.4622V56.2122ZM168.367 41.8748H168.634V40.1248H168.367V41.8748ZM167.759 40.9998C167.759 44.8892 168.791 48.6523 170.699 51.4695C172.617 54.2996 175.456 56.2122 179 56.2122V54.4622C176.163 54.4622 173.818 52.953 172.148 50.4879C170.469 48.0098 169.509 44.6042 169.509 40.9998H167.759ZM37.1253 143V165H38.8753V143H37.1253ZM28.0003 154.875H48.0003V153.125H28.0003V154.875ZM83.1253 16.9998V30.9998H84.8753V16.9998H83.1253ZM78.0003 24.8748H90.0003V23.1248H78.0003V24.8748ZM115.125 169C115.125 170.726 113.726 172.125 112 172.125V173.875C114.693 173.875 116.875 171.692 116.875 169H115.125ZM112 172.125C110.274 172.125 108.875 170.726 108.875 169H107.125C107.125 171.692 109.308 173.875 112 173.875V172.125ZM108.875 169C108.875 167.274 110.274 165.875 112 165.875V164.125C109.308 164.125 107.125 166.307 107.125 169H108.875ZM112 165.875C113.726 165.875 115.125 167.274 115.125 169H116.875C116.875 166.307 114.693 164.125 112 164.125V165.875ZM189.125 86.9998C189.125 88.1734 188.174 89.1248 187 89.1248V90.8748C189.14 90.8748 190.875 89.1399 190.875 86.9998H189.125ZM187 89.1248C185.827 89.1248 184.875 88.1734 184.875 86.9998H183.125C183.125 89.1399 184.86 90.8748 187 90.8748V89.1248ZM184.875 86.9998C184.875 85.8261 185.827 84.8748 187 84.8748V83.1248C184.86 83.1248 183.125 84.8596 183.125 86.9998H184.875ZM187 84.8748C188.174 84.8748 189.125 85.8261 189.125 86.9998H190.875C190.875 84.8596 189.14 83.1248 187 83.1248V84.8748ZM47.1253 92.9998C47.1253 94.1734 46.1739 95.1248 45.0003 95.1248V96.8748C47.1404 96.8748 48.8753 95.1399 48.8753 92.9998H47.1253ZM45.0003 95.1248C43.8267 95.1248 42.8753 94.1734 42.8753 92.9998H41.1253C41.1253 95.1399 42.8602 96.8748 45.0003 96.8748V95.1248ZM42.8753 92.9998C42.8753 91.8261 43.8267 90.8748 45.0003 90.8748V89.1248C42.8602 89.1248 41.1253 90.8596 41.1253 92.9998H42.8753ZM45.0003 90.8748C46.1739 90.8748 47.1253 91.8261 47.1253 92.9998H48.8753C48.8753 90.8596 47.1404 89.1248 45.0003 89.1248V90.8748ZM120.727 85.252C120.817 84.3816 120.817 84.3816 120.817 84.3816C120.817 84.3816 120.817 84.3816 120.816 84.3816C120.816 84.3815 120.815 84.3815 120.815 84.3814C120.814 84.3813 120.812 84.3811 120.809 84.3809C120.805 84.3804 120.798 84.3797 120.789 84.3788C120.771 84.377 120.745 84.3744 120.711 84.3711C120.643 84.3644 120.542 84.3547 120.411 84.3426C120.149 84.3186 119.766 84.2849 119.278 84.2464C118.301 84.1694 116.903 84.073 115.213 83.9947C111.837 83.8383 107.284 83.754 102.597 84.0452L102.705 85.7918C107.309 85.5058 111.794 85.5882 115.132 85.7429C116.801 85.8201 118.179 85.9153 119.14 85.991C119.621 86.0288 119.996 86.0618 120.251 86.0853C120.378 86.097 120.476 86.1063 120.541 86.1127C120.573 86.1159 120.597 86.1183 120.614 86.12C120.622 86.1208 120.628 86.1214 120.631 86.1218C120.633 86.122 120.635 86.1221 120.636 86.1222C120.636 86.1222 120.636 86.1223 120.637 86.1223C120.637 86.1223 120.637 86.1223 120.637 86.1223C120.637 86.1223 120.637 86.1223 120.727 85.252ZM102.597 84.0452C97.9039 84.3367 93.0243 85.0074 89.0441 86.3867C85.0986 87.754 81.8082 89.8998 80.6868 93.2981L82.3487 93.8465C83.2064 91.2471 85.8214 89.3556 89.6171 88.0402C93.3781 86.7369 98.0755 86.0794 102.705 85.7918L102.597 84.0452ZM80.6868 93.2981C80.0131 95.34 80.087 97.0512 80.9769 98.3915C81.842 99.6943 83.3483 100.442 85.0677 100.889C88.4928 101.778 93.4493 101.634 98.2797 101.491C103.206 101.346 108.032 101.199 111.468 101.969C113.182 102.354 114.412 102.939 115.143 103.743C115.832 104.502 116.18 105.569 115.886 107.202L117.609 107.512C117.978 105.461 117.566 103.808 116.438 102.566C115.352 101.371 113.706 100.678 111.851 100.262C108.15 99.4319 103.065 99.599 98.228 99.742C93.2949 99.8877 88.6342 100.007 85.5076 99.1948C83.9512 98.7905 82.948 98.1963 82.4348 97.4234C81.9465 96.6881 81.7734 95.59 82.3487 93.8465L80.6868 93.2981ZM115.886 107.202C115.43 109.74 113.018 111.619 109.148 112.935C105.334 114.232 100.419 114.869 95.5668 115.136L95.6629 116.883C100.569 116.613 105.672 115.966 109.712 114.592C113.695 113.237 116.971 111.057 117.609 107.512L115.886 107.202ZM95.5668 115.136C90.9682 115.388 86.4799 115.306 83.1372 115.16C81.467 115.088 80.0855 114.999 79.1226 114.928C78.6412 114.893 78.2646 114.863 78.009 114.841C77.8812 114.83 77.7837 114.821 77.7185 114.815C77.6859 114.812 77.6614 114.81 77.6452 114.809C77.6371 114.808 77.631 114.807 77.6271 114.807C77.6252 114.807 77.6238 114.807 77.6229 114.807C77.6224 114.807 77.6221 114.807 77.6219 114.807C77.6218 114.807 77.6218 114.807 77.6218 114.807C77.6218 114.807 77.6218 114.807 77.5385 115.678C77.4553 116.549 77.4554 116.549 77.4555 116.549C77.4556 116.549 77.4557 116.549 77.4559 116.549C77.4563 116.549 77.4568 116.549 77.4574 116.549C77.4586 116.549 77.4604 116.549 77.4627 116.549C77.4674 116.55 77.4741 116.55 77.483 116.551C77.5006 116.553 77.5267 116.555 77.5608 116.558C77.629 116.564 77.7297 116.573 77.8607 116.585C78.1227 116.607 78.5063 116.638 78.995 116.674C79.9724 116.745 81.3712 116.835 83.0609 116.909C86.438 117.056 90.9877 117.14 95.6629 116.883L95.5668 115.136ZM104.846 72.2662L101.801 84.7105L103.501 85.1265L106.546 72.6821L104.846 72.2662ZM94.7705 115.78L91.7977 126.712L93.4863 127.171L96.4592 116.239L94.7705 115.78ZM172.722 144.425C172.678 143.551 172.678 143.551 172.678 143.551C172.678 143.551 172.678 143.551 172.678 143.551C172.677 143.551 172.677 143.551 172.677 143.551C172.676 143.551 172.675 143.551 172.674 143.552C172.671 143.552 172.668 143.552 172.663 143.552C172.655 143.553 172.642 143.553 172.626 143.554C172.594 143.556 172.547 143.559 172.486 143.563C172.365 143.571 172.189 143.583 171.968 143.602C171.524 143.638 170.895 143.699 170.145 143.796C168.651 143.988 166.659 144.324 164.705 144.9L165.2 146.579C167.033 146.038 168.925 145.717 170.369 145.531C171.088 145.439 171.691 145.381 172.113 145.346C172.323 145.328 172.489 145.316 172.6 145.309C172.656 145.305 172.698 145.303 172.726 145.301C172.74 145.3 172.75 145.3 172.757 145.3C172.76 145.299 172.762 145.299 172.764 145.299C172.764 145.299 172.765 145.299 172.765 145.299C172.765 145.299 172.765 145.299 172.765 145.299H172.765C172.765 145.299 172.765 145.299 172.722 144.425ZM164.705 144.9C162.762 145.473 160.767 146.308 159.351 147.546C157.892 148.822 157.017 150.565 157.506 152.792L159.215 152.417C158.892 150.945 159.414 149.816 160.503 148.864C161.635 147.874 163.343 147.126 165.2 146.579L164.705 144.9ZM157.506 152.792C157.788 154.079 158.293 155.07 159.03 155.775C159.771 156.484 160.674 156.834 161.623 156.967C163.449 157.223 165.636 156.686 167.616 156.206C169.699 155.701 171.598 155.245 173.154 155.4C173.904 155.475 174.521 155.689 175.021 156.077C175.519 156.463 175.967 157.073 176.291 158.055L177.953 157.508C177.543 156.264 176.919 155.335 176.094 154.694C175.271 154.056 174.314 153.757 173.328 153.659C171.411 153.467 169.188 154.024 167.204 154.505C165.116 155.011 163.291 155.434 161.866 155.234C161.189 155.14 160.656 154.909 160.24 154.511C159.819 154.108 159.445 153.464 159.215 152.417L157.506 152.792ZM176.291 158.055C176.54 158.812 176.518 159.433 176.337 159.962C176.152 160.503 175.776 161.017 175.209 161.503C174.056 162.492 172.254 163.248 170.291 163.803L170.768 165.487C172.802 164.911 174.902 164.072 176.348 162.831C177.081 162.203 177.68 161.442 177.993 160.529C178.309 159.603 178.309 158.589 177.953 157.508L176.291 158.055ZM170.291 163.803C168.447 164.325 166.55 164.647 165.106 164.839C164.386 164.934 163.783 164.996 163.361 165.035C163.151 165.054 162.985 165.067 162.874 165.076C162.818 165.08 162.776 165.083 162.748 165.085C162.734 165.085 162.723 165.086 162.717 165.087C162.713 165.087 162.711 165.087 162.71 165.087C162.709 165.087 162.708 165.087 162.708 165.087C162.708 165.087 162.708 165.087 162.708 165.087H162.708C162.708 165.087 162.708 165.087 162.761 165.96C162.814 166.834 162.814 166.834 162.814 166.834C162.814 166.834 162.814 166.834 162.814 166.834C162.814 166.834 162.815 166.834 162.815 166.834C162.816 166.834 162.817 166.834 162.818 166.834C162.82 166.833 162.824 166.833 162.828 166.833C162.837 166.832 162.849 166.832 162.865 166.831C162.897 166.828 162.944 166.825 163.004 166.821C163.124 166.812 163.299 166.798 163.52 166.778C163.961 166.737 164.589 166.673 165.336 166.574C166.827 166.376 168.814 166.04 170.768 165.487L170.291 163.803ZM161.975 138.39L164.11 145.977L165.795 145.502L163.659 137.916L161.975 138.39ZM169.683 164.867L171.433 171.556L173.126 171.113L171.376 164.424L169.683 164.867ZM48.4077 54.5299C49.2725 54.3965 49.2725 54.3964 49.2724 54.3962C49.2724 54.3962 49.2724 54.396 49.2724 54.3959C49.2724 54.3957 49.2723 54.3954 49.2723 54.3951C49.2722 54.3944 49.272 54.3935 49.2719 54.3924C49.2715 54.3903 49.2711 54.3873 49.2705 54.3836C49.2693 54.376 49.2676 54.3653 49.2653 54.3515C49.2609 54.3239 49.2543 54.284 49.2455 54.2326C49.228 54.1299 49.2019 53.9814 49.1666 53.7942C49.0959 53.4198 48.9885 52.8896 48.8402 52.2605C48.5446 51.0064 48.0825 49.3397 47.4183 47.7249L45.7999 48.3905C46.416 49.8887 46.8532 51.4581 47.1369 52.6619C47.2782 53.2616 47.3803 53.7658 47.4469 54.1186C47.4802 54.2949 47.5045 54.4332 47.5204 54.5263C47.5283 54.5729 47.5341 54.6082 47.5378 54.6313C47.5397 54.6429 47.5411 54.6514 47.5419 54.6568C47.5423 54.6595 47.5426 54.6614 47.5428 54.6625C47.5429 54.663 47.543 54.6634 47.543 54.6635C47.543 54.6636 47.543 54.6636 47.543 54.6636C47.543 54.6636 47.543 54.6635 47.543 54.6635C47.543 54.6634 47.5429 54.6633 48.4077 54.5299ZM47.4183 47.7249C46.759 46.1218 45.8664 44.4837 44.6719 43.3729C43.4352 42.2229 41.8323 41.6137 39.9328 42.2422L40.4825 43.9036C41.6481 43.518 42.6036 43.8394 43.4802 44.6545C44.399 45.5088 45.1746 46.8702 45.7999 48.3905L47.4183 47.7249ZM39.9328 42.2422C38.8493 42.6007 38.029 43.1283 37.4762 43.8405C36.9198 44.5574 36.6961 45.3818 36.6664 46.2189C36.6095 47.8198 37.2684 49.6527 37.8469 51.2813C38.4611 53.0102 39.0054 54.5574 39.0107 55.8638C39.0133 56.4885 38.8894 57.0056 38.6206 57.4378C38.3534 57.8676 37.8978 58.2862 37.1116 58.639L37.828 60.2356C38.8648 59.7705 39.6202 59.1443 40.1067 58.3619C40.5917 57.5819 40.7642 56.7195 40.7607 55.8567C40.7539 54.1881 40.0761 52.3288 39.496 50.6955C38.8802 48.962 38.3727 47.4774 38.4153 46.2811C38.4352 45.7195 38.5777 45.2755 38.8587 44.9135C39.1432 44.5469 39.6315 44.1852 40.4825 43.9036L39.9328 42.2422ZM37.1116 58.639C36.5153 58.9065 36.0153 58.9381 35.5807 58.838C35.1338 58.7351 34.6848 58.476 34.2343 58.0494C33.3148 57.1785 32.5241 55.7385 31.882 54.1281L30.2565 54.7762C30.9259 56.4551 31.8305 58.183 33.0309 59.3199C33.6404 59.8972 34.3575 60.3521 35.188 60.5433C36.0307 60.7374 36.9194 60.6433 37.828 60.2356L37.1116 58.639ZM31.882 54.1281C31.2801 52.6182 30.8416 51.0444 30.5531 49.84C30.4092 49.2398 30.3036 48.7357 30.2342 48.383C30.1996 48.2067 30.174 48.0685 30.1572 47.9752C30.1488 47.9286 30.1426 47.8933 30.1386 47.87C30.1366 47.8584 30.1351 47.8498 30.1342 47.8444C30.1338 47.8417 30.1334 47.8397 30.1333 47.8386C30.1332 47.838 30.1331 47.8377 30.1331 47.8375C30.1331 47.8374 30.133 47.8374 30.1331 47.8374C30.1331 47.8374 30.1331 47.8375 30.1331 47.8375C30.1331 47.8375 30.1331 47.8376 29.2698 47.9803C28.4065 48.123 28.4065 48.1231 28.4066 48.1232C28.4066 48.1233 28.4066 48.1234 28.4066 48.1235C28.4066 48.1238 28.4067 48.124 28.4067 48.1243C28.4068 48.125 28.407 48.1258 28.4072 48.1269C28.4075 48.129 28.408 48.1319 28.4086 48.1356C28.4099 48.143 28.4117 48.1536 28.414 48.1673C28.4187 48.1946 28.4257 48.2341 28.4348 48.2851C28.4532 48.387 28.4805 48.5346 28.5172 48.7208C28.5904 49.0931 28.701 49.6209 28.8512 50.2478C29.1508 51.4979 29.6121 53.1599 30.2565 54.7762L31.882 54.1281ZM52.531 44.7657L46.2863 47.2444L46.9319 48.871L53.1766 46.3923L52.531 44.7657ZM30.7616 53.633L25.2435 55.7054L25.8588 57.3437L31.3769 55.2713L30.7616 53.633Z" fill="#02514E"/>
</svg>
