<svg width="200" height="200" viewBox="0 0 200 200" fill="none" xmlns="http://www.w3.org/2000/svg">
<path d="M154 81C154 109.167 131.167 132 103 132C74.8335 132 52 109.167 52 81C52 52.8335 74.8335 30 103 30C131.167 30 154 52.8335 154 81Z" fill="#ABD6C0"/>
<path d="M63 180.167C63 175.656 66.6563 172 71.1667 172H161C165.51 172 169.167 175.656 169.167 180.167C169.167 184.677 165.51 188.333 161 188.333H71.1667C66.6563 188.333 63 184.677 63 180.167Z" fill="#ABD6C0"/>
<path d="M40 162.167C40 157.656 43.6563 154 48.1667 154H138C142.51 154 146.167 157.656 146.167 162.167C146.167 166.677 142.51 170.333 138 170.333H48.1667C43.6563 170.333 40 166.677 40 162.167Z" fill="#ABD6C0"/>
<path d="M49 144.167C49 139.656 52.6563 136 57.1667 136H147C151.51 136 155.167 139.656 155.167 144.167C155.167 148.677 151.51 152.333 147 152.333H57.1667C52.6563 152.333 49 148.677 49 144.167Z" fill="#ABD6C0"/>
<path d="M40 35.7019C49.3674 35.9972 57.4139 45.042 57.3689 54.5042L57.8705 54.52C57.9155 45.0451 65.544 36.507 74.9114 36.8022C65.544 36.507 57.9991 27.478 58.0441 18.0158L57.5425 18C57.4974 27.4748 49.3674 35.9972 40 35.7019Z" fill="#EA6516"/>
<path d="M161.965 98.3763C167.573 98.553 172.39 103.968 172.363 109.632L172.663 109.642C172.69 103.97 177.257 98.8583 182.865 99.035C177.257 98.8583 172.74 93.4531 172.767 87.7887L172.467 87.7792C172.44 93.4512 167.573 98.553 161.965 98.3763Z" fill="#EA6516"/>
<path fill-rule="evenodd" clip-rule="evenodd" d="M103 132C131.166 132 154 109.166 154 80.9997C154 52.8332 131.166 29.9997 103 29.9997H112.919V30.0432C140.1 31.1573 161.794 53.5451 161.794 80.9997C161.794 108.454 140.1 130.842 112.919 131.956V132H103ZM100.169 131.922C101.106 131.974 102.05 132 103 132H100.169V131.922ZM100.169 30.077V29.9997H103C102.05 29.9997 101.106 30.0257 100.169 30.077Z" fill="#02514E"/>
<path d="M148 80.5C148 105.629 127.629 126 102.5 126C77.371 126 57 105.629 57 80.5C57 55.371 77.371 35 102.5 35C127.629 35 148 55.371 148 80.5Z" fill="#ABD6C0"/>
<path fill-rule="evenodd" clip-rule="evenodd" d="M102.5 124.25C126.662 124.25 146.25 104.662 146.25 80.5C146.25 56.3375 126.662 36.75 102.5 36.75C78.3375 36.75 58.75 56.3375 58.75 80.5C58.75 104.662 78.3375 124.25 102.5 124.25ZM102.5 126C127.629 126 148 105.629 148 80.5C148 55.371 127.629 35 102.5 35C77.371 35 57 55.371 57 80.5C57 105.629 77.371 126 102.5 126Z" fill="#02514E"/>
<path fill-rule="evenodd" clip-rule="evenodd" d="M63.125 152.333V136H64.875V152.333H63.125ZM77.825 152.333V136H79.575V152.333H77.825ZM93.3417 152.333V136H95.0917V152.333H93.3417ZM108.858 152.333V136H110.608V152.333H108.858ZM124.375 152.333V136H126.125V152.333H124.375ZM139.075 152.333V136H140.825V152.333H139.075ZM54.7 170.333V154H56.45V170.333H54.7ZM69.4 170.333V154H71.15V170.333H69.4ZM84.9167 170.333V154H86.6667V170.333H84.9167ZM100.433 170.333V154H102.183V170.333H100.433ZM115.95 170.333V154H117.7V170.333H115.95ZM130.65 170.333V154H132.4V170.333H130.65ZM76.7 188.333V172H78.45V188.333H76.7ZM91.4 188.333V172H93.15V188.333H91.4ZM106.917 188.333V172H108.667V188.333H106.917ZM122.433 188.333V172H124.183V188.333H122.433ZM137.95 188.333V172H139.7V188.333H137.95ZM152.65 188.333V172H154.4V188.333H152.65Z" fill="#02514E"/>
<path fill-rule="evenodd" clip-rule="evenodd" d="M101.616 62.3089L101.592 48.3644L103.342 48.3613L103.366 62.2892C107.634 62.2928 111.802 62.6603 114.965 63.0381C116.664 63.241 118.077 63.4472 119.067 63.603C119.562 63.6809 119.951 63.7462 120.218 63.7922C120.351 63.8152 120.453 63.8334 120.523 63.8459L120.602 63.8603L120.63 63.8654C120.63 63.8654 120.631 63.8656 120.471 64.7258L120.397 65.1253C120.311 65.586 120.311 65.586 120.311 65.586L120.288 65.5818L120.214 65.5684C120.148 65.5565 120.049 65.539 119.92 65.5167C119.661 65.4721 119.281 65.4082 118.795 65.3317C117.823 65.1788 116.431 64.9756 114.758 64.7758C111.407 64.3757 106.942 63.9907 102.457 64.0442C97.9544 64.0978 93.5131 64.5934 90.1663 65.9054C86.8371 67.2104 84.7692 69.2361 84.5554 72.3102C84.4104 74.3948 84.8464 75.8804 85.6371 76.9747C86.436 78.08 87.6677 78.8842 89.2906 79.4648C92.5826 80.6427 97.1529 80.7962 101.999 80.9356C102.081 80.9379 102.163 80.9403 102.245 80.9426C106.926 81.077 111.83 81.2177 115.636 82.435C117.59 83.0599 119.325 83.9882 120.606 85.4032C121.901 86.8324 122.674 88.6941 122.806 91.069C122.915 93.0503 122.349 94.711 121.256 96.0587C120.179 97.3867 118.63 98.3626 116.841 99.0808C113.309 100.498 108.611 101.001 103.979 101.064L103.724 113.202L101.975 113.165L102.229 101.068C98.0801 101.032 94.0281 100.684 90.9026 100.327C89.1357 100.125 87.6608 99.9192 86.6266 99.764C86.1093 99.6864 85.7021 99.6213 85.4234 99.5755C85.284 99.5526 85.1768 99.5345 85.104 99.5221L85.0209 99.5078L84.9935 99.503L84.9919 99.5027C84.9919 99.5027 84.9912 99.5026 85.1435 98.641L85.1739 98.4691C85.2958 97.7793 85.2959 97.7794 85.2959 97.7794L85.3205 97.7837L85.3985 97.7971C85.4678 97.8089 85.5715 97.8264 85.7071 97.8487C85.9784 97.8932 86.3776 97.957 86.8862 98.0334C87.9037 98.186 89.358 98.3887 91.1013 98.588C94.5917 98.987 99.2241 99.3706 103.821 99.3161C108.44 99.2613 112.931 98.7641 116.189 97.4567C117.811 96.8056 119.069 95.9763 119.897 94.9563C120.708 93.9559 121.145 92.7256 121.058 91.1657C120.946 89.1419 120.303 87.6754 119.309 86.578C118.302 85.4663 116.877 84.6694 115.103 84.1018C111.534 82.9606 106.836 82.8254 102.019 82.6869L101.949 82.6849C97.199 82.5482 92.3116 82.4044 88.701 81.1125C86.8725 80.4583 85.2917 79.4844 84.2188 77.9997C83.1378 76.5039 82.6428 74.5874 82.8096 72.1888C83.089 68.1717 85.8664 65.7113 89.5276 64.2761C92.9533 62.9331 97.308 62.4117 101.616 62.3089Z" fill="#02514E"/>
<path fill-rule="evenodd" clip-rule="evenodd" d="M56.9351 17.3697C57.1051 17.2058 57.3341 17.1175 57.5701 17.1249L58.0717 17.1408C58.5456 17.1557 58.9214 17.5454 58.9191 18.0195C58.876 27.0858 66.12 35.6492 74.9389 35.9272C75.4219 35.9424 75.8012 36.3463 75.7859 36.8293C75.7707 37.3123 75.3668 37.6915 74.8838 37.6763C66.089 37.3991 58.7886 45.4569 58.7455 54.5236C58.7443 54.7598 58.6478 54.9854 58.4779 55.1493C58.3079 55.3132 58.0789 55.4015 57.8429 55.394L57.3413 55.3782C56.8674 55.3633 56.4916 54.9736 56.4939 54.4995C56.5368 45.4661 48.8218 36.8549 39.9724 36.576C39.4894 36.5608 39.1102 36.1569 39.1254 35.6739C39.1407 35.1909 39.5446 34.8116 40.0276 34.8269C48.8554 35.1051 56.6246 27.0266 56.6675 17.9954C56.6686 17.7592 56.7651 17.5336 56.9351 17.3697ZM45.2466 35.86C51.212 38.0651 55.9885 43.5196 57.6304 49.7612C59.2497 43.6451 63.8238 38.4884 69.7056 36.6446C63.8303 34.4398 59.2987 28.9837 57.7479 22.7559C56.0374 28.8817 51.2188 34.0216 45.2466 35.86ZM171.86 87.1488C172.03 86.9849 172.258 86.8967 172.495 86.9041L172.795 86.9136C173.269 86.9285 173.644 87.3182 173.642 87.7923C173.617 93.0609 177.833 98.0005 182.892 98.1599C183.375 98.1751 183.754 98.579 183.739 99.062C183.724 99.5451 183.32 99.9243 182.837 99.909C177.802 99.7504 173.563 104.381 173.538 109.645C173.537 109.881 173.441 110.107 173.271 110.271C173.101 110.435 172.872 110.523 172.636 110.516L172.335 110.506C171.862 110.491 171.486 110.102 171.488 109.627C171.513 104.392 167.027 99.4108 161.938 99.2504C161.455 99.2351 161.075 98.8312 161.091 98.3482C161.106 97.8652 161.51 97.486 161.993 97.5012C167.061 97.661 171.567 93.0029 171.592 87.7745C171.593 87.5384 171.69 87.3127 171.86 87.1488ZM166.079 98.4967C169.023 99.8736 171.392 102.536 172.521 105.627C173.626 102.627 175.9 100.116 178.789 98.9148C175.9 97.5375 173.642 94.8732 172.572 91.7911C171.408 94.797 169.022 97.2997 166.079 98.4967Z" fill="#02514E"/>
</svg>
