<svg width="200" height="200" viewBox="0 0 200 200" fill="none" xmlns="http://www.w3.org/2000/svg">
<path d="M54.6523 37.9293C47.5494 36.8094 40.651 40.8874 38.2081 47.6503L15.0451 111.776C11.8861 120.521 17.3631 130.004 26.5168 131.638L144.828 152.759C152.066 154.051 159.174 149.906 161.614 142.97L185.024 76.4174C188.133 67.5776 182.466 58.0826 173.21 56.6231L54.6523 37.9293Z" stroke="#02514E" stroke-width="1.75"/>
<path d="M52.015 37.1381C46.6671 36.2953 41.4746 39.3799 39.6247 44.4985L15.6872 110.734C13.294 117.356 17.3901 124.554 24.2772 125.829L143.01 147.811C148.528 148.832 153.957 145.633 155.771 140.291L179.387 70.7342C181.661 64.0358 177.376 56.8944 170.426 55.7991L52.015 37.1381Z" fill="#02514E"/>
<path d="M158 172C158 176.418 131.137 180 98 180C64.8629 180 38 176.418 38 172C38 167.582 64.8629 164 98 164C131.137 164 158 167.582 158 172Z" fill="#ABD6C0"/>
<path fill-rule="evenodd" clip-rule="evenodd" d="M128.671 118.545C124.972 116.917 120.469 118.751 118.675 122.811C116.88 126.871 118.558 131.428 122.257 133.057C124.434 134.016 126.891 133.774 128.909 132.585C127.814 130.112 127.756 127.142 128.958 124.423C129.576 123.024 130.469 121.826 131.539 120.876C130.818 119.876 129.847 119.063 128.671 118.545ZM133.122 119.725C132.212 118.465 130.978 117.43 129.461 116.762C124.672 114.654 119.07 117.085 116.886 122.025C114.702 126.964 116.679 132.732 121.467 134.84C124.275 136.076 127.363 135.752 129.878 134.275C130.788 135.535 132.022 136.57 133.539 137.238C138.328 139.346 143.93 136.915 146.114 131.975C148.298 127.036 146.321 121.268 141.533 119.16C138.725 117.924 135.637 118.248 133.122 119.725ZM132.487 122.659C131.78 123.366 131.183 124.221 130.747 125.209C129.834 127.274 129.82 129.469 130.513 131.341C131.22 130.634 131.817 129.779 132.253 128.791C133.166 126.726 133.18 124.531 132.487 122.659ZM131.461 133.124C132.531 132.174 133.424 130.976 134.042 129.577C135.244 126.858 135.186 123.888 134.091 121.415C136.109 120.226 138.566 119.984 140.743 120.943C144.442 122.572 146.12 127.129 144.325 131.189C142.531 135.249 138.028 137.083 134.329 135.455C133.153 134.937 132.182 134.124 131.461 133.124Z" fill="#217A73"/>
<path d="M57.1363 136.169C50.1667 140.541 48.1189 144.084 45.5681 156C43.0174 144.066 40.9517 140.523 34 136.169C40.9696 131.797 43.0174 128.254 45.5681 116.338C48.1189 128.272 50.1846 131.815 57.1363 136.169Z" fill="#EA6516"/>
<path d="M174 51.7911C165.774 57.0302 163.333 61.2696 160.32 75.5822C157.307 61.2822 154.866 57.0302 146.641 51.7911C154.866 46.552 157.307 42.3126 160.32 28C163.333 42.3 165.774 46.552 174 51.7911Z" fill="#EA6516"/>
<path d="M45.5674 120.261C46.5497 124.241 47.5661 127.171 48.9463 129.537C50.5472 132.282 52.6065 134.217 55.5264 136.169C52.5984 138.129 50.5389 140.069 48.9395 142.814C47.5618 145.179 46.5478 148.105 45.5674 152.076C44.5852 148.097 43.5705 145.167 42.1904 142.801C40.5892 140.056 38.5291 138.12 35.6084 136.168C38.5368 134.208 40.5977 132.269 42.1973 129.523C43.5749 127.158 44.5869 124.232 45.5674 120.261ZM160.32 32.0264C161.527 37.1125 162.757 40.7884 164.447 43.7295C166.363 47.0624 168.841 49.3993 172.403 51.791C168.841 54.182 166.363 56.5161 164.447 59.8477C162.756 62.788 161.526 66.4643 160.319 71.5547C159.113 66.4693 157.884 62.7934 156.193 59.8525C154.277 56.5195 151.799 54.1829 148.236 51.791C151.799 49.3998 154.277 47.0662 156.193 43.7344C157.884 40.7939 159.114 37.1172 160.32 32.0264Z" stroke="#02514E" stroke-width="1.75"/>
<path d="M180.47 132.838C182.49 132.838 184.125 134.471 184.125 136.481C184.125 138.492 182.49 140.125 180.47 140.125C178.449 140.125 176.815 138.491 176.815 136.481C176.815 134.471 178.449 132.838 180.47 132.838ZM18.5303 52.6338C20.5505 52.634 22.1843 54.2675 22.1846 56.2773C22.1846 58.2874 20.5506 59.9206 18.5303 59.9209C16.5097 59.9209 14.875 58.2875 14.875 56.2773C14.8752 54.2673 16.5099 52.6338 18.5303 52.6338ZM131.774 19.875C133.795 19.875 135.43 21.5084 135.43 23.5186C135.43 25.5287 133.795 27.1621 131.774 27.1621C129.754 27.1619 128.12 25.5286 128.12 23.5186C128.12 21.5085 129.754 19.8752 131.774 19.875Z" stroke="#02514E" stroke-width="1.75"/>
<mask id="mask0_60077_3461" style="mask-type:alpha" maskUnits="userSpaceOnUse" x="15" y="37" width="165" height="111">
<path d="M52.015 37.1381C46.6671 36.2953 41.4746 39.3799 39.6247 44.4985L15.6872 110.734C13.294 117.356 17.3901 124.554 24.2772 125.829L143.01 147.811C148.528 148.832 153.957 145.633 155.771 140.291L179.387 70.7342C181.661 64.0358 177.376 56.8944 170.426 55.7991L52.015 37.1381Z" fill="#02514E"/>
</mask>
<g mask="url(#mask0_60077_3461)">
<path d="M111.666 48.2871L128.006 95.5689C128.652 97.4396 128.128 99.5159 126.672 100.856L110.048 116.152L148.52 94.0436C150.585 92.857 151.526 90.3786 150.77 88.1203L138 50L111 46C111.217 46.3345 111.532 47.8999 111.666 48.2871Z" fill="#217A73"/>
<path fill-rule="evenodd" clip-rule="evenodd" d="M50.9136 131L111.598 88.5419C113.039 87.5338 113.844 85.843 113.719 84.089L111 46C111.217 46.3345 111.532 47.8999 111.666 48.2871L128.006 95.5689C128.652 97.4396 128.128 99.5159 126.672 100.856L110.048 116.152L76.4121 135.481L50.9136 131ZM111 46C110.797 45.6871 111.265 46.2574 111 46V46Z" fill="#217A73"/>
<path d="M111 46L138 50L111 45.5V46Z" fill="#217A73"/>
<path fill-rule="evenodd" clip-rule="evenodd" d="M60.0823 38.4094L62.4618 72.3373L62.8177 77.4119C62.9365 79.1054 62.1877 80.7436 60.8294 81.762L48.7777 90.7984L15 116.5C15 120.5 18.75 125 21.5 125.5L25.3513 126.142L97.4803 87.2002C99.6089 86.051 100.61 83.5427 99.8564 81.2438L87.2248 42.687L60.0823 38.4094Z" fill="#217A73"/>
</g>
</svg>
