<svg width="200" height="200" viewBox="0 0 200 200" fill="none" xmlns="http://www.w3.org/2000/svg">
<path fill-rule="evenodd" clip-rule="evenodd" d="M175.857 61.6053C175.741 62.0983 175.62 62.5766 175.496 63.0407L169.89 92.7816C173.589 94.6592 175.924 98.7615 175.26 103.19L164.756 173.214C164.022 178.109 159.817 181.731 154.867 181.731H69.0288C63.0138 181.731 58.36 176.459 59.106 170.49L61.0066 155.286H101.402L97.6492 164.71H121.843L121.331 155.286H128.501L126.345 139.251L135.001 131.5H127.723C129.511 129.008 130.564 125.953 130.564 122.652C130.564 114.262 123.763 107.46 115.373 107.46C106.983 107.46 100.181 114.262 100.181 122.652C100.181 125.915 101.21 128.938 102.961 131.414L64.0092 131.265L67.859 100.467C68.4845 95.4624 72.7385 91.707 77.7818 91.707H85.7249L93.2221 54.5722C97.0527 33.619 117.568 18 138.722 18C160.254 18 179.466 29.6108 177.043 54.5722C176.826 56.8089 176.435 59.1529 175.857 61.6053ZM96.1434 91.707L103.183 55.3664C106.113 39.4383 121.806 27.565 137.987 27.565C154.487 27.565 169.17 36.3334 167.247 55.3664L159.681 91.707H96.1434Z" fill="#C3E8EC"/>
<path d="M50.2309 144.914H48.6997V140.975H50.2309V144.914Z" fill="#02514E"/>
<path d="M52.8982 144.914L49.8568 149.145L53.055 151.444L53.5766 150.718L51.3881 149.145L54.4294 144.914H52.8982Z" fill="#02514E"/>
<path d="M56.9284 148.185L58.2337 151.1L59.5091 150.528L57.8717 146.873L56.9284 148.185Z" fill="#02514E"/>
<path d="M61.2833 135.186L60.2536 134.467L58.047 137.629L58.6456 138.966L61.2833 135.186Z" fill="#02514E"/>
<path d="M55.4996 135.361L55.2438 134.79L51.6493 136.4L53.6989 140.975H55.2301L53.1806 136.4L55.4996 135.361Z" fill="#02514E"/>
<path d="M75.7068 144.914H77.2378V140.975H75.7068V144.914Z" fill="#02514E"/>
<path d="M80.706 140.975H82.237L80.1874 136.4L82.5067 135.361L82.2509 134.79L78.6565 136.4L80.706 140.975Z" fill="#02514E"/>
<path d="M85.0539 137.629L85.6524 138.966L88.2903 135.186L87.2607 134.467L85.0539 137.629Z" fill="#02514E"/>
<path d="M86.516 150.528L84.8786 146.873L83.9354 148.185L85.2409 151.1L86.516 150.528Z" fill="#02514E"/>
<path d="M80.5836 150.718L78.3949 149.145L81.4363 144.914H79.9053L76.864 149.145L80.0621 151.444L80.5836 150.718Z" fill="#02514E"/>
<path d="M104.965 144.914H106.495V140.975H104.965V144.914Z" fill="#02514E"/>
<path d="M109.964 140.975H111.495L109.445 136.4L111.764 135.361L111.509 134.79L107.914 136.4L109.964 140.975Z" fill="#02514E"/>
<path d="M114.312 137.629L114.91 138.966L117.548 135.186L116.518 134.467L114.312 137.629Z" fill="#02514E"/>
<path d="M115.774 150.528L114.136 146.873L113.193 148.185L114.499 151.1L115.774 150.528Z" fill="#02514E"/>
<path d="M109.841 150.718L107.653 149.145L110.694 144.914H109.163L106.122 149.145L109.32 151.444L109.841 150.718Z" fill="#02514E"/>
<path d="M18.751 145.005H20.2822V141.066H18.751V145.005Z" fill="#02514E"/>
<path d="M23.7502 141.066H25.2815L23.2319 136.49L25.551 135.452L25.2951 134.88L21.7007 136.49L23.7502 141.066Z" fill="#02514E"/>
<path d="M28.0983 137.72L28.6969 139.057L31.3346 135.277L30.3049 134.558L28.0983 137.72Z" fill="#02514E"/>
<path d="M29.5604 150.619L27.9231 146.964L26.9797 148.276L28.2851 151.191L29.5604 150.619Z" fill="#02514E"/>
<path d="M23.6279 150.809L21.4394 149.236L24.4808 145.005H22.9495L19.9082 149.236L23.1063 151.535L23.6279 150.809Z" fill="#02514E"/>
<path fill-rule="evenodd" clip-rule="evenodd" d="M154.867 181.731H162.47C169.942 181.731 176.275 176.231 177.322 168.832L185.816 108.809C187.094 99.7783 180.084 91.7069 170.964 91.7069H165.371C171.484 91.7069 176.167 97.1442 175.26 103.19L164.757 173.214C164.022 178.109 159.817 181.731 154.867 181.731Z" fill="#02514E"/>
<path fill-rule="evenodd" clip-rule="evenodd" d="M97.3422 85.5176H86.9743L85.7247 91.7067H96.1433L97.3422 85.5176ZM160.969 85.5176L159.681 91.7067H170.092L171.259 85.5176H160.969Z" fill="#02514E"/>
<path d="M122.687 107.46C114.297 107.46 107.496 114.261 107.496 122.652C107.496 125.562 108.314 128.281 109.734 130.592H18.5969C11.6398 130.592 6 136.232 6 143.189C6 150.146 11.6398 155.786 18.5969 155.786H108.517L104.964 164.71H130.001L128.646 155.286L128.501 154.786H18.5969C12.1921 154.786 7 149.594 7 143.189C7 136.784 12.1921 131.592 18.5969 131.592H135.001L135.32 131.092L135.641 130.592C137.06 128.281 137.879 125.562 137.879 122.652C137.879 114.261 131.077 107.46 122.687 107.46Z" fill="#02514E"/>
<path d="M137.879 122.652C137.879 114.261 131.077 107.46 122.687 107.46C114.297 107.46 107.496 114.261 107.496 122.652C107.496 125.562 108.314 128.281 109.734 130.592H18.5969C11.6398 130.592 6 136.232 6 143.189C6 150.146 11.6398 155.786 18.5969 155.786H108.517L104.964 164.71H130.001L128.646 155.286L128.501 154.786H18.5969C12.1921 154.786 7 149.594 7 143.189C7 136.784 12.1921 131.592 18.5969 131.592H135.001L135.32 131.092M137.879 122.652C137.879 125.775 136.936 128.678 135.32 131.092M137.879 122.652C137.879 125.562 137.06 128.281 135.641 130.592L135.32 131.092M48.6997 144.914H50.2309V140.975H48.6997V144.914ZM52.8982 144.914L49.8568 149.145L53.055 151.444L53.5766 150.718L51.3881 149.145L54.4294 144.914H52.8982ZM56.9284 148.185L58.2337 151.1L59.5091 150.528L57.8717 146.873L56.9284 148.185ZM61.2833 135.186L60.2536 134.467L58.047 137.629L58.6456 138.966L61.2833 135.186ZM55.4996 135.361L55.2438 134.79L51.6493 136.4L53.6989 140.975H55.2301L53.1806 136.4L55.4996 135.361ZM77.2378 144.914H75.7068V140.975H77.2378V144.914ZM80.706 140.975H82.237L80.1874 136.4L82.5067 135.361L82.2509 134.79L78.6565 136.4L80.706 140.975ZM85.0539 137.629L85.6524 138.966L88.2903 135.186L87.2607 134.467L85.0539 137.629ZM86.516 150.528L84.8786 146.873L83.9354 148.185L85.2409 151.1L86.516 150.528ZM80.5836 150.718L78.3949 149.145L81.4363 144.914H79.9053L76.864 149.145L80.0621 151.444L80.5836 150.718ZM106.495 144.914H104.965V140.975H106.495V144.914ZM109.964 140.975H111.495L109.445 136.4L111.764 135.361L111.509 134.79L107.914 136.4L109.964 140.975ZM114.312 137.629L114.91 138.966L117.548 135.186L116.518 134.467L114.312 137.629ZM115.774 150.528L114.136 146.873L113.193 148.185L114.499 151.1L115.774 150.528ZM109.841 150.718L107.653 149.145L110.694 144.914H109.163L106.122 149.145L109.32 151.444L109.841 150.718ZM20.2822 145.005H18.751V141.066H20.2822V145.005ZM23.7502 141.066H25.2815L23.2319 136.49L25.551 135.452L25.2951 134.88L21.7007 136.49L23.7502 141.066ZM28.0983 137.72L28.6969 139.057L31.3346 135.277L30.3049 134.558L28.0983 137.72ZM29.5604 150.619L27.9231 146.964L26.9797 148.276L28.2851 151.191L29.5604 150.619ZM23.6279 150.809L21.4394 149.236L24.4808 145.005H22.9495L19.9082 149.236L23.1063 151.535L23.6279 150.809ZM154.867 181.731H162.47C169.942 181.731 176.275 176.231 177.322 168.832L185.816 108.809C187.094 99.7783 180.084 91.7069 170.964 91.7069H165.371C171.484 91.7069 176.167 97.1442 175.26 103.19L164.757 173.214C164.022 178.109 159.817 181.731 154.867 181.731ZM97.3422 85.5176L96.1433 91.7067H85.7247L86.9743 85.5176H97.3422ZM160.969 85.5176L159.681 91.7067H170.092L171.259 85.5176H160.969Z" stroke="#02514E"/>
<path fill-rule="evenodd" clip-rule="evenodd" d="M81.4363 144.915H77.2378V140.976H82.237L80.1874 136.4L83.7819 134.79L85.6524 138.966L88.7917 134.468L92.0215 136.722L89.0527 140.976H93.6222V144.915H88.3167L90.3663 149.49L86.7719 151.1L84.8786 146.874L81.5931 151.445L78.3949 149.146L81.4363 144.915Z" fill="#EA6516"/>
<path fill-rule="evenodd" clip-rule="evenodd" d="M110.694 144.915H106.495V140.976H111.495L109.445 136.4L113.04 134.79L114.91 138.966L118.049 134.468L121.279 136.722L118.31 140.976H122.88V144.915H117.574L119.624 149.49L116.03 151.1L114.136 146.874L110.851 151.445L107.653 149.146L110.694 144.915Z" fill="#EA6516"/>
<path fill-rule="evenodd" clip-rule="evenodd" d="M54.4294 144.915H50.2309V140.976H55.2301L53.1806 136.4L56.775 134.79L58.6456 138.966L61.7849 134.468L65.0146 136.722L62.0458 140.976H66.6154V144.915H61.3099L63.3594 149.49L59.765 151.1L57.8717 146.874L54.5862 151.445L51.3881 149.146L54.4294 144.915Z" fill="#EA6516"/>
<path fill-rule="evenodd" clip-rule="evenodd" d="M24.4808 145.006H20.2822V141.067H25.2815L23.2319 136.491L26.8263 134.881L28.6969 139.057L31.8362 134.559L35.0659 136.813L32.0972 141.067H36.6667V145.006H31.3612L33.4108 149.581L29.8163 151.191L27.9231 146.965L24.6376 151.536L21.4394 149.237L24.4808 145.006Z" fill="#EA6516"/>
</svg>
