<svg width="200" height="200" viewBox="0 0 200 200" fill="none" xmlns="http://www.w3.org/2000/svg">
<path fill-rule="evenodd" clip-rule="evenodd" d="M60.8472 93.5909L21.3589 94.9136L59.3876 101.732L60.8472 93.5909ZM14.3999 100.245L31.5553 163.48L100.365 115.658L65.0769 109.331L65.0388 109.543L58.2067 108.318L58.2448 108.106L14.3999 100.245ZM33.4847 170.592L35.1629 176.778L89.21 175.234L89.1804 175.126L121.281 159.977L63.6303 149.641L33.4847 170.592ZM132.225 154.813L134.763 153.615L188.038 153.615L167.813 77.234L71.7821 143.976L132.225 154.813ZM164.62 71H112.372H112.115L112.145 71.1118L68.0427 92.7892L66.2197 102.957L107.89 110.428L164.62 71Z" fill="#C3E8EC"/>
<path fill-rule="evenodd" clip-rule="evenodd" d="M134.763 153.615L89.1804 175.126L89.21 175.234L35.1629 176.778L15.4854 104.246L12 104.972L35.163 187.844L188.039 154.129L187.595 153.615L134.763 153.615Z" fill="#02514E"/>
<path fill-rule="evenodd" clip-rule="evenodd" d="M113.217 70.7703L136.344 155.77L134.656 156.23L111.528 71.2297L113.217 70.7703ZM88.1073 175.462L65.9737 93.6194L67.663 93.1625L89.7966 175.005L88.1073 175.462Z" fill="#02514E"/>
<path d="M141.687 59.6407C141.687 91.8984 110.785 103.056 100.843 123.183C91.7363 99.9976 60 78.7937 60 46.5361C60 24.1156 78.284 8.89055 100.843 12.5404C123.403 16.1207 141.687 37.2203 141.687 59.6407Z" fill="#EA6516"/>
<path fill-rule="evenodd" clip-rule="evenodd" d="M86.466 39.7519C79.2904 46.6586 80.1791 58.8935 88.0344 67.0546C95.8896 75.2157 108.082 76.5708 115.257 69.6641C122.433 62.7574 121.544 50.5225 113.689 42.3614C105.834 34.2003 93.6417 32.8452 86.466 39.7519ZM87.6797 41.0128C81.383 47.0735 81.9198 58.1784 89.2952 65.841C96.6707 73.5036 107.747 74.4639 114.044 68.4032C120.34 62.3425 119.804 51.2376 112.428 43.575C105.053 35.9124 93.9763 34.9521 87.6797 41.0128Z" fill="#02514E"/>
<path fill-rule="evenodd" clip-rule="evenodd" d="M100.794 129.953C112.767 129.953 122.473 126.822 122.473 122.959C122.473 119.723 115.658 117 106.405 116.203C104.527 118.563 102.9 120.996 101.628 123.57C101.475 123.881 101.153 124.071 100.807 124.057C100.461 124.042 100.156 123.825 100.029 123.503C99.0571 121.028 97.8197 118.57 96.3824 116.111C86.5249 116.768 79.115 119.585 79.115 122.959C79.115 126.822 88.8211 129.953 100.794 129.953Z" fill="#02514E"/>
<path d="M100.029 123.503C100.156 123.825 100.461 124.042 100.807 124.057C101.153 124.071 101.475 123.881 101.628 123.57C102.9 120.996 104.527 118.563 106.405 116.203C106.059 116.173 105.709 116.146 105.356 116.121C103.6 118.377 102.064 120.712 100.843 123.183C99.9036 120.79 98.7227 118.418 97.3606 116.053C97.032 116.07 96.7059 116.089 96.3824 116.111C97.8197 118.57 99.0571 121.028 100.029 123.503Z" fill="#02514E"/>
</svg>
