<svg width="200" height="200" viewBox="0 0 200 200" fill="none" xmlns="http://www.w3.org/2000/svg">
<path d="M65.2387 103.079L194 71.9445L48.8796 89.8867L53.1013 132.631L65.2387 103.079Z" fill="white"/>
<path d="M164.313 116.602C169.999 116.781 174.883 122.271 174.856 128.015L175.16 128.024C175.187 122.273 179.818 117.09 185.504 117.27C179.818 117.09 175.238 111.61 175.266 105.866L174.961 105.857C174.934 111.608 169.999 116.781 164.313 116.602Z" fill="#EA6516"/>
<path d="M18.0527 42.0791C23.7388 42.2583 28.623 47.7486 28.5957 53.4921L28.9002 53.5017C28.9275 47.7505 33.558 42.5678 39.244 42.747C33.558 42.5678 28.9782 37.0871 29.0056 31.3436L28.7011 31.334C28.6737 37.0852 23.7388 42.2583 18.0527 42.0791Z" fill="#EA6516"/>
<path fill-rule="evenodd" clip-rule="evenodd" d="M4.625 69.8336C4.625 69.3504 5.01675 68.9586 5.5 68.9586H23.022C23.5052 68.9586 23.897 69.3504 23.897 69.8336C23.897 70.3169 23.5052 70.7086 23.022 70.7086H5.5C5.01675 70.7086 4.625 70.3169 4.625 69.8336Z" fill="#02514E"/>
<path fill-rule="evenodd" clip-rule="evenodd" d="M58.6356 107.293C58.7697 107.758 58.5021 108.243 58.0378 108.377L6.2429 123.341C5.77864 123.475 5.29355 123.207 5.15942 122.743C5.02529 122.279 5.29292 121.794 5.75718 121.659L57.5521 106.696C58.0163 106.561 58.5014 106.829 58.6356 107.293Z" fill="#02514E"/>
<path fill-rule="evenodd" clip-rule="evenodd" d="M81.84 128.547C82.0555 128.979 81.8796 129.505 81.447 129.72L42.3548 149.198C41.9223 149.413 41.3969 149.237 41.1814 148.805C40.9659 148.372 41.1418 147.847 41.5744 147.632L80.6666 128.154C81.0991 127.938 81.6245 128.114 81.84 128.547Z" fill="#02514E"/>
<path fill-rule="evenodd" clip-rule="evenodd" d="M42.5488 98.9525C42.6435 99.4264 42.3361 99.8873 41.8623 99.982L15.5752 105.236C15.1014 105.331 14.6404 105.023 14.5457 104.549C14.451 104.076 14.7584 103.615 15.2323 103.52L41.5193 98.266C41.9932 98.1712 42.4541 98.4786 42.5488 98.9525Z" fill="#02514E"/>
<path fill-rule="evenodd" clip-rule="evenodd" d="M85.9363 132.311C86.1501 132.745 85.9722 133.269 85.5388 133.483L72.1803 140.075C71.747 140.289 71.2223 140.111 71.0084 139.678C70.7946 139.244 70.9725 138.72 71.4059 138.506L84.7644 131.914C85.1978 131.7 85.7225 131.878 85.9363 132.311Z" fill="#02514E"/>
<path d="M65.8449 104.171L72.6042 120.663L78.0116 118.23L65.8449 104.171Z" fill="#02514E"/>
<path fill-rule="evenodd" clip-rule="evenodd" d="M65.3445 104.376L66.2538 103.817L78.8956 118.425L72.3159 121.386L65.3445 104.376ZM67.5984 107.023L72.8924 119.941L77.1276 118.035L67.5984 107.023Z" fill="#02514E"/>
<path fill-rule="evenodd" clip-rule="evenodd" d="M176.14 105.894C176.142 105.411 175.753 105.007 175.27 104.992L174.965 104.982C174.482 104.967 174.089 105.346 174.087 105.829C174.061 111.145 169.474 115.89 164.317 115.727C163.834 115.712 163.441 116.091 163.438 116.574C163.436 117.057 163.826 117.461 164.309 117.476C169.465 117.638 174.007 122.679 173.981 127.987C173.979 128.47 174.369 128.874 174.851 128.889L175.156 128.899C175.639 128.914 176.032 128.535 176.034 128.052C176.06 122.702 180.374 117.982 185.5 118.144C185.983 118.159 186.376 117.78 186.378 117.297C186.381 116.814 185.991 116.411 185.508 116.395C180.383 116.234 176.114 111.236 176.14 105.894ZM181.404 117.14C178.448 118.352 176.123 120.921 175.008 123.991C173.862 120.845 171.449 118.131 168.451 116.733C171.462 115.524 173.901 112.964 175.076 109.888C176.162 113.026 178.461 115.741 181.404 117.14Z" fill="#02514E"/>
<path fill-rule="evenodd" clip-rule="evenodd" d="M29.8799 31.3711C29.8822 30.8883 29.4926 30.4845 29.0098 30.4693L28.7053 30.4597C28.2224 30.4445 27.8291 30.8236 27.8269 31.3064C27.8016 36.6221 23.2142 41.3673 18.057 41.2048C17.5741 41.1896 17.1808 41.5687 17.1785 42.0515C17.1762 42.5344 17.5658 42.9381 18.0486 42.9533C23.2055 43.1159 27.7467 48.1562 27.7215 53.4645C27.7192 53.9474 28.1087 54.3511 28.5916 54.3664L28.8961 54.376C29.3789 54.3912 29.7722 54.0121 29.7745 53.5292C29.8 48.1794 34.1143 43.4597 39.2399 43.6212C39.7228 43.6365 40.1161 43.2574 40.1184 42.7745C40.1207 42.2917 39.7311 41.8879 39.2483 41.8727C34.123 41.7112 29.8545 36.7136 29.8799 31.3711ZM35.144 42.6173C32.1878 43.8298 29.8628 46.3981 28.7477 49.4687C27.6024 46.322 25.1893 43.6088 22.1915 42.21C25.2026 41.0015 27.6414 38.4419 28.816 35.3659C29.902 38.5033 32.2012 41.218 35.144 42.6173Z" fill="#02514E"/>
<path fill-rule="evenodd" clip-rule="evenodd" d="M84.2896 54.0753C83.7632 54.0936 83.3514 54.5352 83.3697 55.0616L84.8478 97.5645L124.554 87.8293L123.366 53.6706C123.348 53.1442 122.906 52.7323 122.38 52.7506L84.2896 54.0753ZM126.353 89.1902L83.1737 99.7768L81.6207 55.1224C81.5688 53.6301 82.7365 52.3783 84.2288 52.3264L122.319 51.0017C123.811 50.9498 125.063 52.1175 125.115 53.6098L126.353 89.1902Z" fill="#02514E"/>
<path fill-rule="evenodd" clip-rule="evenodd" d="M110.044 73.848C109.055 72.8063 108.52 71.4143 108.556 69.978C108.593 68.5417 109.199 67.1789 110.241 66.1894C111.282 65.1998 112.675 64.6646 114.111 64.7014C115.547 64.7383 116.91 65.3442 117.899 66.3859C118.889 67.4275 119.424 68.8196 119.387 70.2559C119.351 71.6922 118.745 73.055 117.703 74.0445C116.661 75.0341 115.269 75.5693 113.833 75.5324C112.397 75.4956 111.034 74.8897 110.044 73.848ZM110.306 70.0229C110.281 70.9952 110.643 71.9376 111.313 72.6427C111.983 73.3479 112.906 73.758 113.878 73.783C114.85 73.8079 115.793 73.4456 116.498 72.7757C117.203 72.1059 117.613 71.1833 117.638 70.211C117.663 69.2387 117.301 68.2963 116.631 67.5911C115.961 66.886 115.038 66.4758 114.066 66.4509C113.094 66.4259 112.151 66.7882 111.446 67.4581C110.741 68.128 110.331 69.0506 110.306 70.0229Z" fill="#02514E"/>
<path fill-rule="evenodd" clip-rule="evenodd" d="M108.624 66.6157C108.354 65.9482 108.224 65.2353 108.242 64.518C108.26 63.8008 108.427 63.0954 108.731 62.4426C109.035 61.79 109.47 61.2039 110.009 60.7166C110.547 60.2294 111.179 59.8503 111.867 59.5989C112.556 59.3476 113.288 59.2284 114.023 59.2473C114.759 59.2662 115.484 59.4227 116.159 59.709C116.833 59.9953 117.445 60.4064 117.958 60.9206C118.471 61.4348 118.875 62.0425 119.145 62.7098C119.415 63.3774 119.545 64.0903 119.527 64.8076C119.509 65.5248 119.342 66.2302 119.038 66.8829C118.734 67.5356 118.299 68.1217 117.76 68.609C117.222 69.0962 116.59 69.4753 115.902 69.7267C115.213 69.978 114.481 70.0971 113.746 70.0783C113.01 70.0594 112.285 69.9028 111.61 69.6166C110.936 69.3303 110.324 68.9192 109.811 68.405C109.298 67.8908 108.894 67.2831 108.624 66.6157ZM109.991 64.5629C109.979 65.0382 110.065 65.5126 110.246 65.9592C110.427 66.4059 110.699 66.8174 111.05 67.1692C111.401 67.521 111.824 67.8059 112.294 68.0057C112.765 68.2054 113.273 68.3156 113.79 68.3289C114.307 68.3421 114.821 68.2582 115.301 68.0828C115.782 67.9074 116.218 67.6446 116.586 67.3112C116.955 66.9779 117.248 66.5809 117.452 66.144C117.655 65.7073 117.765 65.238 117.778 64.7627C117.79 64.2873 117.704 63.813 117.523 63.3664C117.342 62.9197 117.07 62.5082 116.719 62.1564C116.368 61.8046 115.945 61.5197 115.475 61.3199C115.004 61.1201 114.496 61.01 113.979 60.9967C113.462 60.9835 112.948 61.0674 112.468 61.2428C111.987 61.4181 111.551 61.681 111.183 62.0144C110.814 62.3477 110.521 62.7447 110.317 63.1815C110.114 63.6183 110.004 64.0876 109.991 64.5629Z" fill="#02514E"/>
<path fill-rule="evenodd" clip-rule="evenodd" d="M134.993 156.031C138.683 153.982 144.075 152.265 150.847 153.592C156.275 154.655 160.459 157.902 163.26 160.827C164.666 162.295 165.738 163.697 166.46 164.733C166.808 165.233 167.076 165.65 167.261 165.949C167.382 165.936 167.519 165.921 167.671 165.907C168.288 165.851 169.151 165.798 170.144 165.813C172.105 165.843 174.669 166.14 176.814 167.286C179.627 168.789 182.105 171.106 183.86 173.013C184.743 173.972 185.454 174.839 185.946 175.468C186.191 175.782 186.383 176.038 186.513 176.216C186.579 176.305 186.629 176.375 186.663 176.423L186.703 176.479L186.714 176.494L186.717 176.498L186.718 176.499C186.718 176.499 186.718 176.5 186 177L186.718 176.499L186 177.875H100L99.2745 176.511L100 177C99.2745 176.511 99.2745 176.511 99.2745 176.511L99.2803 176.502L99.2955 176.48L99.3532 176.396C99.4036 176.322 99.4777 176.216 99.5738 176.079C99.7661 175.805 100.047 175.413 100.402 174.932C101.114 173.972 102.127 172.657 103.339 171.238C105.74 168.425 108.998 165.106 112.264 163.395C116.815 161.011 121.261 160.212 124.565 160.007C126.218 159.904 127.591 159.95 128.554 160.023C128.996 160.056 129.352 160.095 129.611 160.127C129.63 160.107 129.65 160.087 129.67 160.065C129.92 159.804 130.288 159.44 130.77 159.013C131.731 158.16 133.151 157.054 134.993 156.031ZM129.792 161.921L129.791 161.921L129.777 161.918C129.764 161.916 129.743 161.913 129.715 161.908C129.658 161.9 129.57 161.887 129.453 161.871C129.22 161.841 128.871 161.801 128.423 161.768C127.527 161.701 126.236 161.657 124.674 161.754C121.547 161.947 117.355 162.704 113.076 164.945C110.126 166.49 107.05 169.586 104.67 172.374C103.491 173.755 102.502 175.037 101.809 175.974C101.771 176.025 101.734 176.076 101.697 176.125H184.233C183.796 175.583 183.235 174.917 182.573 174.199C180.873 172.353 178.551 170.199 175.989 168.83C174.207 167.878 171.972 167.591 170.117 167.563C169.2 167.549 168.4 167.598 167.831 167.65C167.547 167.676 167.322 167.703 167.169 167.723C167.093 167.733 167.035 167.741 166.997 167.747L166.955 167.753L166.946 167.755L166.945 167.755L166.038 167.315L166.036 167.312L166.026 167.293C166.016 167.277 166.001 167.25 165.98 167.215C165.939 167.144 165.876 167.037 165.791 166.899C165.621 166.623 165.364 166.222 165.024 165.733C164.342 164.754 163.326 163.426 161.996 162.038C159.327 159.25 155.448 156.276 150.51 155.309C144.228 154.078 139.255 155.666 135.842 157.561C134.133 158.51 132.817 159.536 131.931 160.322C131.488 160.715 131.154 161.046 130.934 161.276C130.823 161.391 130.741 161.481 130.688 161.54C130.662 161.57 130.643 161.592 130.631 161.606L130.618 161.62L130.617 161.622L129.792 161.921Z" fill="#02514E"/>
<path fill-rule="evenodd" clip-rule="evenodd" d="M66.6372 17.0589C69.0887 15.6955 72.6734 14.5532 77.1685 15.4351C80.7889 16.1454 83.5664 18.3106 85.4137 20.2425C86.3421 21.2135 87.05 22.1405 87.527 22.8264C87.7 23.0752 87.8431 23.2929 87.9557 23.4704C87.982 23.4678 88.009 23.4652 88.0367 23.4627C88.4467 23.4249 89.0203 23.3897 89.6796 23.3998C90.9754 23.4198 92.7027 23.6154 94.1629 24.3968C96.0385 25.4005 97.6788 26.9402 98.8317 28.1944C99.4131 28.8269 99.8815 29.3988 100.205 29.8138C100.368 30.0216 100.494 30.1906 100.581 30.3089C100.624 30.3681 100.658 30.4147 100.681 30.4472L100.708 30.4851L100.715 30.4958L100.718 30.5001C100.718 30.5001 100.719 30.5008 100 31L100.718 30.5001L100 31.875H44L43.2742 30.5114L44 31C43.2742 30.5114 43.2742 30.5114 43.2742 30.5114L43.2783 30.5052L43.2886 30.4901L43.327 30.4339C43.3604 30.3853 43.4093 30.3147 43.4725 30.2247C43.599 30.0446 43.7831 29.7866 44.0164 29.471C44.4825 28.8405 45.147 27.9771 45.9415 27.045C47.5085 25.2064 49.6619 23.0024 51.8435 21.8578C54.8546 20.278 57.7947 19.7493 59.977 19.6138C61.0695 19.546 61.9771 19.5763 62.6164 19.6244C62.8308 19.6405 63.0153 19.6586 63.1668 19.6758C63.3306 19.5077 63.5533 19.2904 63.833 19.042C64.4724 18.4739 65.4147 17.7388 66.6372 17.0589ZM63.3453 21.4654L63.3391 21.4643L63.302 21.4584C63.2672 21.4529 63.2124 21.4448 63.139 21.4352C62.9922 21.416 62.7708 21.3909 62.4852 21.3694C61.9136 21.3265 61.0868 21.2983 60.0855 21.3604C58.0803 21.485 55.3954 21.9705 52.6566 23.4075C50.7912 24.3861 48.8196 26.3658 47.2734 28.1801C46.6625 28.8969 46.1306 29.5727 45.7126 30.125H98.2023C98.0053 29.8928 97.7848 29.6413 97.5433 29.3787C96.4463 28.1852 94.9615 26.809 93.3372 25.9397C92.2402 25.3527 90.8425 25.1679 89.6526 25.1496C89.069 25.1407 88.5595 25.1719 88.1973 25.2053C88.0166 25.2219 87.8737 25.239 87.7778 25.2516C87.73 25.2579 87.6939 25.2631 87.6709 25.2665L87.6463 25.2703L87.6421 25.2709L86.7346 24.8308L86.7336 24.8298L86.7278 24.8193C86.7221 24.8093 86.7128 24.793 86.6999 24.7709C86.6742 24.7267 86.6343 24.6592 86.5803 24.5715C86.4723 24.3958 86.3085 24.1393 86.0902 23.8255C85.6532 23.197 85.0017 22.3439 84.1488 21.4519C82.4336 19.6581 79.9611 17.7663 76.8316 17.1523C72.8266 16.3666 69.6613 17.3795 67.4878 18.5883C66.3978 19.1945 65.5589 19.8496 64.9952 20.3503C64.7138 20.6003 64.5022 20.8107 64.3636 20.9555C64.2944 21.0279 64.2434 21.0838 64.2112 21.1199C64.1951 21.138 64.1837 21.1511 64.177 21.1588L64.1712 21.1656L63.3453 21.4654Z" fill="#02514E"/>
<path d="M84 94.5V98.5L126 88.5V85.5L106.04 77.2557C104.195 76.4937 102.074 76.9021 100.643 78.2947L84 94.5Z" fill="#02514E"/>
<path d="M84.8025 125.177C85.404 125.841 86.3731 126.023 87.1748 125.624L194 72.4722L65.2387 103.607L78.1615 117.855L84.8025 125.177Z" fill="white"/>
<path d="M48.8797 90.4144L194 72.4722L35.4299 69.9063C33.6982 69.8783 32.7519 71.9149 33.89 73.2203L48.8797 90.4144Z" fill="white"/>
<path d="M65.2387 103.607L53.1014 133.159L78.1615 117.855L65.2387 103.607Z" fill="white"/>
<path fill-rule="evenodd" clip-rule="evenodd" d="M35.4157 70.7812C34.4417 70.7654 33.9094 71.911 34.5495 72.6453L49.2337 89.4889L181.436 73.144L35.4157 70.7812ZM178.921 75.2182L49.8343 91.178L53.6268 129.577L64.4293 103.275C64.5359 103.015 64.7604 102.823 65.0331 102.757L178.921 75.2182ZM54.926 131.019L76.8029 117.66L65.5216 105.222L54.926 131.019ZM66.8772 104.111L85.4506 124.59C85.789 124.963 86.3341 125.065 86.785 124.841L186.659 75.1475L66.8772 104.111ZM77.9997 118.979L84.1543 125.765C85.0191 126.719 86.4122 126.981 87.5646 126.408L194.39 73.2556C194.751 73.0758 194.943 72.6724 194.854 72.2789C194.765 71.8854 194.418 71.6038 194.015 71.5973L35.444 69.0314C32.9548 68.9911 31.5944 71.9187 33.2304 73.7953L48.0364 90.7786L52.2306 133.245C52.2602 133.545 52.4418 133.808 52.7113 133.942C52.9808 134.076 53.3004 134.063 53.5574 133.906L77.9997 118.979Z" fill="#02514E"/>
<path fill-rule="evenodd" clip-rule="evenodd" d="M81.4436 52.3263C79.9513 52.3782 78.7836 53.6301 78.8355 55.1224L80.38 99.5337L123.559 88.9472L122.33 53.6098C122.278 52.1175 121.026 50.9498 119.534 51.0017L81.4436 52.3263Z" fill="#02514E"/>
<path fill-rule="evenodd" clip-rule="evenodd" d="M84.2288 52.3264C82.7365 52.3783 81.5688 53.6301 81.6207 55.1224L83.1736 99.7768L126.352 89.1903L125.115 53.6098C125.063 52.1175 123.811 50.9498 122.319 51.0017L84.2288 52.3264Z" fill="#02514E"/>
<path fill-rule="evenodd" clip-rule="evenodd" d="M4.625 69.8336C4.625 69.3504 5.01675 68.9586 5.5 68.9586H23.022C23.5052 68.9586 23.897 69.3504 23.897 69.8336C23.897 70.3169 23.5052 70.7086 23.022 70.7086H5.5C5.01675 70.7086 4.625 70.3169 4.625 69.8336Z" fill="#02514E"/>
<path fill-rule="evenodd" clip-rule="evenodd" d="M58.6356 107.293C58.7697 107.758 58.5021 108.243 58.0378 108.377L6.2429 123.341C5.77864 123.475 5.29355 123.207 5.15942 122.743C5.02529 122.279 5.29292 121.794 5.75718 121.659L57.5521 106.696C58.0163 106.561 58.5014 106.829 58.6356 107.293Z" fill="#02514E"/>
<path fill-rule="evenodd" clip-rule="evenodd" d="M81.84 128.547C82.0555 128.979 81.8796 129.505 81.447 129.72L42.3548 149.198C41.9223 149.413 41.3969 149.237 41.1814 148.805C40.9659 148.372 41.1418 147.847 41.5744 147.632L80.6666 128.154C81.0991 127.938 81.6245 128.114 81.84 128.547Z" fill="#02514E"/>
<path fill-rule="evenodd" clip-rule="evenodd" d="M42.5488 98.9525C42.6435 99.4264 42.3361 99.8873 41.8623 99.982L15.5752 105.236C15.1014 105.331 14.6404 105.023 14.5457 104.549C14.451 104.076 14.7584 103.615 15.2323 103.52L41.5193 98.266C41.9932 98.1712 42.4541 98.4786 42.5488 98.9525Z" fill="#02514E"/>
<path fill-rule="evenodd" clip-rule="evenodd" d="M85.9363 132.311C86.1501 132.745 85.9722 133.269 85.5388 133.483L72.1803 140.075C71.747 140.289 71.2223 140.111 71.0084 139.678C70.7946 139.244 70.9725 138.72 71.4059 138.506L84.7644 131.914C85.1978 131.7 85.7225 131.878 85.9363 132.311Z" fill="#02514E"/>
<path d="M65.8449 104.171L72.6042 120.663L78.0116 118.23L65.8449 104.171Z" fill="#02514E"/>
<path fill-rule="evenodd" clip-rule="evenodd" d="M65.3445 104.376L66.2538 103.817L78.8956 118.425L72.3159 121.386L65.3445 104.376ZM67.5984 107.023L72.8924 119.941L77.1276 118.035L67.5984 107.023Z" fill="#02514E"/>
<path fill-rule="evenodd" clip-rule="evenodd" d="M176.14 105.894C176.142 105.411 175.753 105.007 175.27 104.992L174.965 104.982C174.482 104.967 174.089 105.346 174.087 105.829C174.061 111.145 169.474 115.89 164.317 115.727C163.834 115.712 163.441 116.091 163.438 116.574C163.436 117.057 163.826 117.461 164.309 117.476C169.465 117.638 174.007 122.679 173.981 127.987C173.979 128.47 174.369 128.874 174.851 128.889L175.156 128.899C175.639 128.914 176.032 128.535 176.034 128.052C176.06 122.702 180.374 117.982 185.5 118.144C185.983 118.159 186.376 117.78 186.378 117.297C186.381 116.814 185.991 116.411 185.508 116.395C180.383 116.234 176.114 111.236 176.14 105.894ZM181.404 117.14C178.448 118.352 176.123 120.921 175.008 123.991C173.862 120.845 171.449 118.131 168.451 116.733C171.462 115.524 173.901 112.964 175.076 109.888C176.162 113.026 178.461 115.741 181.404 117.14Z" fill="#02514E"/>
<path fill-rule="evenodd" clip-rule="evenodd" d="M29.8799 31.3711C29.8822 30.8883 29.4926 30.4845 29.0098 30.4693L28.7053 30.4597C28.2224 30.4445 27.8291 30.8236 27.8269 31.3064C27.8016 36.6221 23.2142 41.3673 18.057 41.2048C17.5741 41.1896 17.1808 41.5687 17.1785 42.0515C17.1762 42.5344 17.5658 42.9381 18.0486 42.9533C23.2055 43.1159 27.7467 48.1562 27.7215 53.4645C27.7192 53.9474 28.1087 54.3511 28.5916 54.3664L28.8961 54.376C29.3789 54.3912 29.7722 54.0121 29.7745 53.5292C29.8 48.1794 34.1143 43.4597 39.2399 43.6212C39.7228 43.6365 40.1161 43.2574 40.1184 42.7745C40.1207 42.2917 39.7311 41.8879 39.2483 41.8727C34.123 41.7112 29.8545 36.7136 29.8799 31.3711ZM35.144 42.6173C32.1878 43.8298 29.8628 46.3981 28.7477 49.4687C27.6024 46.322 25.1893 43.6088 22.1915 42.21C25.2026 41.0015 27.6414 38.4419 28.816 35.3659C29.902 38.5033 32.2012 41.218 35.144 42.6173Z" fill="#02514E"/>
<path fill-rule="evenodd" clip-rule="evenodd" d="M84.2896 54.0753C83.7632 54.0936 83.3514 54.5352 83.3697 55.0616L84.8478 97.5645L124.554 87.8293L123.366 53.6706C123.348 53.1442 122.906 52.7323 122.38 52.7506L84.2896 54.0753ZM126.353 89.1902L83.1737 99.7768L81.6207 55.1224C81.5688 53.6301 82.7365 52.3783 84.2288 52.3264L122.319 51.0017C123.811 50.9498 125.063 52.1175 125.115 53.6098L126.353 89.1902Z" fill="#02514E"/>
<path fill-rule="evenodd" clip-rule="evenodd" d="M134.993 156.031C138.683 153.982 144.075 152.265 150.847 153.592C156.275 154.655 160.459 157.902 163.26 160.827C164.666 162.295 165.738 163.697 166.46 164.733C166.808 165.233 167.076 165.65 167.261 165.949C167.382 165.936 167.519 165.921 167.671 165.907C168.288 165.851 169.151 165.798 170.144 165.813C172.105 165.843 174.669 166.14 176.814 167.286C179.627 168.789 182.105 171.106 183.86 173.013C184.743 173.972 185.454 174.839 185.946 175.468C186.191 175.782 186.383 176.038 186.513 176.216C186.579 176.305 186.629 176.375 186.663 176.423L186.703 176.479L186.714 176.494L186.717 176.498L186.718 176.499C186.718 176.499 186.718 176.5 186 177L186.718 176.499L186 177.875H100L99.2745 176.511L100 177C99.2745 176.511 99.2745 176.511 99.2745 176.511L99.2803 176.502L99.2955 176.48L99.3532 176.396C99.4036 176.322 99.4777 176.216 99.5738 176.079C99.7661 175.805 100.047 175.413 100.402 174.932C101.114 173.972 102.127 172.657 103.339 171.238C105.74 168.425 108.998 165.106 112.264 163.395C116.815 161.011 121.261 160.212 124.565 160.007C126.218 159.904 127.591 159.95 128.554 160.023C128.996 160.056 129.352 160.095 129.611 160.127C129.63 160.107 129.65 160.087 129.67 160.065C129.92 159.804 130.288 159.44 130.77 159.013C131.731 158.16 133.151 157.054 134.993 156.031ZM129.792 161.921L129.791 161.921L129.777 161.918C129.764 161.916 129.743 161.913 129.715 161.908C129.658 161.9 129.57 161.887 129.453 161.871C129.22 161.841 128.871 161.801 128.423 161.768C127.527 161.701 126.236 161.657 124.674 161.754C121.547 161.947 117.355 162.704 113.076 164.945C110.126 166.49 107.05 169.586 104.67 172.374C103.491 173.755 102.502 175.037 101.809 175.974C101.771 176.025 101.734 176.076 101.697 176.125H184.233C183.796 175.583 183.235 174.917 182.573 174.199C180.873 172.353 178.551 170.199 175.989 168.83C174.207 167.878 171.972 167.591 170.117 167.563C169.2 167.549 168.4 167.598 167.831 167.65C167.547 167.676 167.322 167.703 167.169 167.723C167.093 167.733 167.035 167.741 166.997 167.747L166.955 167.753L166.946 167.755L166.945 167.755L166.038 167.315L166.036 167.312L166.026 167.293C166.016 167.277 166.001 167.25 165.98 167.215C165.939 167.144 165.876 167.037 165.791 166.899C165.621 166.623 165.364 166.222 165.024 165.733C164.342 164.754 163.326 163.426 161.996 162.038C159.327 159.25 155.448 156.276 150.51 155.309C144.228 154.078 139.255 155.666 135.842 157.561C134.133 158.51 132.817 159.536 131.931 160.322C131.488 160.715 131.154 161.046 130.934 161.276C130.823 161.391 130.741 161.481 130.688 161.54C130.662 161.57 130.643 161.592 130.631 161.606L130.618 161.62L130.617 161.622L129.792 161.921Z" fill="#02514E"/>
<path fill-rule="evenodd" clip-rule="evenodd" d="M66.6372 17.0589C69.0887 15.6955 72.6734 14.5532 77.1685 15.4351C80.7889 16.1454 83.5664 18.3106 85.4137 20.2425C86.3421 21.2135 87.05 22.1405 87.527 22.8264C87.7 23.0752 87.8431 23.2929 87.9557 23.4704C87.982 23.4678 88.009 23.4652 88.0367 23.4627C88.4467 23.4249 89.0203 23.3897 89.6796 23.3998C90.9754 23.4198 92.7027 23.6154 94.1629 24.3968C96.0385 25.4005 97.6788 26.9402 98.8317 28.1944C99.4131 28.8269 99.8815 29.3988 100.205 29.8138C100.368 30.0216 100.494 30.1906 100.581 30.3089C100.624 30.3681 100.658 30.4147 100.681 30.4472L100.708 30.4851L100.715 30.4958L100.718 30.5001C100.718 30.5001 100.719 30.5008 100 31L100.718 30.5001L100 31.875H44L43.2742 30.5114L44 31C43.2742 30.5114 43.2742 30.5114 43.2742 30.5114L43.2783 30.5052L43.2886 30.4901L43.327 30.4339C43.3604 30.3853 43.4093 30.3147 43.4725 30.2247C43.599 30.0446 43.7831 29.7866 44.0164 29.471C44.4825 28.8405 45.147 27.9771 45.9415 27.045C47.5085 25.2064 49.6619 23.0024 51.8435 21.8578C54.8546 20.278 57.7947 19.7493 59.977 19.6138C61.0695 19.546 61.9771 19.5763 62.6164 19.6244C62.8308 19.6405 63.0153 19.6586 63.1668 19.6758C63.3306 19.5077 63.5533 19.2904 63.833 19.042C64.4724 18.4739 65.4147 17.7388 66.6372 17.0589ZM63.3453 21.4654L63.3391 21.4643L63.302 21.4584C63.2672 21.4529 63.2124 21.4448 63.139 21.4352C62.9922 21.416 62.7708 21.3909 62.4852 21.3694C61.9136 21.3265 61.0868 21.2983 60.0855 21.3604C58.0803 21.485 55.3954 21.9705 52.6566 23.4075C50.7912 24.3861 48.8196 26.3658 47.2734 28.1801C46.6625 28.8969 46.1306 29.5727 45.7126 30.125H98.2023C98.0053 29.8928 97.7848 29.6413 97.5433 29.3787C96.4463 28.1852 94.9615 26.809 93.3372 25.9397C92.2402 25.3527 90.8425 25.1679 89.6526 25.1496C89.069 25.1407 88.5595 25.1719 88.1973 25.2053C88.0166 25.2219 87.8737 25.239 87.7778 25.2516C87.73 25.2579 87.6939 25.2631 87.6709 25.2665L87.6463 25.2703L87.6421 25.2709L86.7346 24.8308L86.7336 24.8298L86.7278 24.8193C86.7221 24.8093 86.7128 24.793 86.6999 24.7709C86.6742 24.7267 86.6343 24.6592 86.5803 24.5715C86.4723 24.3958 86.3085 24.1393 86.0902 23.8255C85.6532 23.197 85.0017 22.3439 84.1488 21.4519C82.4336 19.6581 79.9611 17.7663 76.8316 17.1523C72.8266 16.3666 69.6613 17.3795 67.4878 18.5883C66.3978 19.1945 65.5589 19.8496 64.9952 20.3503C64.7138 20.6003 64.5022 20.8107 64.3636 20.9555C64.2944 21.0279 64.2434 21.0838 64.2112 21.1199C64.1951 21.138 64.1837 21.1511 64.177 21.1588L64.1712 21.1656L63.3453 21.4654Z" fill="#02514E"/>
<path d="M84 94.5V98.5L126 88.5V85.5L106.04 77.2557C104.195 76.4937 102.074 76.9021 100.643 78.2947L84 94.5Z" fill="#02514E"/>
<path fill-rule="evenodd" clip-rule="evenodd" d="M84.2896 54.0753C83.7632 54.0936 83.3514 54.5352 83.3697 55.0616L84.8478 97.5645L124.554 87.8293L123.366 53.6706C123.348 53.1442 122.906 52.7323 122.38 52.7506L84.2896 54.0753ZM126.353 89.1902L83.1737 99.7768L81.6207 55.1224C81.5688 53.6301 82.7365 52.3783 84.2288 52.3264L122.319 51.0017C123.811 50.9498 125.063 52.1175 125.115 53.6098L126.353 89.1902Z" fill="#2A8981"/>
<path d="M84 94.5V98.5L126 88.5V85.5L106.04 77.2557C104.195 76.4937 102.074 76.9021 100.643 78.2947L84 94.5Z" fill="#2A8981"/>
<path d="M110.009 60.7166C109.47 61.2039 109.035 61.79 108.731 62.4426C108.693 62.5242 108.657 62.6066 108.623 62.6898C108.388 63.2719 108.258 63.8904 108.242 64.518C108.241 64.5408 108.241 64.5636 108.241 64.5864C108.24 64.6084 108.24 64.6304 108.24 64.6524C108.24 65.3242 108.371 65.9899 108.624 66.6157C108.638 66.6494 108.651 66.6829 108.666 66.7162L108.676 66.7401C108.81 67.0489 108.974 67.3441 109.163 67.6223C109.438 67.093 109.8 66.6078 110.241 66.1894L110.271 66.1614C110.285 66.1473 110.301 66.1334 110.316 66.1196C110.305 66.0965 110.295 66.0733 110.284 66.05C110.271 66.0199 110.258 65.9896 110.246 65.9592C110.065 65.5126 109.979 65.0382 109.991 64.5629C110.004 64.0876 110.114 63.6183 110.317 63.1815C110.521 62.7447 110.814 62.3477 111.183 62.0144C111.229 61.9727 111.276 61.9321 111.324 61.8927C111.661 61.6166 112.047 61.3962 112.468 61.2428C112.528 61.2209 112.588 61.2003 112.649 61.1813C113.076 61.0479 113.526 60.9851 113.979 60.9967C114.011 60.9976 114.043 60.9987 114.075 61.0003C114.559 61.0241 115.034 61.1326 115.475 61.3199C115.504 61.3324 115.533 61.3452 115.562 61.3583C115.998 61.5555 116.39 61.8266 116.719 62.1564C116.763 62.2004 116.805 62.2452 116.847 62.291C117.136 62.6115 117.365 62.9755 117.523 63.3664C117.53 63.383 117.536 63.3997 117.543 63.4163L117.553 63.444C117.559 63.4604 117.565 63.4768 117.571 63.4933L117.586 63.5351C117.724 63.9316 117.788 64.3468 117.778 64.7627C117.777 64.7924 117.776 64.822 117.774 64.8517C117.754 65.2497 117.664 65.6422 117.509 66.0138C117.645 66.1307 117.775 66.2549 117.899 66.3859C118.217 66.7201 118.488 67.0903 118.708 67.4866L118.715 67.4743C118.835 67.2843 118.943 67.0869 119.038 66.8829C119.342 66.2302 119.509 65.5248 119.527 64.8076C119.545 64.0903 119.415 63.3774 119.145 62.7098C118.875 62.0425 118.471 61.4348 117.958 60.9206C117.445 60.4064 116.833 59.9953 116.159 59.709C115.484 59.4227 114.759 59.2662 114.023 59.2473C113.288 59.2284 112.556 59.3476 111.867 59.5989C111.179 59.8503 110.547 60.2294 110.009 60.7166Z" fill="#2A8981"/>
<path d="M116.586 67.3112C116.955 66.9779 117.248 66.5809 117.452 66.144C117.472 66.1009 117.491 66.0575 117.509 66.0138C116.566 65.2008 115.367 64.7337 114.111 64.7014C112.709 64.6654 111.349 65.1747 110.316 66.1196C110.494 66.5045 110.742 66.86 111.05 67.1692C111.164 67.2832 111.285 67.3903 111.413 67.4897L111.446 67.4581C112.107 66.8301 112.977 66.4724 113.884 66.4507C113.945 66.4493 114.005 66.4493 114.066 66.4509C114.958 66.4737 115.807 66.8205 116.459 67.4216C116.502 67.3857 116.545 67.3489 116.586 67.3112Z" fill="#2A8981"/>
<path d="M117.452 66.144C117.248 66.5809 116.955 66.9779 116.586 67.3112C116.545 67.3489 116.502 67.3857 116.459 67.4216C116.518 67.4761 116.575 67.5326 116.631 67.5911C116.987 67.9665 117.257 68.4091 117.427 68.8877C117.542 68.7992 117.653 68.7063 117.76 68.609C118.127 68.2773 118.446 67.8997 118.708 67.4866C118.488 67.0903 118.217 66.7201 117.899 66.3859C117.775 66.2549 117.645 66.1307 117.509 66.0138C117.491 66.0575 117.472 66.1009 117.452 66.144Z" fill="#2A8981"/>
<path d="M117.703 74.0445C118.745 73.055 119.351 71.6922 119.387 70.2559C119.412 69.2804 119.174 68.3253 118.708 67.4866C118.446 67.8997 118.127 68.2773 117.76 68.609C117.653 68.7063 117.542 68.7992 117.427 68.8877C117.567 69.2819 117.64 69.7004 117.639 70.1258L117.639 70.1717L117.638 70.211C117.613 71.1833 117.203 72.1059 116.498 72.7757L116.489 72.7838C115.785 73.4485 114.846 73.8078 113.878 73.783C112.906 73.758 111.983 73.3479 111.313 72.6427C110.643 71.9376 110.281 70.9952 110.306 70.0229C110.315 69.6654 110.376 69.3147 110.485 68.9808C110.246 68.807 110.02 68.6146 109.811 68.405C109.747 68.3408 109.685 68.275 109.624 68.2079C109.457 68.0228 109.303 67.8272 109.163 67.6223C108.812 68.2995 108.605 69.0488 108.563 69.8229C108.56 69.8745 108.558 69.9262 108.556 69.978C108.524 71.2347 108.93 72.4576 109.695 73.4416C109.804 73.5821 109.921 73.7178 110.044 73.848C110.972 74.8246 112.228 75.4181 113.565 75.5189C113.654 75.5256 113.743 75.5301 113.833 75.5324C115.09 75.5647 116.313 75.1589 117.297 74.3941C117.437 74.2848 117.573 74.1682 117.703 74.0445Z" fill="#2A8981"/>
<path d="M111.413 67.4897C111.285 67.3903 111.164 67.2832 111.05 67.1692C110.742 66.86 110.494 66.5045 110.316 66.1196C110.301 66.1334 110.285 66.1473 110.271 66.1614L110.241 66.1894C109.8 66.6078 109.438 67.093 109.163 67.6223C109.303 67.8272 109.457 68.0228 109.624 68.2079C109.685 68.275 109.747 68.3408 109.811 68.405C110.02 68.6146 110.246 68.807 110.485 68.9808C110.626 68.5483 110.847 68.144 111.138 67.7899C111.157 67.7659 111.177 67.7421 111.198 67.7186C111.256 67.6509 111.317 67.5852 111.381 67.5217L111.413 67.4897Z" fill="#2A8981"/>
<path d="M113.79 68.3289C113.273 68.3156 112.765 68.2054 112.294 68.0057C111.976 67.8707 111.68 67.6968 111.413 67.4897L111.381 67.5217C111.317 67.5852 111.256 67.6509 111.198 67.7186C111.177 67.7421 111.157 67.7659 111.138 67.7899C110.847 68.144 110.626 68.5483 110.485 68.9808C110.503 68.9936 110.52 69.0062 110.538 69.0188C110.871 69.255 111.231 69.4555 111.61 69.6166C111.695 69.6523 111.78 69.6861 111.866 69.7178C112.466 69.9398 113.102 70.0618 113.746 70.0783L113.784 70.0791L113.829 70.0798L113.883 70.0802C114.572 70.0817 115.256 69.9623 115.902 69.7267C115.922 69.7193 115.942 69.7118 115.962 69.7042C115.985 69.6956 116.007 69.6869 116.03 69.678C116.462 69.5086 116.87 69.2882 117.245 69.022C117.307 68.9785 117.367 68.9337 117.427 68.8877C117.257 68.4091 116.987 67.9665 116.631 67.5911C116.575 67.5326 116.518 67.4761 116.459 67.4216L116.445 67.4329C116.108 67.7089 115.722 67.9294 115.301 68.0828C114.821 68.2582 114.307 68.3421 113.79 68.3289Z" fill="#2A8981"/>
<path fill-rule="evenodd" clip-rule="evenodd" d="M87.1748 125.624L194 72.4722L65.2387 103.607L78.1615 117.855L84.8025 125.177C85.404 125.841 86.3731 126.023 87.1748 125.624ZM85.4506 124.59C85.789 124.963 86.3341 125.065 86.785 124.841L186.659 75.1475L66.8772 104.111L85.4506 124.59Z" fill="#02514E"/>
<path d="M65.2387 103.607L194 72.4722L178.921 75.2182L65.0331 102.757C64.7604 102.823 64.5359 103.015 64.4293 103.275L53.6268 129.577L53.1014 133.159L65.2387 103.607Z" fill="#02514E"/>
</svg>
