<svg width="200" height="200" viewBox="0 0 200 200" fill="none" xmlns="http://www.w3.org/2000/svg">
<path d="M129.833 52.6406C129.046 56.3469 127.562 59.7957 125.525 62.8437H76.4614C74.4692 59.8623 73.006 56.4974 72.2061 52.8832C62.6746 55.1784 56.6425 58.5724 56.6425 62.3592L56.6435 74.8758C56.6435 81.7885 76.7442 87.3924 101.54 87.3924C126.335 87.3924 146.436 81.7885 146.436 74.8758L146.435 62.3592C146.435 58.4367 139.963 54.9356 129.833 52.6406Z" fill="#EA6516"/>
<path fill-rule="evenodd" clip-rule="evenodd" d="M125.525 62.8438C128.653 58.1627 130.477 52.5362 130.477 46.4837C130.477 30.2003 117.277 17 100.993 17C84.71 17 71.5097 30.2003 71.5097 46.4837C71.5097 52.5362 73.3334 58.1627 76.4614 62.8438H125.525Z" fill="#ABD6C0"/>
<path d="M59.0409 135.844C59.0409 132.53 61.8994 129.844 65.4255 129.844H135.656C139.182 129.844 142.041 132.53 142.041 135.844C142.041 139.157 139.182 141.844 135.656 141.844H65.4255C61.8994 141.844 59.0409 139.157 59.0409 135.844Z" fill="#ABD6C0"/>
<path d="M64.0409 147.844C64.0409 144.53 66.8994 141.844 70.4255 141.844H140.656C144.182 141.844 147.041 144.53 147.041 147.844C147.041 151.157 144.182 153.844 140.656 153.844H70.4255C66.8994 153.844 64.0409 151.157 64.0409 147.844Z" fill="#ABD6C0"/>
<path d="M57.0409 159.844C57.0409 156.53 59.8994 153.844 63.4255 153.844H133.656C137.182 153.844 140.041 156.53 140.041 159.844C140.041 163.157 137.182 165.844 133.656 165.844H63.4255C59.8994 165.844 57.0409 163.157 57.0409 159.844Z" fill="#ABD6C0"/>
<path d="M51.5044 171.311C41.8602 172.533 36.0409 174.115 36.0409 175.844C36.0409 179.71 65.1424 182.844 101.041 182.844C136.939 182.844 166.041 179.71 166.041 175.844C166.041 174.143 160.408 172.584 151.043 171.371C147.314 174.846 142.312 176.972 136.813 176.972H65.7972C60.2672 176.972 55.2394 174.821 51.5044 171.311Z" fill="#02514E"/>
<path d="M59.1572 79.0156C59.0269 79.0591 58.8934 79.1056 58.7568 79.1551C56.5791 79.9438 53.6186 81.5036 50.3658 84.5799C47.2224 87.5528 45.858 90.8491 45.2836 93.4051C44.9968 94.6811 44.9065 95.7733 44.8884 96.5523C44.8793 96.942 44.8883 97.2544 44.9 97.4734C44.9059 97.5829 44.9124 97.6691 44.9178 97.7301L44.9222 97.7776V156.097C44.9222 167.626 54.2682 176.972 65.7972 176.972H136.813C148.342 176.972 157.688 167.626 157.688 156.097V97.7716C157.689 97.7636 157.69 97.7547 157.691 97.7449C157.691 97.738 157.692 97.7306 157.692 97.7227C157.696 97.665 157.701 97.5838 157.705 97.481C157.712 97.2753 157.714 96.9823 157.696 96.6144C157.661 95.8788 157.546 94.8422 157.231 93.6051C156.6 91.1257 155.17 87.8552 151.998 84.6045C149.023 81.5568 146.7 79.9944 145.079 79.1933C144.753 79.0326 144.457 78.9026 144.188 78.7974C143.659 79.2448 143.042 79.681 142.343 80.1045H142.378C142.386 80.105 142.405 80.1064 142.434 80.1099C142.496 80.1174 142.608 80.1346 142.767 80.1733C143.086 80.2507 143.6 80.4148 144.304 80.7622C145.711 81.4576 147.878 82.8884 150.745 85.8268C153.68 88.8344 154.971 91.8222 155.535 94.0365C155.817 95.1462 155.917 96.0653 155.948 96.6987C155.963 97.0154 155.961 97.2602 155.956 97.4212C155.953 97.5016 155.949 97.5611 155.947 97.598L155.945 97.6162L155.943 97.6397L155.943 97.6424L155.938 97.6858V156.097C155.938 166.659 147.376 175.222 136.813 175.222H65.7972C55.2347 175.222 46.6722 166.659 46.6722 156.097V97.6803L46.666 97.6287L46.6653 97.6222C46.6644 97.6136 46.663 97.5986 46.6611 97.5775C46.6574 97.5353 46.6523 97.4688 46.6475 97.3798C46.638 97.2017 46.63 96.9343 46.6379 96.593C46.6538 95.9096 46.7336 94.9342 46.991 93.7888C47.505 91.5018 48.7256 88.5398 51.5683 85.8514C54.6451 82.9415 57.3987 81.5082 59.3527 80.8005C60.0206 80.5585 60.5969 80.4007 61.0629 80.2978C60.3461 79.8826 59.709 79.4546 59.1572 79.0156Z" fill="#02514E"/>
<path d="M70.0409 62.8438H132.041V64.8438H70.0409V62.8438Z" fill="#02514E"/>
<path fill-rule="evenodd" clip-rule="evenodd" d="M100.993 21.3438C87.109 21.3438 75.8534 32.5993 75.8534 46.4838C75.8534 52.471 77.9453 57.9672 81.4388 62.285L82.7075 63.7769L81.3744 64.9106L80.0919 63.4026L80.0853 63.3944C76.3448 58.7752 74.1034 52.89 74.1034 46.4838C74.1034 31.6328 86.1425 19.5938 100.993 19.5938C115.844 19.5938 127.883 31.6328 127.883 46.4838C127.883 52.8879 125.644 58.7713 121.905 63.3898L120.729 64.8849L119.353 63.8026L120.541 62.293C124.039 57.9741 126.133 52.4747 126.133 46.4838C126.133 32.5993 114.878 21.3438 100.993 21.3438Z" fill="#02514E"/>
<path fill-rule="evenodd" clip-rule="evenodd" d="M99.5843 35.2927L99.571 27.5985L101.305 27.5955L101.319 35.273C103.674 35.2941 105.949 35.4976 107.694 35.7059C108.679 35.8236 109.499 35.9432 110.074 36.0337C110.361 36.079 110.588 36.117 110.743 36.1438C110.821 36.1572 110.881 36.1678 110.922 36.1752L110.969 36.1837L110.986 36.1868C110.986 36.1868 110.986 36.1869 110.828 37.0395L110.669 37.892L110.657 37.8897L110.615 37.8822C110.578 37.8755 110.522 37.8656 110.448 37.8528C110.301 37.8274 110.083 37.7908 109.804 37.747C109.247 37.6593 108.449 37.5427 107.488 37.428C105.563 37.1982 103.004 36.9778 100.437 37.0083C97.8527 37.0391 95.3422 37.3244 93.4722 38.0574C91.6198 38.7836 90.5734 39.8626 90.4636 41.4413C90.3844 42.5792 90.6238 43.3474 91.02 43.8957C91.4242 44.455 92.0628 44.8839 92.9567 45.2038C94.7905 45.8599 97.3622 45.9504 100.179 46.0315C100.236 46.0331 100.294 46.0348 100.351 46.0364C103.029 46.1131 105.902 46.1955 108.148 46.9138C109.313 47.2863 110.378 47.8492 111.174 48.7285C111.983 49.6219 112.457 50.778 112.537 52.2211C112.605 53.4517 112.251 54.4992 111.562 55.3488C110.889 56.1789 109.935 56.7723 108.868 57.2007C106.858 58.0073 104.24 58.3082 101.666 58.365L101.666 64.3439H99.931V58.369C97.649 58.3319 95.4426 58.1399 93.7238 57.9434C92.6993 57.8262 91.844 57.7071 91.2436 57.617C90.9434 57.5719 90.7067 57.5341 90.5443 57.5074C90.4632 57.4941 90.4005 57.4835 90.3578 57.4762L90.3088 57.4678L90.2958 57.4655L90.2912 57.4647C90.2912 57.4647 90.2906 57.4646 90.4416 56.6107L90.5924 55.7568L90.5952 55.7573L90.6057 55.7591L90.6497 55.7667C90.689 55.7734 90.748 55.7833 90.8255 55.7961C90.9805 55.8215 91.2093 55.8581 91.501 55.9018C92.0846 55.9894 92.9196 56.1058 93.9208 56.2202C95.9268 56.4496 98.5835 56.6693 101.216 56.6381C103.869 56.6066 106.406 56.32 108.222 55.5911C109.123 55.2293 109.789 54.7811 110.215 54.2562C110.625 53.7508 110.85 53.1299 110.805 52.317C110.744 51.2219 110.4 50.4574 109.889 49.8927C109.365 49.314 108.607 48.8814 107.62 48.5657C105.61 47.923 102.941 47.846 100.129 47.7651L100.106 47.7644C97.3914 47.6863 94.5158 47.6036 92.3724 46.8367C91.2748 46.444 90.2902 45.8468 89.6143 44.9115C88.9305 43.9652 88.6326 42.7701 88.7334 41.321C88.9082 38.8076 90.6578 37.2979 92.8392 36.4427C94.7776 35.6828 97.1952 35.372 99.5843 35.2927Z" fill="#02514E"/>
<path fill-rule="evenodd" clip-rule="evenodd" d="M70.0412 141.844V129.844H71.7928V141.844H70.0412ZM81.5087 141.844V129.844H83.2604V141.844H81.5087ZM93.6132 141.844V129.844H95.3648V141.844H93.6132ZM105.718 141.844V129.844H107.469V141.844H105.718ZM117.822 141.844V129.844H119.574V141.844H117.822ZM129.29 141.844V129.844H131.041V141.844H129.29Z" fill="#02514E"/>
<path fill-rule="evenodd" clip-rule="evenodd" d="M63.3756 141.528C62.3224 141.192 61.3926 140.606 60.6669 139.844H140.415C139.494 140.812 138.242 141.497 136.827 141.743C136.427 141.808 135.999 141.844 135.541 141.844H65.5412C64.6282 141.742 63.9253 141.638 63.3756 141.528Z" fill="#02514E"/>
<path fill-rule="evenodd" clip-rule="evenodd" d="M75.0412 153.844V141.844H76.7928V153.844H75.0412ZM86.5087 153.844V141.844H88.2604V153.844H86.5087ZM98.6132 153.844V141.844H100.365V153.844H98.6132ZM110.718 153.844V141.844H112.469V153.844H110.718ZM122.822 153.844V141.844H124.574V153.844H122.822ZM134.29 153.844V141.844H136.041V153.844H134.29Z" fill="#02514E"/>
<path fill-rule="evenodd" clip-rule="evenodd" d="M68.3756 153.528C67.3224 153.192 66.3926 152.606 65.6669 151.844H145.415C144.494 152.812 143.242 153.497 141.827 153.743C141.427 153.808 140.999 153.844 140.541 153.844H70.5412C69.6282 153.742 68.9253 153.638 68.3756 153.528Z" fill="#02514E"/>
<path fill-rule="evenodd" clip-rule="evenodd" d="M68.0412 165.844V153.844H69.7928V165.844H68.0412ZM79.5087 165.844V153.844H81.2604V165.844H79.5087ZM91.6132 165.844V153.844H93.3648V165.844H91.6132ZM103.718 165.844V153.844H105.469V165.844H103.718ZM115.822 165.844V153.844H117.574V165.844H115.822ZM127.29 165.844V153.844H129.041V165.844H127.29Z" fill="#02514E"/>
<path fill-rule="evenodd" clip-rule="evenodd" d="M61.3756 165.528C60.3224 165.192 59.3926 164.606 58.6669 163.844H138.415C137.494 164.812 136.242 165.497 134.827 165.743C134.427 165.808 133.999 165.844 133.541 165.844H63.5412C62.6282 165.742 61.9253 165.638 61.3756 165.528Z" fill="#02514E"/>
<path fill-rule="evenodd" clip-rule="evenodd" d="M56.5409 65.8879C62.2671 71.0733 80.2922 74.8594 101.642 74.8594C122.746 74.8594 140.602 71.16 146.541 66.0665V63.4598C146.149 64.11 145.383 64.8845 144.017 65.7435C141.851 67.1057 138.6 68.3971 134.426 69.507C126.106 71.7199 114.514 73.1094 101.642 73.1094C88.7703 73.1094 77.1786 71.7199 68.858 69.507C64.6849 68.3971 61.4337 67.1057 59.2673 65.7435C57.6082 64.7003 56.8342 63.7815 56.5409 63.0589V65.8879Z" fill="#02514E"/>
<path d="M178.99 55.6621C172.607 55.6621 168.623 62.5056 168.623 69.9995H168.356C168.356 62.5056 164.372 55.6621 157.99 55.6621V55.3369C164.372 55.3369 168.356 48.4934 168.356 40.9995H168.623C168.623 48.4934 172.607 55.3369 178.99 55.3369M25.6564 136.5V158.5M15.6564 147.5H35.6564M61.9889 16V30M55.9889 23H67.9889M24.0892 38.7403C30.4469 38.9407 35.8936 48.1388 35.8474 57.8542L36.1879 57.8649C36.2341 48.1365 41.4262 39.2867 47.7839 39.4871C41.4262 39.2867 36.3199 30.0993 36.3661 20.3839L36.0257 20.3732C35.9794 30.1016 30.4469 38.9407 24.0892 38.7403ZM147.082 118.544C152.671 118.721 156.477 128.719 156.437 137C156.477 128.708 159.431 118.368 165.02 118.544C159.431 118.368 156.398 110.781 156.437 102.5C156.398 110.792 152.671 118.721 147.082 118.544ZM174.623 89.9995C174.623 91.6564 173.28 92.9995 171.623 92.9995C169.966 92.9995 168.623 91.6564 168.623 89.9995C168.623 88.3427 169.966 86.9995 171.623 86.9995C173.28 86.9995 174.623 88.3427 174.623 89.9995ZM31.6565 81.5C31.6565 83.1569 30.3134 84.5 28.6565 84.5C26.9997 84.5 25.6565 83.1569 25.6565 81.5C25.6565 79.8431 26.9997 78.5 28.6565 78.5C30.3134 78.5 31.6565 79.8431 31.6565 81.5Z" stroke="#02514E" stroke-width="1.75" stroke-linecap="round" stroke-linejoin="round"/>
</svg>
