<svg width="200" height="200" viewBox="0 0 200 200" fill="none" xmlns="http://www.w3.org/2000/svg">
<path d="M60.2333 153.127C60.2333 153.127 80.8616 139.431 87.7489 125.529C94.3489 112.206 95.85 87.6092 90.9927 85.3085C86.1355 83.0079 70.5291 72.1778 70.5291 72.1778C60.3303 63.0966 57.7772 50.7604 57.7772 50.7604C57.7772 50.7604 74.6308 33.0394 104.391 57.5241C114.062 65.4803 138.694 50.7053 138.694 50.7053C138.694 50.7053 136.353 63.5363 123.74 72.8771C119.88 77.3 111.149 80.5404 104.017 86.0388C96.1894 92.073 99.2643 117.956 106.664 132.488C113.018 144.964 131.362 154.062 131.362 154.062L60.2333 153.127Z" fill="#ABD6C0"/>
<path d="M126.317 128.359C132.449 128.664 137.629 135.619 137.505 142.821L137.833 142.838C137.958 135.625 144.588 128.374 150.721 128.68C144.588 128.374 138.188 122.253 138.312 115.051L137.984 115.034C137.86 122.247 132.449 128.664 126.317 128.359Z" fill="#EA6516"/>
<path d="M33.0373 79.6307C37.3668 79.8462 41.0238 84.7561 40.9361 89.841L41.1679 89.8526C41.2557 84.7608 45.9368 79.6416 50.2663 79.8572C45.9368 79.6416 41.4184 75.3203 41.506 70.2353L41.2742 70.2238C41.1865 75.3155 37.3668 79.8462 33.0373 79.6307Z" fill="#EA6516"/>
<path fill-rule="evenodd" clip-rule="evenodd" d="M48.2342 37.5599C48.2342 37.5599 48.2341 37.559 49.2016 37.5463C50.169 37.5336 50.169 37.5331 50.169 37.5331L50.169 37.5346L50.1692 37.5434L50.1701 37.584C50.171 37.6212 50.1727 37.6786 50.1756 37.7553C50.1813 37.9087 50.192 38.1393 50.2114 38.4408C50.2502 39.0439 50.3241 39.9298 50.4641 41.0471C50.7442 43.2823 51.2885 46.4391 52.3441 50.1062C54.4563 57.4437 58.6067 66.7926 66.7561 74.9018C71.4674 79.5899 76.2062 82.0085 80.2431 84.0689C81.0734 84.4926 81.874 84.9013 82.6386 85.3114C84.8535 86.4994 86.8334 87.7377 88.223 89.4532C89.6478 91.2121 90.393 93.3939 90.3086 96.3394C90.2263 99.2085 89.5012 101.554 88.2111 103.585C86.9302 105.602 85.1248 107.259 82.9602 108.806C80.8011 110.35 78.2301 111.821 75.3949 113.436L75.1704 113.563C72.3817 115.152 69.317 116.897 66.041 119.029C57.3034 124.714 52.9278 133.997 50.744 141.968C49.655 145.943 49.1202 149.561 48.858 152.184C48.727 153.494 48.6643 154.554 48.6344 155.283C48.6194 155.648 48.6126 155.93 48.6096 156.119C48.608 156.213 48.6074 156.284 48.6072 156.331L48.6071 156.383L48.6071 156.394L48.6071 156.397C48.6071 156.397 48.6071 156.396 47.6396 156.403C46.6722 156.409 46.6722 156.408 46.6722 156.408L46.6721 156.407L46.6721 156.402L46.6721 156.385L46.6722 156.322C46.6725 156.268 46.6731 156.189 46.6748 156.087C46.6781 155.883 46.6853 155.585 46.701 155.203C46.7323 154.44 46.7975 153.342 46.9327 151.99C47.2029 149.286 47.7538 145.557 48.8783 141.453C51.1214 133.264 55.6836 123.452 64.9893 117.397C68.314 115.234 71.4219 113.464 74.2043 111.879L74.4407 111.744C77.2963 110.118 79.7757 108.697 81.8386 107.222C83.8959 105.752 85.4839 104.265 86.5798 102.54C87.6664 100.829 88.3013 98.8311 88.3743 96.2836C88.4473 93.7382 87.8151 92.0297 86.7221 90.6805C85.5941 89.2879 83.9159 88.2004 81.7271 87.0264C81.0047 86.6389 80.2337 86.246 79.4227 85.8327C75.3778 83.7715 70.3398 81.2043 65.3944 76.2832C56.9472 67.8777 52.6607 58.2034 50.4852 50.6465C49.397 46.8663 48.8347 43.6082 48.5443 41.2901C48.399 40.1308 48.3215 39.2056 48.2804 38.5666C48.2598 38.2471 48.2483 37.999 48.2419 37.8289C48.2387 37.7439 48.2368 37.6783 48.2357 37.6331L48.2345 37.5805L48.2342 37.5658L48.2342 37.5599Z" fill="#02514E"/>
<path d="M41.8084 31.8941C41.8648 27.5997 45.3756 24.164 49.65 24.2202L146.946 25.4987C151.22 25.5549 154.639 29.0817 154.583 33.3761C154.526 37.6705 151.016 41.1062 146.741 41.0501L49.4456 39.7715C45.1713 39.7153 41.752 36.1885 41.8084 31.8941Z" fill="#02514E"/>
<path d="M40.1151 160.748C40.1715 156.454 43.6823 153.018 47.9567 153.074L145.252 154.353C149.527 154.409 153 161.5 153 161.5L47.1252 160.748C40.3076 160.748 39.0002 160.748 40.1151 160.748Z" fill="#02514E"/>
<path fill-rule="evenodd" clip-rule="evenodd" d="M138.631 115.082C138.639 114.638 138.287 114.26 137.844 114.238L137.517 114.222C137.075 114.2 136.71 114.542 136.702 114.986C136.644 118.386 135.336 121.604 133.325 123.929C131.311 126.256 128.65 127.628 125.895 127.491C125.453 127.469 125.088 127.811 125.081 128.255C125.073 128.699 125.425 129.077 125.868 129.099C128.622 129.236 131.231 130.873 133.162 133.398C135.089 135.92 136.284 139.263 136.225 142.658C136.218 143.102 136.57 143.48 137.012 143.502L137.34 143.518C137.782 143.54 138.147 143.198 138.154 142.754C138.212 139.393 139.796 135.967 142.126 133.411C144.467 130.844 147.439 129.282 150.177 129.419C150.619 129.441 150.984 129.099 150.992 128.655C150.999 128.21 150.647 127.833 150.204 127.811C147.393 127.671 144.464 126.188 142.244 123.857C140.029 121.532 138.574 118.42 138.631 115.082ZM146.243 128.51C144.285 129.283 142.45 130.635 140.929 132.303C140.809 132.435 140.69 132.569 140.573 132.706C140.1 133.257 139.657 133.844 139.25 134.46C138.441 135.684 137.776 137.021 137.308 138.418C136.74 136.217 135.735 134.162 134.421 132.443C133.127 130.751 131.514 129.36 129.702 128.486C131.255 127.901 132.678 126.936 133.896 125.711C134.121 125.485 134.338 125.25 134.549 125.007C134.767 124.755 134.978 124.493 135.18 124.223C136.27 122.772 137.126 121.073 137.665 119.236C138.36 121.398 139.58 123.352 141.103 124.951C142.575 126.496 144.35 127.731 146.243 128.51Z" fill="#02514E"/>
<path fill-rule="evenodd" clip-rule="evenodd" d="M42.2032 70.4518C42.2108 70.0077 41.8584 69.6298 41.4159 69.6078L41.185 69.5963C40.7426 69.5743 40.3777 69.9164 40.3701 70.3605C40.3297 72.7044 39.4274 74.9252 38.0413 76.5271C36.6526 78.1322 34.8365 79.0567 32.9803 78.9643C32.5379 78.9423 32.173 79.2844 32.1653 79.7285C32.1577 80.1726 32.5101 80.5504 32.9526 80.5725C34.8084 80.6649 36.5895 81.7698 37.9209 83.5113C39.2496 85.2495 40.0737 87.5563 40.0333 89.8967C40.0257 90.3408 40.3781 90.7186 40.8206 90.7406L41.0515 90.7522C41.4939 90.7742 41.8588 90.432 41.8665 89.9879C41.9062 87.6827 42.995 85.3153 44.611 83.5432C46.2371 81.76 48.275 80.7066 50.1144 80.7981C50.5568 80.8202 50.9216 80.478 50.9293 80.0339C50.937 79.5898 50.5845 79.212 50.1421 79.1899C48.2291 79.0947 46.2173 78.0828 44.6854 76.4746C43.1591 74.8724 42.1638 72.7351 42.2032 70.4518ZM46.7527 79.914C45.5194 80.4939 44.3752 81.3804 43.4137 82.4348C42.4396 83.503 41.6178 84.7803 41.058 86.1619C40.6315 84.8412 39.9864 83.6117 39.1799 82.5567C38.3577 81.4811 37.3517 80.5683 36.2205 79.9308C37.3716 79.4076 38.4073 78.5972 39.2651 77.6057C40.1276 76.6089 40.8271 75.4121 41.299 74.0983C41.8202 75.4008 42.603 76.5793 43.545 77.5682C44.4738 78.5433 45.5724 79.3497 46.7527 79.914Z" fill="#02514E"/>
<path fill-rule="evenodd" clip-rule="evenodd" d="M146.494 38.8248C147.461 38.8629 147.461 38.8639 147.461 38.8639L147.461 38.8654L147.461 38.8698L147.46 38.8844L147.457 38.937C147.455 38.9822 147.452 39.0477 147.446 39.1326C147.435 39.3024 147.417 39.5501 147.388 39.869C147.33 40.5067 147.229 41.4295 147.053 42.5847C146.702 44.8943 146.054 48.1365 144.867 51.8868C142.493 59.3839 137.954 68.9422 129.289 77.1229C124.216 81.9123 119.112 84.3462 115.015 86.3004C114.193 86.6922 113.412 87.0648 112.68 87.4331C110.461 88.5492 108.755 89.5923 107.59 90.9547C106.462 92.2747 105.785 93.9661 105.791 96.5125C105.797 99.061 106.38 101.074 107.421 102.814C108.471 104.568 110.02 106.095 112.037 107.619C114.061 109.147 116.502 110.633 119.314 112.334L119.547 112.475C122.287 114.132 125.347 115.983 128.614 118.233C131.159 119.986 133.33 122.021 135.18 124.223C134.978 124.493 134.767 124.755 134.549 125.007C134.338 125.25 134.121 125.485 133.896 125.711C132.105 123.541 129.998 121.544 127.519 119.837C124.301 117.62 121.283 115.794 118.537 114.133L118.316 114C115.524 112.311 112.992 110.773 110.875 109.173C108.751 107.57 106.99 105.866 105.763 103.816C104.527 101.751 103.863 99.3877 103.856 96.5174C103.849 93.5707 104.652 91.4093 106.122 89.6884C107.556 88.01 109.568 86.8242 111.814 85.6948C112.589 85.3049 113.4 84.9175 114.241 84.5157C118.33 82.5621 123.131 80.2688 127.964 75.7062C136.324 67.8139 140.718 58.5773 143.023 51.2978C144.174 47.6598 144.801 44.5183 145.14 42.2912C145.309 41.178 145.407 40.2943 145.461 39.6925C145.489 39.3917 145.505 39.1614 145.515 39.0082C145.52 38.9316 145.523 38.8743 145.525 38.8371L145.527 38.7965L145.527 38.7862C145.527 38.7862 145.527 38.7867 146.494 38.8248ZM139.25 134.46C140.565 137.392 141.519 140.365 142.208 143.17C143.192 147.173 143.632 150.803 143.825 153.432C143.922 154.745 143.956 155.806 143.967 156.536C143.973 156.901 143.972 157.183 143.97 157.372C143.969 157.466 143.968 157.537 143.967 157.584L143.966 157.636L143.965 157.647L143.965 157.65C143.965 157.65 143.965 157.65 144.932 157.681C145.899 157.713 145.899 157.712 145.899 157.712L145.899 157.706L145.9 157.689L145.901 157.626C145.903 157.572 145.904 157.493 145.905 157.391C145.907 157.187 145.908 156.889 145.902 156.507C145.891 155.743 145.855 154.644 145.755 153.288C145.556 150.579 145.103 146.837 144.087 142.704C143.304 139.52 142.182 136.086 140.573 132.706C140.1 133.257 139.657 133.844 139.25 134.46Z" fill="#02514E"/>
<path fill-rule="evenodd" clip-rule="evenodd" d="M48.7017 146.839C28.2647 148.568 15 151.356 15 154.5C15 159.747 51.9365 164 97.5 164C143.063 164 180 159.747 180 154.5C180 151.237 165.718 148.359 143.96 146.649L146.5 158.5H46.5L48.7017 146.839Z" fill="#02514E"/>
</svg>
