<svg width="24" height="24" viewBox="0 0 24 24" fill="none" xmlns="http://www.w3.org/2000/svg">
<path d="M21.775 18.925L14.85 12H20V7.99995H10.85L6.85002 3.99995H20C20.55 3.99995 21.0209 4.19578 21.4125 4.58745C21.8042 4.97912 22 5.44995 22 5.99995V18C22 18.1666 21.9834 18.3291 21.95 18.4875C21.9167 18.6458 21.8584 18.7916 21.775 18.925ZM4.00002 12H9.15002L5.15002 7.99995H4.00002V12ZM20.45 23.3L17.15 20H4.00002C3.45002 20 2.97919 19.8041 2.58752 19.4125C2.19586 19.0208 2.00002 18.55 2.00002 18V5.99995C2.00002 5.44995 2.19586 4.97912 2.58752 4.58745C2.97919 4.19578 3.45002 3.99995 4.00002 3.99995L6.00002 5.99995H3.15002L0.650024 3.49995L2.07502 2.07495L21.875 21.875L20.45 23.3Z" fill="#0B1F1E"/>
</svg>
