<svg width="24" height="24" viewBox="0 0 24 24" fill="none" xmlns="http://www.w3.org/2000/svg">
<path d="M7.485 3.29502H20.655C21.765 3.29502 22.655 4.18502 22.655 5.29502V17.295C22.655 17.635 22.575 17.955 22.425 18.235L20.655 16.465V11.295H15.485L11.485 7.29502H20.655V5.29502H9.485L7.485 3.29502ZM21.145 22.605L17.825 19.295H4.655C3.545 19.295 2.655 18.405 2.655 17.295L2.665 5.29502C2.665 4.95502 2.745 4.63502 2.895 4.36502L1.345 2.80502L2.755 1.39502L22.555 21.195L21.145 22.605ZM4.655 6.12502V7.29502H5.825L4.655 6.12502ZM15.825 17.295L9.825 11.295H4.655V17.295H15.825Z" fill="#0B1F1E"/>
</svg>
