<svg width="296" height="187" viewBox="0 0 296 187" fill="none" xmlns="http://www.w3.org/2000/svg">
<g opacity="0.8" clip-path="url(#clip0_62559_6447)">
<path d="M295.205 156.734C295.266 157.536 295.23 158.849 295.23 158.849V175.089C295.23 181.142 290.416 185.992 284.363 185.992H11.3366C5.28312 185.992 0.189941 181.227 0.189941 175.174V11.098C0.189941 5.04456 5.28312 0 11.3366 0H284.375C290.428 0 295.327 4.91085 295.327 10.9522L295.266 108.379V110.883L295.242 110.907C291.741 116.098 289.261 123.768 288.921 130.016C288.848 131.426 288.836 132.933 288.836 134.38C288.836 142.439 290.999 150.595 295.181 156.709L295.205 156.734Z" fill="url(#paint0_linear_62559_6447)"/>
<mask id="mask0_62559_6447" style="mask-type:luminance" maskUnits="userSpaceOnUse" x="0" y="0" width="296" height="187">
<path d="M284.606 0.206635H11.5675C5.5188 0.206635 0.615356 5.11008 0.615356 11.1588V175.101C0.615356 181.149 5.5188 186.053 11.5675 186.053H284.606C290.654 186.053 295.558 181.149 295.558 175.101V11.1588C295.558 5.11008 290.654 0.206635 284.606 0.206635Z" fill="white"/>
</mask>
<g mask="url(#mask0_62559_6447)">
<path d="M-11.3214 -6.39383H40.6679L132.771 86.0735L40.6679 191.754H-11.3214L54.039 86.0735L-11.3214 -6.39383Z" fill="#15615B"/>
<path d="M93.7512 -6.39383H145.741L237.843 86.0735L145.741 191.754H93.7512L159.112 86.0735L93.7512 -6.39383Z" fill="#15615B"/>
</g>
<g filter="url(#blurFilter)">
<path d="M243.386 156.709C243.386 162.726 253.901 166.859 249.598 170.372C246.328 173.034 242.171 174.627 237.649 174.627C227.146 174.627 218.637 166.045 218.637 155.457C218.637 144.87 227.146 136.288 237.649 136.288C242.244 136.288 246.462 137.929 249.744 140.664C253.974 144.177 243.398 150.753 243.398 156.709" fill="#ED1C24"/>
<path d="M280.157 155.457C280.157 166.045 271.648 174.627 261.145 174.627C256.709 174.627 252.624 173.095 249.391 170.53C249.391 170.53 249.452 170.372 249.44 170.372C249.087 170.081 249.209 169.898 248.856 169.582C245.051 166.081 255.566 161.535 255.566 155.931C255.566 150.328 244.553 144.712 248.431 141.199C251.798 138.148 256.247 136.288 261.133 136.288C271.636 136.288 280.145 144.87 280.145 155.457" fill="#F99F1C"/>
<path d="M256.66 155.457C256.66 149.343 253.816 143.897 249.403 140.384C244.979 143.897 242.146 149.343 242.146 155.457C242.146 161.572 244.991 167.017 249.403 170.53C253.828 167.017 256.66 161.572 256.66 155.457Z" fill="#F37021"/>
<path d="M278.346 167.333V166.713H278.589V166.592H277.957V166.713H278.2V167.333H278.333M279.561 167.333V166.592H279.367L279.148 167.102L278.929 166.592H278.734V167.333H278.868V166.774L279.075 167.26H279.221L279.427 166.774V167.333H279.561Z" fill="#F99F1C"/>
<path d="M240.834 113.557C241.235 113.557 241.563 113.618 241.842 113.752C242.122 113.885 242.365 114.056 242.547 114.274V111.539H244.116V119.234H242.572V118.626C242.377 118.845 242.134 119.027 241.855 119.173C241.575 119.319 241.223 119.38 240.821 119.38C240.42 119.38 240.043 119.307 239.703 119.161C239.351 119.015 239.059 118.808 238.804 118.553C238.548 118.298 238.354 117.982 238.208 117.629C238.062 117.277 237.989 116.888 237.989 116.475C237.989 116.061 238.062 115.672 238.208 115.32C238.354 114.967 238.548 114.651 238.804 114.396C239.059 114.141 239.363 113.934 239.703 113.788C240.043 113.642 240.42 113.569 240.821 113.569M241.125 114.955C240.894 114.955 240.688 114.992 240.505 115.077C240.323 115.162 240.165 115.259 240.031 115.405C239.898 115.539 239.8 115.709 239.727 115.891C239.654 116.073 239.618 116.28 239.618 116.487C239.618 116.693 239.654 116.9 239.727 117.082C239.8 117.265 239.898 117.423 240.031 117.569C240.165 117.702 240.323 117.812 240.505 117.897C240.688 117.982 240.906 118.018 241.125 118.018C241.344 118.018 241.563 117.982 241.745 117.909C241.928 117.836 242.086 117.727 242.219 117.593C242.353 117.459 242.45 117.289 242.523 117.107C242.596 116.924 242.633 116.718 242.633 116.499C242.633 116.28 242.596 116.086 242.523 115.891C242.45 115.709 242.353 115.539 242.219 115.405C242.086 115.271 241.928 115.162 241.745 115.089C241.563 115.016 241.356 114.979 241.125 114.979V114.955ZM248.37 113.557C248.795 113.557 249.184 113.63 249.525 113.764C249.877 113.91 250.169 114.104 250.424 114.359C250.68 114.615 250.862 114.919 251.008 115.283C251.141 115.648 251.214 116.037 251.214 116.462C251.214 116.547 251.214 116.645 251.214 116.73C251.214 116.815 251.202 116.9 251.19 116.961H247.033C247.069 117.167 247.142 117.338 247.227 117.471C247.325 117.617 247.434 117.739 247.568 117.824C247.701 117.921 247.847 117.994 248.005 118.03C248.175 118.079 248.346 118.103 248.528 118.103C248.783 118.103 249.039 118.055 249.294 117.97C249.549 117.885 249.792 117.751 249.999 117.581L250.923 118.541C250.582 118.833 250.205 119.039 249.792 119.173C249.379 119.307 248.917 119.38 248.419 119.38C247.969 119.38 247.556 119.307 247.191 119.173C246.814 119.039 246.498 118.833 246.231 118.59C245.963 118.334 245.757 118.03 245.611 117.678C245.465 117.325 245.38 116.924 245.38 116.487C245.38 116.049 245.453 115.66 245.599 115.295C245.744 114.931 245.951 114.627 246.206 114.372C246.462 114.116 246.778 113.91 247.142 113.776C247.507 113.63 247.908 113.557 248.346 113.557H248.37ZM248.358 114.846C247.981 114.846 247.689 114.943 247.47 115.137C247.252 115.332 247.106 115.599 247.045 115.952H249.634C249.561 115.587 249.415 115.32 249.197 115.125C248.978 114.931 248.698 114.846 248.358 114.846ZM255.773 113.557C256.174 113.557 256.551 113.63 256.903 113.776C257.244 113.922 257.547 114.129 257.803 114.384C258.058 114.639 258.252 114.955 258.398 115.308C258.544 115.66 258.617 116.049 258.617 116.462C258.617 116.876 258.544 117.265 258.398 117.617C258.252 117.97 258.058 118.286 257.803 118.541C257.547 118.796 257.244 119.003 256.903 119.149C256.563 119.295 256.186 119.368 255.773 119.368C255.359 119.368 255.019 119.295 254.739 119.161C254.46 119.027 254.217 118.845 254.022 118.614V119.222H252.479V111.527H254.047V114.262C254.241 114.043 254.472 113.873 254.752 113.74C255.031 113.606 255.372 113.545 255.761 113.545L255.773 113.557ZM255.493 114.955C255.262 114.955 255.068 114.992 254.885 115.064C254.703 115.137 254.545 115.247 254.411 115.381C254.278 115.514 254.18 115.684 254.107 115.867C254.034 116.049 253.998 116.256 253.998 116.475C253.998 116.693 254.034 116.9 254.107 117.082C254.18 117.265 254.278 117.435 254.411 117.569C254.545 117.702 254.703 117.812 254.885 117.885C255.068 117.958 255.274 117.994 255.493 117.994C255.712 117.994 255.931 117.958 256.125 117.872C256.308 117.787 256.466 117.678 256.599 117.544C256.733 117.411 256.83 117.24 256.903 117.058C256.976 116.876 257.013 116.669 257.013 116.462C257.013 116.256 256.976 116.061 256.903 115.867C256.83 115.684 256.733 115.514 256.599 115.381C256.466 115.247 256.308 115.137 256.125 115.052C255.943 114.967 255.736 114.931 255.493 114.931V114.955ZM261.437 119.258H259.857V113.715H261.437V119.258ZM267.272 115.04H265.145V117.058C265.145 117.228 265.169 117.374 265.218 117.496C265.266 117.617 265.327 117.714 265.4 117.787C265.473 117.86 265.57 117.921 265.679 117.945C265.789 117.982 265.898 117.994 266.02 117.994C266.214 117.994 266.397 117.958 266.591 117.885C266.786 117.812 266.956 117.727 267.126 117.641L267.709 118.808C267.454 118.979 267.162 119.112 266.859 119.222C266.555 119.331 266.19 119.392 265.765 119.392C265.035 119.392 264.488 119.197 264.124 118.821C263.759 118.444 263.577 117.897 263.577 117.167V115.028H262.446V113.703H263.577V112.05H265.157V113.703H267.284V115.028L267.272 115.04ZM260.647 110.992C260.793 110.992 260.915 111.017 261.048 111.065C261.17 111.114 261.279 111.187 261.364 111.272C261.449 111.357 261.522 111.454 261.583 111.576C261.632 111.697 261.656 111.819 261.656 111.953C261.656 112.086 261.632 112.208 261.583 112.329C261.534 112.451 261.462 112.548 261.364 112.633C261.267 112.718 261.17 112.791 261.048 112.84C260.927 112.889 260.793 112.913 260.647 112.913C260.501 112.913 260.38 112.889 260.246 112.84C260.124 112.791 260.015 112.731 259.93 112.633C259.845 112.548 259.772 112.451 259.723 112.329C259.675 112.208 259.65 112.086 259.65 111.953C259.65 111.819 259.675 111.697 259.723 111.576C259.772 111.454 259.845 111.357 259.93 111.272C260.027 111.187 260.124 111.114 260.246 111.065C260.368 111.017 260.501 110.992 260.647 110.992Z" fill="#AED3BD"/>
<path d="M11.677 74.3798C11.8471 74.6108 11.9808 74.8539 12.0659 75.1335C12.1632 75.4009 12.2118 75.6926 12.2118 75.9965C12.2118 76.3004 12.1632 76.5922 12.0659 76.8596C11.9808 77.127 11.8471 77.3823 11.677 77.6132C11.446 77.9171 11.5068 78.3547 11.8228 78.5857C12.1267 78.8166 12.5643 78.7437 12.7953 78.4398C13.0505 78.0994 13.245 77.7226 13.3909 77.3093C13.5246 76.896 13.5975 76.4584 13.5975 75.9965C13.5975 75.5346 13.5246 75.097 13.3909 74.6837C13.245 74.2704 13.0505 73.8936 12.7953 73.5533C12.5643 73.2494 12.1267 73.1764 11.8228 73.4074C11.5068 73.6384 11.446 74.076 11.677 74.3798Z" fill="#AED3BD"/>
<path d="M14.0595 73.0913C14.5821 73.9422 14.886 74.9268 14.886 75.9965C14.886 77.0662 14.5821 78.063 14.0595 78.9017C13.865 79.2299 13.9622 79.6553 14.2904 79.862C14.6186 80.0686 15.0441 79.9592 15.2507 79.631C15.9071 78.5735 16.2839 77.3215 16.2839 75.9965C16.2839 74.6594 15.9071 73.4195 15.2507 72.362C15.0441 72.0338 14.6186 71.9366 14.2904 72.1311C13.9622 72.3377 13.865 72.7631 14.0595 73.0913Z" fill="#AED3BD"/>
<path d="M16.5878 71.7664C17.3171 73.0063 17.7304 74.4528 17.7304 75.9965C17.7304 77.5403 17.3171 78.9868 16.5878 80.2267C16.3933 80.567 16.5027 80.9803 16.843 81.1748C17.1712 81.3693 17.5967 81.2599 17.7912 80.9195C18.6421 79.473 19.1161 77.7834 19.1161 75.9844C19.1161 74.1853 18.6299 72.5079 17.7912 71.0614C17.5967 70.7332 17.1712 70.6238 16.843 70.8061C16.5148 71.0006 16.4054 71.426 16.5878 71.7542" fill="#AED3BD"/>
<path d="M19.104 70.4414C20.04 72.0824 20.5627 73.9665 20.5748 75.9965C20.5748 78.0265 20.04 79.9106 19.104 81.5516C18.9217 81.8798 19.0311 82.3053 19.3714 82.4998C19.6996 82.6942 20.1251 82.5727 20.3196 82.2445C21.365 80.409 21.9606 78.2696 21.9606 76.0087C21.9606 73.7477 21.365 71.6084 20.3196 69.7729C20.1251 69.4447 19.6996 69.3231 19.3714 69.5176C19.0311 69.7121 18.9217 70.1254 19.104 70.4657" fill="#AED3BD"/>
<path opacity="0.89" d="M62.5358 82.1472C62.5358 84.8701 60.3235 87.0702 57.6006 87.0702H35.6234C32.8884 87.0702 30.6761 84.8579 30.6761 82.1472V67.3418C30.6761 64.6068 32.8884 62.3945 35.6234 62.3945H57.6006C60.3235 62.3945 62.5358 64.6068 62.5358 67.3418V82.1472Z" fill="url(#paint1_linear_62559_6447)"/>
<path d="M62.2076 81.8798C62.2076 84.6148 59.9953 86.8028 57.2846 86.8028H35.3073C32.5723 86.8028 30.3722 84.6027 30.3722 81.8798V67.0744C30.3722 64.3394 32.5845 62.1514 35.3073 62.1514H57.2846C59.9953 62.1514 62.2076 64.3515 62.2076 67.0744V81.8798Z" fill="url(#paint2_linear_62559_6447)"/>
<path d="M62.0131 81.7826C62.0131 84.4568 59.8373 86.6326 57.1509 86.6326H35.5383C32.8519 86.6326 30.6761 84.4568 30.6761 81.7826V67.2081C30.6761 64.5338 32.8519 62.358 35.5383 62.358H57.1509C59.8373 62.358 62.0131 64.5338 62.0131 67.2081V81.7826Z" fill="url(#paint3_linear_62559_6447)"/>
<path d="M57.3818 62.358H35.7693C33.0829 62.358 30.907 64.5338 30.907 67.2081V81.7826C30.907 84.4568 33.0829 86.6326 35.7693 86.6326H57.3818C60.0682 86.6326 62.2441 84.4568 62.2441 81.7826V67.2081C62.2441 64.5338 60.0682 62.358 57.3818 62.358ZM51.0974 78.4884C51.0974 81.1505 49.0674 84.469 46.5756 84.469C44.0837 84.469 42.0537 81.1505 42.0537 78.4884C42.0537 76.9325 42.7587 75.5468 43.8284 74.6716C42.7587 73.7842 42.0537 72.4106 42.0537 70.8426C42.0537 68.1805 44.1201 64.7526 46.612 64.7526C49.1039 64.7526 51.0974 68.1684 51.0974 70.8426C51.0974 72.3985 50.3924 73.7842 49.3227 74.6716C50.4046 75.5589 51.0974 76.9325 51.0974 78.4884Z" fill="#4E2914"/>
<path d="M62.0131 69.0679V67.2202C62.0131 64.9715 60.4694 63.0752 58.3786 62.5282V69.0679H62.0131ZM58.3665 86.4868C60.4572 85.952 62.001 84.0557 62.001 81.7948V80.0565H58.3665V86.499V86.4868ZM58.3665 79.6797H62.001V74.9755H58.3665V79.6797ZM58.3665 69.4447V74.5987H62.001V69.4447H58.3665Z" fill="url(#paint4_linear_62559_6447)"/>
<path d="M30.907 80.0687V81.8069C30.907 83.922 32.2928 85.7332 34.2012 86.3774V80.0565H30.907V80.0687ZM34.2012 74.9876H30.907V79.6918H34.2012V74.9876ZM34.2012 69.4569H30.907V74.6108H34.2012V69.4569ZM34.2012 62.6376C32.2928 63.2818 30.907 65.093 30.907 67.2324V69.0801H34.2012V62.6498V62.6376Z" fill="url(#paint5_linear_62559_6447)"/>
<path d="M34.3836 80.0686V86.4868C34.7847 86.584 35.198 86.657 35.6477 86.657H57.2725C57.5764 86.657 57.8681 86.6205 58.172 86.5597V80.0565H34.3957L34.3836 80.0686ZM34.3836 74.5986H58.1598V69.4447H34.3836V74.5986ZM34.3836 79.6918H58.1598V74.9876H34.3836V79.6918ZM58.1598 69.08V62.4674C57.8559 62.4188 57.5642 62.3945 57.2603 62.3945H35.6356C35.198 62.3945 34.7725 62.4431 34.3714 62.5646V69.0922H58.1477L58.1598 69.08Z" fill="url(#paint6_linear_62559_6447)"/>
<path d="M46.2352 65.2267V62.3459H46.4175V65.2267H46.2352Z" fill="#4E2914"/>
<path d="M46.7579 65.2267V62.3459H46.9402V65.2267H46.7579Z" fill="#4E2914"/>
<path d="M46.2352 86.6934V84.238H46.4175V86.6934H46.2352Z" fill="#4E2914"/>
<path d="M46.7579 86.6934V84.238H46.9402V86.6934H46.7579Z" fill="#4E2914"/>
<path d="M42.0051 78.4155C42.0051 76.9325 42.6493 75.6076 43.6947 74.7202C42.6615 73.8328 42.0051 72.5079 42.0051 71.0249C42.0172 68.3872 44.0837 65.0201 46.7214 64.9958C49.3592 65.0201 51.3405 68.3872 51.3527 71.0249C51.3527 72.5079 50.6963 73.8328 49.6631 74.7202C50.6841 75.6076 51.3527 76.9325 51.3527 78.4155C51.3527 81.0532 49.3106 84.3109 46.6728 84.3352C44.0472 84.3109 42.0172 81.0532 42.0051 78.4155ZM43.6218 67.2202C42.8073 68.3385 42.2968 69.785 42.2968 71.0249C42.2968 72.4836 42.9775 73.7721 44.0107 74.5865C44.0107 74.5865 44.0715 74.6594 44.0715 74.7202C44.0715 74.7202 44.0472 74.8174 44.0107 74.8418C42.9775 75.6562 42.2968 76.969 42.2968 78.4155C42.2968 79.6675 42.7952 81.0654 43.5974 82.1716C44.3997 83.2656 45.4937 84.0314 46.6728 84.0314C47.8519 84.0314 48.9459 83.2656 49.7603 82.1716C50.5626 81.0654 51.061 79.6675 51.061 78.4155C51.061 76.9568 50.3681 75.6562 49.347 74.8418C49.347 74.8418 49.2862 74.7688 49.2862 74.7202C49.2862 74.7202 49.3106 74.6351 49.347 74.5865C50.3802 73.7721 51.061 72.4836 51.061 71.0249C51.061 69.7729 50.5626 68.3264 49.7846 67.1959C48.9945 66.0776 47.9005 65.2996 46.7336 65.2996C45.5666 65.2996 44.4605 66.0776 43.6461 67.2081L43.6218 67.2202Z" fill="url(#paint7_linear_62559_6447)"/>
<path d="M41.847 78.4763C41.847 76.9933 42.4913 75.6683 43.5367 74.781C42.4913 73.8936 41.847 72.5687 41.847 71.0857C41.847 68.4479 43.9256 65.093 46.5634 65.0687C49.2012 65.093 51.1825 68.4479 51.1947 71.0857C51.1947 72.5687 50.5383 73.8936 49.505 74.781C50.5383 75.6683 51.1947 76.9933 51.1947 78.4763C51.1947 81.114 49.1525 84.3717 46.5148 84.396C43.8892 84.3839 41.8592 81.1262 41.847 78.4763ZM43.4637 67.281C42.6493 68.3993 42.1388 69.8458 42.1388 71.0857C42.1388 72.5444 42.8195 73.8328 43.8527 74.6594C43.8527 74.6594 43.9135 74.7324 43.9135 74.781C43.9135 74.781 43.8892 74.8661 43.8527 74.8904C42.8073 75.7291 42.1388 77.0176 42.1388 78.4641C42.1388 79.7161 42.6372 81.1262 43.4394 82.2202C44.2417 83.3142 45.3357 84.08 46.5148 84.08C47.6939 84.08 48.7879 83.3142 49.6023 82.2202C50.4046 81.1262 50.8908 79.7161 50.8908 78.4641C50.8908 77.0055 50.2101 75.717 49.1768 74.8904C49.1768 74.8904 49.1282 74.8175 49.1282 74.781C49.1282 74.781 49.1525 74.6837 49.1768 74.6594C50.2222 73.8328 50.8908 72.5444 50.8908 71.0857C50.8908 69.8337 50.4046 68.3993 49.6144 67.281C48.8365 66.1505 47.7425 65.3726 46.5756 65.3726H46.5634C45.3965 65.3726 44.2903 66.1627 43.488 67.281H43.4637Z" fill="#4E2914"/>
<path d="M46.5634 65.324C44.1688 65.324 42.1631 68.5938 42.1631 71.1343C42.1631 72.6173 42.8438 73.9301 43.877 74.7688C42.8316 75.6197 42.1631 76.9325 42.1631 78.4034C42.1631 80.956 44.1201 84.1165 46.5148 84.1165C48.9094 84.1165 50.8665 80.956 50.8665 78.4034C50.8665 76.9204 50.1979 75.6076 49.1647 74.7688C50.1979 73.9179 50.8665 72.6052 50.8665 71.1343C50.8665 68.5817 48.9702 65.324 46.5512 65.324H46.5634Z" fill="url(#paint8_linear_62559_6447)"/>
<path d="M87.7479 89.2702C87.2906 89.2702 86.8846 89.3542 86.5299 89.5222C86.1753 89.6902 85.8719 89.9328 85.6199 90.2502C85.3773 90.5675 85.1906 90.9502 85.0599 91.3982C84.9386 91.8462 84.8779 92.3502 84.8779 92.9102C84.8779 93.6662 84.9806 94.3148 85.1859 94.8562C85.3913 95.3882 85.7039 95.7988 86.1239 96.0882C86.5533 96.3775 87.0899 96.5222 87.7339 96.5222C88.1633 96.5222 88.5739 96.4802 88.9659 96.3962C89.3673 96.3028 89.7873 96.1815 90.2259 96.0322V97.5582C89.8153 97.7262 89.3999 97.8475 88.9799 97.9222C88.5693 97.9968 88.0933 98.0342 87.5519 98.0342C86.5253 98.0342 85.6759 97.8242 85.0039 97.4042C84.3319 96.9748 83.8326 96.3775 83.5059 95.6122C83.1793 94.8375 83.0159 93.9322 83.0159 92.8962C83.0159 92.1402 83.1186 91.4495 83.3239 90.8242C83.5386 90.1988 83.8419 89.6575 84.2339 89.2002C84.6353 88.7428 85.1299 88.3882 85.7179 88.1362C86.3059 87.8842 86.9826 87.7582 87.7479 87.7582C88.2519 87.7582 88.7466 87.8188 89.2319 87.9402C89.7266 88.0522 90.1886 88.2108 90.6179 88.4162L90.0019 89.8862C89.6473 89.7275 89.2786 89.5875 88.8959 89.4662C88.5226 89.3355 88.1399 89.2702 87.7479 89.2702ZM95.3347 90.1662C96.3147 90.1662 97.0567 90.3808 97.5607 90.8102C98.074 91.2302 98.3307 91.8928 98.3307 92.7982V97.8942H97.0847L96.7347 96.8442H96.6787C96.464 97.1148 96.24 97.3435 96.0067 97.5302C95.7827 97.7075 95.5213 97.8335 95.2227 97.9082C94.9333 97.9922 94.5787 98.0342 94.1587 98.0342C93.7107 98.0342 93.3047 97.9502 92.9407 97.7822C92.586 97.6142 92.306 97.3575 92.1007 97.0122C91.8953 96.6575 91.7927 96.2142 91.7927 95.6822C91.7927 94.8982 92.0773 94.3102 92.6467 93.9182C93.2253 93.5168 94.098 93.2975 95.2647 93.2602L96.5807 93.2182V92.8402C96.5807 92.3548 96.464 92.0095 96.2307 91.8042C95.9973 91.5988 95.6707 91.4962 95.2507 91.4962C94.868 91.4962 94.4993 91.5522 94.1447 91.6642C93.79 91.7762 93.4447 91.9068 93.1087 92.0562L92.5487 90.8242C92.922 90.6282 93.3467 90.4695 93.8227 90.3482C94.308 90.2268 94.812 90.1662 95.3347 90.1662ZM95.6567 94.3382C94.882 94.3662 94.3453 94.5015 94.0467 94.7442C93.748 94.9775 93.5987 95.2948 93.5987 95.6962C93.5987 96.0508 93.706 96.3075 93.9207 96.4662C94.1353 96.6248 94.4107 96.7042 94.7467 96.7042C95.26 96.7042 95.694 96.5595 96.0487 96.2702C96.4033 95.9715 96.5807 95.5328 96.5807 94.9542V94.3102L95.6567 94.3382ZM104.617 90.1662C104.729 90.1662 104.86 90.1708 105.009 90.1802C105.158 90.1895 105.284 90.2082 105.387 90.2362L105.233 91.8742C105.149 91.8555 105.037 91.8415 104.897 91.8322C104.766 91.8135 104.65 91.8042 104.547 91.8042C104.267 91.8042 103.996 91.8508 103.735 91.9442C103.483 92.0282 103.254 92.1588 103.049 92.3362C102.853 92.5042 102.694 92.7235 102.573 92.9942C102.461 93.2648 102.405 93.5868 102.405 93.9602V97.8942H100.641V90.3062H101.999L102.251 91.6222H102.335C102.484 91.3515 102.671 91.1088 102.895 90.8942C103.119 90.6702 103.376 90.4928 103.665 90.3622C103.964 90.2315 104.281 90.1662 104.617 90.1662ZM109.126 98.0342C108.249 98.0342 107.535 97.7075 106.984 97.0542C106.443 96.3915 106.172 95.4115 106.172 94.1142C106.172 92.8168 106.447 91.8368 106.998 91.1742C107.549 90.5022 108.272 90.1662 109.168 90.1662C109.541 90.1662 109.868 90.2175 110.148 90.3202C110.437 90.4135 110.685 90.5442 110.89 90.7122C111.095 90.8802 111.268 91.0668 111.408 91.2722H111.492C111.464 91.1415 111.436 90.9408 111.408 90.6702C111.38 90.3995 111.366 90.1475 111.366 89.9142V87.2542H113.13V97.8942H111.758L111.436 96.9002H111.366C111.226 97.1055 111.053 97.2968 110.848 97.4742C110.643 97.6422 110.4 97.7775 110.12 97.8802C109.84 97.9828 109.509 98.0342 109.126 98.0342ZM109.658 96.6062C110.311 96.6062 110.773 96.4195 111.044 96.0462C111.315 95.6728 111.45 95.1082 111.45 94.3522V94.1282C111.45 93.3068 111.319 92.6815 111.058 92.2522C110.806 91.8228 110.33 91.6082 109.63 91.6082C109.098 91.6082 108.687 91.8322 108.398 92.2802C108.109 92.7188 107.964 93.3395 107.964 94.1422C107.964 94.9448 108.109 95.5562 108.398 95.9762C108.687 96.3962 109.107 96.6062 109.658 96.6062ZM120.984 90.3062V97.8942H119.22V90.3062H120.984ZM120.102 87.3802C120.364 87.3802 120.592 87.4502 120.788 87.5902C120.984 87.7208 121.082 87.9588 121.082 88.3042C121.082 88.6402 120.984 88.8828 120.788 89.0322C120.592 89.1722 120.364 89.2422 120.102 89.2422C119.832 89.2422 119.598 89.1722 119.402 89.0322C119.216 88.8828 119.122 88.6402 119.122 88.3042C119.122 87.9588 119.216 87.7208 119.402 87.5902C119.598 87.4502 119.832 87.3802 120.102 87.3802ZM128.506 95.6962C128.506 96.2002 128.385 96.6295 128.142 96.9842C127.899 97.3295 127.54 97.5908 127.064 97.7682C126.597 97.9455 126.023 98.0342 125.342 98.0342C124.81 98.0342 124.353 97.9968 123.97 97.9222C123.587 97.8475 123.223 97.7308 122.878 97.5722V96.0742C123.251 96.2515 123.667 96.4008 124.124 96.5222C124.581 96.6435 125.006 96.7042 125.398 96.7042C125.883 96.7042 126.233 96.6295 126.448 96.4802C126.663 96.3308 126.77 96.1302 126.77 95.8782C126.77 95.7288 126.728 95.5935 126.644 95.4722C126.56 95.3508 126.397 95.2248 126.154 95.0942C125.911 94.9542 125.543 94.7815 125.048 94.5762C124.563 94.3802 124.157 94.1842 123.83 93.9882C123.513 93.7922 123.27 93.5588 123.102 93.2882C122.943 93.0082 122.864 92.6582 122.864 92.2382C122.864 91.5568 123.135 91.0435 123.676 90.6982C124.217 90.3435 124.931 90.1662 125.818 90.1662C126.285 90.1662 126.723 90.2128 127.134 90.3062C127.554 90.3902 127.974 90.5302 128.394 90.7262L127.834 92.0282C127.601 91.9255 127.367 91.8368 127.134 91.7622C126.91 91.6782 126.681 91.6128 126.448 91.5662C126.224 91.5195 125.995 91.4962 125.762 91.4962C125.379 91.4962 125.09 91.5568 124.894 91.6782C124.698 91.7902 124.6 91.9488 124.6 92.1542C124.6 92.3128 124.647 92.4528 124.74 92.5742C124.843 92.6862 125.015 92.8028 125.258 92.9242C125.51 93.0362 125.865 93.1855 126.322 93.3722C126.779 93.5495 127.167 93.7362 127.484 93.9322C127.811 94.1188 128.063 94.3522 128.24 94.6322C128.417 94.9122 128.506 95.2668 128.506 95.6962ZM136.546 98.0342C135.669 98.0342 134.955 97.7075 134.404 97.0542C133.863 96.3915 133.592 95.4115 133.592 94.1142C133.592 92.8168 133.867 91.8368 134.418 91.1742C134.969 90.5022 135.692 90.1662 136.588 90.1662C136.961 90.1662 137.288 90.2175 137.568 90.3202C137.857 90.4135 138.105 90.5442 138.31 90.7122C138.515 90.8802 138.688 91.0668 138.828 91.2722H138.912C138.884 91.1415 138.856 90.9408 138.828 90.6702C138.8 90.3995 138.786 90.1475 138.786 89.9142V87.2542H140.55V97.8942H139.178L138.856 96.9002H138.786C138.646 97.1055 138.473 97.2968 138.268 97.4742C138.063 97.6422 137.82 97.7775 137.54 97.8802C137.26 97.9828 136.929 98.0342 136.546 98.0342ZM137.078 96.6062C137.731 96.6062 138.193 96.4195 138.464 96.0462C138.735 95.6728 138.87 95.1082 138.87 94.3522V94.1282C138.87 93.3068 138.739 92.6815 138.478 92.2522C138.226 91.8228 137.75 91.6082 137.05 91.6082C136.518 91.6082 136.107 91.8322 135.818 92.2802C135.529 92.7188 135.384 93.3395 135.384 94.1422C135.384 94.9448 135.529 95.5562 135.818 95.9762C136.107 96.3962 136.527 96.6062 137.078 96.6062ZM145.956 90.1662C146.637 90.1662 147.22 90.3062 147.706 90.5862C148.2 90.8568 148.583 91.2488 148.854 91.7622C149.124 92.2662 149.26 92.8822 149.26 93.6102V94.5062H144.248C144.266 95.1968 144.458 95.7335 144.822 96.1162C145.186 96.4895 145.69 96.6762 146.334 96.6762C146.828 96.6762 147.267 96.6295 147.65 96.5362C148.042 96.4335 148.443 96.2888 148.854 96.1022V97.5162C148.48 97.6935 148.093 97.8242 147.692 97.9082C147.29 97.9922 146.81 98.0342 146.25 98.0342C145.512 98.0342 144.854 97.8942 144.276 97.6142C143.706 97.3248 143.258 96.8908 142.932 96.3122C142.614 95.7335 142.456 95.0148 142.456 94.1562C142.456 93.2882 142.6 92.5602 142.89 91.9722C143.188 91.3748 143.599 90.9268 144.122 90.6282C144.644 90.3202 145.256 90.1662 145.956 90.1662ZM145.956 91.4682C145.489 91.4682 145.106 91.6222 144.808 91.9302C144.518 92.2288 144.346 92.6768 144.29 93.2742H147.552C147.552 92.9195 147.491 92.6068 147.37 92.3362C147.258 92.0655 147.085 91.8555 146.852 91.7062C146.618 91.5475 146.32 91.4682 145.956 91.4682ZM154.162 90.1662C155.142 90.1662 155.884 90.3808 156.388 90.8102C156.902 91.2302 157.158 91.8928 157.158 92.7982V97.8942H155.912L155.562 96.8442H155.506C155.292 97.1148 155.068 97.3435 154.834 97.5302C154.61 97.7075 154.349 97.8335 154.05 97.9082C153.761 97.9922 153.406 98.0342 152.986 98.0342C152.538 98.0342 152.132 97.9502 151.768 97.7822C151.414 97.6142 151.134 97.3575 150.928 97.0122C150.723 96.6575 150.62 96.2142 150.62 95.6822C150.62 94.8982 150.905 94.3102 151.474 93.9182C152.053 93.5168 152.926 93.2975 154.092 93.2602L155.408 93.2182V92.8402C155.408 92.3548 155.292 92.0095 155.058 91.8042C154.825 91.5988 154.498 91.4962 154.078 91.4962C153.696 91.4962 153.327 91.5522 152.972 91.6642C152.618 91.7762 152.272 91.9068 151.936 92.0562L151.376 90.8242C151.75 90.6282 152.174 90.4695 152.65 90.3482C153.136 90.2268 153.64 90.1662 154.162 90.1662ZM154.484 94.3382C153.71 94.3662 153.173 94.5015 152.874 94.7442C152.576 94.9775 152.426 95.2948 152.426 95.6962C152.426 96.0508 152.534 96.3075 152.748 96.4662C152.963 96.6248 153.238 96.7042 153.574 96.7042C154.088 96.7042 154.522 96.5595 154.876 96.2702C155.231 95.9715 155.408 95.5328 155.408 94.9542V94.3102L154.484 94.3382ZM162.535 98.0342C161.816 98.0342 161.191 97.8988 160.659 97.6282C160.136 97.3482 159.73 96.9235 159.441 96.3542C159.161 95.7755 159.021 95.0382 159.021 94.1422C159.021 93.2088 159.175 92.4528 159.483 91.8742C159.8 91.2862 160.234 90.8568 160.785 90.5862C161.336 90.3062 161.966 90.1662 162.675 90.1662C163.151 90.1662 163.576 90.2128 163.949 90.3062C164.322 90.3995 164.64 90.5115 164.901 90.6422L164.383 92.0282C164.094 91.9162 163.804 91.8228 163.515 91.7482C163.226 91.6642 162.946 91.6222 162.675 91.6222C162.255 91.6222 161.905 91.7155 161.625 91.9022C161.354 92.0888 161.154 92.3688 161.023 92.7422C160.892 93.1062 160.827 93.5682 160.827 94.1282C160.827 94.6695 160.892 95.1222 161.023 95.4862C161.163 95.8502 161.368 96.1255 161.639 96.3122C161.91 96.4895 162.246 96.5782 162.647 96.5782C163.076 96.5782 163.454 96.5268 163.781 96.4242C164.108 96.3215 164.416 96.1815 164.705 96.0042V97.5302C164.416 97.7075 164.103 97.8335 163.767 97.9082C163.44 97.9922 163.03 98.0342 162.535 98.0342ZM169.523 96.6202C169.747 96.6202 169.961 96.6015 170.167 96.5642C170.372 96.5175 170.563 96.4662 170.741 96.4102V97.7262C170.554 97.8102 170.311 97.8802 170.013 97.9362C169.714 98.0015 169.401 98.0342 169.075 98.0342C168.645 98.0342 168.253 97.9642 167.899 97.8242C167.553 97.6748 167.273 97.4228 167.059 97.0682C166.853 96.7135 166.751 96.2188 166.751 95.5842V91.6362H165.729V90.8662L166.849 90.2502L167.409 88.6402H168.515V90.3062H170.671V91.6362H168.515V95.5702C168.515 95.9248 168.608 96.1908 168.795 96.3682C168.981 96.5362 169.224 96.6202 169.523 96.6202ZM174.134 90.3062V97.8942H172.37V90.3062H174.134ZM173.252 87.3802C173.513 87.3802 173.742 87.4502 173.938 87.5902C174.134 87.7208 174.232 87.9588 174.232 88.3042C174.232 88.6402 174.134 88.8828 173.938 89.0322C173.742 89.1722 173.513 89.2422 173.252 89.2422C172.981 89.2422 172.748 89.1722 172.552 89.0322C172.365 88.8828 172.272 88.6402 172.272 88.3042C172.272 87.9588 172.365 87.7208 172.552 87.5902C172.748 87.4502 172.981 87.3802 173.252 87.3802ZM178.24 97.8942L175.356 90.3062H177.218L178.73 94.6882C178.795 94.8655 178.856 95.0615 178.912 95.2762C178.968 95.4815 179.014 95.6868 179.052 95.8922C179.098 96.0882 179.126 96.2608 179.136 96.4102H179.192C179.21 96.2515 179.243 96.0742 179.29 95.8782C179.336 95.6728 179.388 95.4675 179.444 95.2622C179.509 95.0568 179.57 94.8655 179.626 94.6882L181.138 90.3062H183L180.116 97.8942H178.24ZM187.256 90.1662C188.236 90.1662 188.978 90.3808 189.482 90.8102C189.995 91.2302 190.252 91.8928 190.252 92.7982V97.8942H189.006L188.656 96.8442H188.6C188.385 97.1148 188.161 97.3435 187.928 97.5302C187.704 97.7075 187.443 97.8335 187.144 97.9082C186.855 97.9922 186.5 98.0342 186.08 98.0342C185.632 98.0342 185.226 97.9502 184.862 97.7822C184.507 97.6142 184.227 97.3575 184.022 97.0122C183.817 96.6575 183.714 96.2142 183.714 95.6822C183.714 94.8982 183.999 94.3102 184.568 93.9182C185.147 93.5168 186.019 93.2975 187.186 93.2602L188.502 93.2182V92.8402C188.502 92.3548 188.385 92.0095 188.152 91.8042C187.919 91.5988 187.592 91.4962 187.172 91.4962C186.789 91.4962 186.421 91.5522 186.066 91.6642C185.711 91.7762 185.366 91.9068 185.03 92.0562L184.47 90.8242C184.843 90.6282 185.268 90.4695 185.744 90.3482C186.229 90.2268 186.733 90.1662 187.256 90.1662ZM187.578 94.3382C186.803 94.3662 186.267 94.5015 185.968 94.7442C185.669 94.9775 185.52 95.2948 185.52 95.6962C185.52 96.0508 185.627 96.3075 185.842 96.4662C186.057 96.6248 186.332 96.7042 186.668 96.7042C187.181 96.7042 187.615 96.5595 187.97 96.2702C188.325 95.9715 188.502 95.5328 188.502 94.9542V94.3102L187.578 94.3382ZM195.503 96.6202C195.727 96.6202 195.941 96.6015 196.147 96.5642C196.352 96.5175 196.543 96.4662 196.721 96.4102V97.7262C196.534 97.8102 196.291 97.8802 195.993 97.9362C195.694 98.0015 195.381 98.0342 195.055 98.0342C194.625 98.0342 194.233 97.9642 193.879 97.8242C193.533 97.6748 193.253 97.4228 193.039 97.0682C192.833 96.7135 192.731 96.2188 192.731 95.5842V91.6362H191.709V90.8662L192.829 90.2502L193.389 88.6402H194.495V90.3062H196.651V91.6362H194.495V95.5702C194.495 95.9248 194.588 96.1908 194.775 96.3682C194.961 96.5362 195.204 96.6202 195.503 96.6202ZM201.402 90.1662C202.083 90.1662 202.667 90.3062 203.152 90.5862C203.647 90.8568 204.029 91.2488 204.3 91.7622C204.571 92.2662 204.706 92.8822 204.706 93.6102V94.5062H199.694C199.713 95.1968 199.904 95.7335 200.268 96.1162C200.632 96.4895 201.136 96.6762 201.78 96.6762C202.275 96.6762 202.713 96.6295 203.096 96.5362C203.488 96.4335 203.889 96.2888 204.3 96.1022V97.5162C203.927 97.6935 203.539 97.8242 203.138 97.9082C202.737 97.9922 202.256 98.0342 201.696 98.0342C200.959 98.0342 200.301 97.8942 199.722 97.6142C199.153 97.3248 198.705 96.8908 198.378 96.3122C198.061 95.7335 197.902 95.0148 197.902 94.1562C197.902 93.2882 198.047 92.5602 198.336 91.9722C198.635 91.3748 199.045 90.9268 199.568 90.6282C200.091 90.3202 200.702 90.1662 201.402 90.1662ZM201.402 91.4682C200.935 91.4682 200.553 91.6222 200.254 91.9302C199.965 92.2288 199.792 92.6768 199.736 93.2742H202.998C202.998 92.9195 202.937 92.6068 202.816 92.3362C202.704 92.0655 202.531 91.8555 202.298 91.7062C202.065 91.5475 201.766 91.4682 201.402 91.4682ZM209.091 98.0342C208.214 98.0342 207.5 97.7075 206.949 97.0542C206.408 96.3915 206.137 95.4115 206.137 94.1142C206.137 92.8168 206.412 91.8368 206.963 91.1742C207.514 90.5022 208.237 90.1662 209.133 90.1662C209.506 90.1662 209.833 90.2175 210.113 90.3202C210.402 90.4135 210.65 90.5442 210.855 90.7122C211.06 90.8802 211.233 91.0668 211.373 91.2722H211.457C211.429 91.1415 211.401 90.9408 211.373 90.6702C211.345 90.3995 211.331 90.1475 211.331 89.9142V87.2542H213.095V97.8942H211.723L211.401 96.9002H211.331C211.191 97.1055 211.018 97.2968 210.813 97.4742C210.608 97.6422 210.365 97.7775 210.085 97.8802C209.805 97.9828 209.474 98.0342 209.091 98.0342ZM209.623 96.6062C210.276 96.6062 210.738 96.4195 211.009 96.0462C211.28 95.6728 211.415 95.1082 211.415 94.3522V94.1282C211.415 93.3068 211.284 92.6815 211.023 92.2522C210.771 91.8228 210.295 91.6082 209.595 91.6082C209.063 91.6082 208.652 91.8322 208.363 92.2802C208.074 92.7188 207.929 93.3395 207.929 94.1422C207.929 94.9448 208.074 95.5562 208.363 95.9762C208.652 96.3962 209.072 96.6062 209.623 96.6062Z" fill="white"/>
</g>
<rect x="0" y="0" width="296" height="187" fill="#586E6C" clip-path="url(#clip0_62559_6447)" style="mix-blend-mode: color;"/>
<path d="M144.403 13.286H149.57L158.735 22.4756L149.57 32.9902H144.403L150.907 22.4756L144.403 13.286Z" fill="#AED3BD"/>
<path d="M154.845 13.286H160.011L169.176 22.4756L160.011 32.9902H154.845L161.348 22.4756L154.845 13.286Z" fill="#AED3BD"/>
<path d="M177.965 22.974V25.0404C177.965 25.7211 177.989 26.4019 178.001 27.0704H178.536C179.46 27.0704 180.177 26.6936 180.7 25.9521C181.235 25.1985 181.502 24.1166 181.502 22.7309C181.502 21.3451 181.235 20.2511 180.7 19.5097C180.177 18.7682 179.46 18.4035 178.548 18.4035H178.001C178.001 19.0599 177.977 19.7285 177.965 20.4092V22.974ZM174.039 18.3427V17.4797H178.804C179.946 17.4797 180.919 17.6985 181.733 18.1239C182.548 18.5372 183.168 19.1328 183.605 19.9229C184.043 20.7009 184.262 21.6369 184.262 22.7309C184.262 23.8249 184.031 24.7973 183.556 25.5874C183.082 26.3775 182.414 26.9853 181.551 27.3986C180.7 27.8119 179.679 28.0185 178.512 28.0185H174.039V27.1555L175.242 27.0218C175.266 26.3654 175.279 25.709 175.279 25.0404V20.4699C175.279 19.8014 175.279 19.1328 175.242 18.4886L174.039 18.3549V18.3427Z" fill="#AED3BD"/>
<path d="M185.441 28.0064V27.2527L186.304 27.0582C186.304 26.6693 186.316 26.256 186.316 25.8062V23.8613C186.316 23.4237 186.316 23.0591 186.304 22.7673C186.304 22.4634 186.304 22.1596 186.267 21.8435L185.27 21.6976V21.0777L188.637 20.008L188.905 20.1904L188.856 22.5121V25.8305C188.856 26.2803 188.856 26.7057 188.868 27.0947L189.671 27.2527V28.0064H185.428H185.441ZM187.58 18.8289C187.203 18.8289 186.887 18.7074 186.62 18.4764C186.352 18.2333 186.219 17.9294 186.219 17.5648C186.219 17.2001 186.352 16.884 186.62 16.6531C186.887 16.41 187.203 16.2884 187.58 16.2884C187.957 16.2884 188.273 16.41 188.54 16.6531C188.808 16.884 188.941 17.1879 188.941 17.5648C188.941 17.9416 188.808 18.2333 188.54 18.4764C188.273 18.7074 187.957 18.8289 187.58 18.8289Z" fill="#AED3BD"/>
<path d="M190.631 28.0064V27.2527L191.518 27.0704C191.518 26.6693 191.531 26.256 191.531 25.8062V23.6912C191.531 23.3873 191.531 23.1442 191.518 22.9497C191.518 22.7552 191.518 22.585 191.506 22.4148C191.506 22.2447 191.506 22.0502 191.494 21.8435L190.522 21.6976V21.0777L193.682 20.008L193.974 20.1904L194.12 22.0866C194.338 21.4059 194.655 20.8954 195.068 20.5429C195.469 20.1904 195.87 20.008 196.271 20.008C196.624 20.008 196.928 20.1053 197.183 20.3119C197.438 20.5064 197.596 20.7981 197.669 21.1993C197.669 21.6126 197.548 21.9408 197.329 22.1717C197.11 22.3905 196.842 22.5121 196.526 22.5121C196.077 22.5121 195.663 22.2568 195.287 21.7584L195.189 21.6247C194.958 21.8435 194.74 22.1352 194.533 22.4756C194.338 22.816 194.205 23.1806 194.12 23.5453V25.7698C194.12 26.1952 194.12 26.5963 194.132 26.9732L195.396 27.2406V27.9942H190.655L190.631 28.0064Z" fill="#AED3BD"/>
<path d="M201.96 20.8468C201.656 20.8468 201.389 21.0291 201.121 21.4059C200.878 21.7706 200.732 22.4391 200.708 23.4237H202.069C202.458 23.4237 202.714 23.3508 202.835 23.2049C202.969 23.0469 203.042 22.7795 203.042 22.4148C203.042 21.88 202.932 21.491 202.726 21.2236C202.507 20.9683 202.252 20.8346 201.96 20.8346V20.8468ZM201.996 28.2495C201.219 28.2495 200.526 28.0915 199.93 27.7633C199.334 27.4351 198.86 26.961 198.52 26.3532C198.18 25.7333 198.009 24.9918 198.009 24.1409C198.009 23.2414 198.204 22.4878 198.605 21.88C199.006 21.2601 199.529 20.7981 200.161 20.4821C200.793 20.1661 201.449 19.9959 202.13 19.9959C202.811 19.9959 203.431 20.1417 203.929 20.4456C204.428 20.7495 204.804 21.1507 205.072 21.6612C205.327 22.1596 205.461 22.743 205.461 23.3873C205.461 23.6912 205.424 23.9829 205.364 24.2382H200.732C200.781 25.0769 201.012 25.709 201.425 26.1101C201.838 26.5113 202.325 26.7057 202.884 26.7057C203.321 26.7057 203.698 26.6207 204.002 26.4626C204.306 26.2925 204.586 26.0858 204.817 25.8427L205.376 26.3532C205.048 26.9853 204.598 27.4594 204.026 27.7633C203.455 28.0672 202.787 28.2252 202.009 28.2252L201.996 28.2495Z" fill="#AED3BD"/>
<path d="M210.493 28.2495C209.764 28.2495 209.095 28.1036 208.488 27.7997C207.892 27.4959 207.406 27.0339 207.041 26.4262C206.676 25.8184 206.494 25.0647 206.494 24.1652C206.494 23.2657 206.689 22.5364 207.065 21.9165C207.466 21.2965 207.989 20.8225 208.633 20.5064C209.29 20.1782 210.019 20.008 210.809 20.008C211.381 20.008 211.879 20.1174 212.317 20.3241C212.754 20.5429 213.107 20.8224 213.362 21.175C213.629 21.5275 213.775 21.9164 213.812 22.3419C213.641 22.901 213.277 23.1806 212.718 23.1806C212.414 23.1806 212.134 23.0712 211.903 22.8403C211.672 22.6215 211.539 22.2203 211.502 21.649L211.393 20.8468C211.393 20.8468 211.308 20.8346 211.247 20.8346H211.089C210.785 20.8346 210.493 20.9318 210.189 21.1385C209.885 21.3451 209.642 21.6612 209.448 22.0988C209.253 22.5364 209.156 23.1199 209.156 23.8492C209.156 24.773 209.363 25.478 209.764 25.9764C210.177 26.4626 210.724 26.7179 211.393 26.7179C211.782 26.7179 212.11 26.6328 212.402 26.4748C212.693 26.3046 212.949 26.0858 213.192 25.8184L213.751 26.3168C213.447 26.9732 212.997 27.4594 212.438 27.7754C211.879 28.0793 211.223 28.2373 210.469 28.2373L210.493 28.2495Z" fill="#AED3BD"/>
<path d="M217.811 28.2495C217.094 28.2495 216.534 28.0793 216.133 27.739C215.732 27.3865 215.526 26.8152 215.526 26.025V25.2592C215.526 25.0161 215.538 24.7366 215.538 24.4205V21.3573H214.492V20.4092L215.684 20.2512L216.486 18.0024H218.115L218.078 20.2633H219.756V21.3573H218.078V25.8427C218.078 26.2195 218.151 26.4991 218.297 26.6814C218.455 26.8516 218.65 26.9367 218.893 26.9367C219.172 26.9367 219.464 26.8152 219.756 26.5842L220.157 26.9732C219.938 27.3743 219.646 27.6904 219.257 27.9213C218.881 28.1401 218.394 28.2617 217.799 28.2617L217.811 28.2495Z" fill="#AED3BD"/>
<path d="M220.704 18.3427V17.4797H228.872L228.982 20.239H227.657L227.341 18.3792H224.667C224.667 18.987 224.642 19.6069 224.63 20.2268V22.0988H226.356L226.551 20.8468H227.474V24.2868H226.551L226.356 23.0348H224.63V25.1377C224.63 25.7941 224.654 26.4626 224.667 27.1069H227.669L227.985 25.2471H229.31L229.201 28.0064H220.704V27.1433L221.907 27.0096C221.932 26.3532 221.944 25.6968 221.944 25.0404V20.4578C221.944 19.7892 221.944 19.1207 221.907 18.4764L220.704 18.3427Z" fill="#AED3BD"/>
<path d="M235.449 20.9683V20.2633H238.256V20.9683L237.345 21.1507L235.485 23.6669L237.637 27.0947L238.548 27.2527V28.0064H233.966V27.2527L234.707 27.1433L233.516 25.2228L232.264 27.119L233.054 27.2649V28.0185H230.027V27.2649L231.133 27.0826L233.054 24.4691L230.975 21.102L230.076 20.9683V20.2633H234.573V20.9683L233.868 21.0777L235.035 22.9375L236.226 21.1385L235.461 20.9562L235.449 20.9683Z" fill="#AED3BD"/>
<path d="M239.01 31.6409V30.8872L239.91 30.6928C239.91 30.1944 239.922 29.7203 239.922 29.2827C239.922 28.8573 239.934 28.444 239.934 28.0428V23.7033C239.934 23.2657 239.934 22.9254 239.922 22.6944C239.922 22.4513 239.922 22.1596 239.885 21.8435L238.889 21.6976V21.0777L242.025 20.008L242.292 20.166L242.353 21.0656C243.021 20.3605 243.812 20.008 244.723 20.008C245.307 20.008 245.842 20.166 246.316 20.4699C246.79 20.7738 247.154 21.2357 247.434 21.8435C247.726 22.4513 247.872 23.2049 247.872 24.0923C247.872 24.9796 247.713 25.6847 247.385 26.3168C247.069 26.9367 246.644 27.4108 246.121 27.739C245.611 28.0672 245.051 28.2373 244.444 28.2373C243.617 28.2373 242.949 27.9578 242.426 27.3986V29.2584C242.426 29.6838 242.45 30.1458 242.462 30.632L243.483 30.8751V31.6287H238.998L239.01 31.6409ZM243.581 21.4059C243.374 21.4059 243.179 21.4545 243.009 21.5396C242.839 21.6247 242.669 21.7341 242.499 21.8557V26.4991C242.815 26.7665 243.167 26.9002 243.544 26.9002C244.03 26.9002 244.419 26.6814 244.711 26.2317C245.015 25.7819 245.173 25.089 245.173 24.1288C245.173 23.1685 245.027 22.4878 244.723 22.0623C244.431 21.6247 244.055 21.4059 243.581 21.4059Z" fill="#AED3BD"/>
<path d="M248.941 28.0064V27.2527L249.816 27.0704C249.816 26.6693 249.829 26.256 249.829 25.8062V23.6912C249.829 23.3873 249.829 23.1442 249.816 22.9497C249.816 22.7552 249.816 22.585 249.804 22.4148C249.804 22.2447 249.804 22.0502 249.792 21.8435L248.82 21.6976V21.0777L251.98 20.008L252.272 20.1904L252.418 22.0866C252.636 21.4059 252.953 20.8954 253.366 20.5429C253.767 20.1904 254.168 20.008 254.569 20.008C254.922 20.008 255.226 20.1053 255.481 20.3119C255.736 20.5064 255.894 20.7981 255.967 21.1993C255.967 21.6126 255.846 21.9408 255.627 22.1717C255.408 22.3905 255.141 22.5121 254.824 22.5121C254.375 22.5121 253.961 22.2568 253.585 21.7584L253.487 21.6247C253.256 21.8435 253.038 22.1352 252.831 22.4756C252.636 22.816 252.503 23.1806 252.418 23.5453V25.7698C252.418 26.1952 252.418 26.5963 252.43 26.9732L253.694 27.2406V27.9942H248.953L248.941 28.0064Z" fill="#AED3BD"/>
<path d="M260.27 20.8468C259.966 20.8468 259.699 21.0291 259.431 21.4059C259.188 21.7706 259.042 22.4391 259.018 23.4237H260.38C260.769 23.4237 261.024 23.3508 261.145 23.2049C261.279 23.0469 261.352 22.7795 261.352 22.4148C261.352 21.88 261.243 21.491 261.036 21.2236C260.817 20.9683 260.562 20.8346 260.27 20.8346V20.8468ZM260.307 28.2495C259.529 28.2495 258.836 28.0915 258.24 27.7633C257.645 27.4351 257.171 26.961 256.83 26.3532C256.49 25.7333 256.32 24.9918 256.32 24.1409C256.32 23.2414 256.514 22.4878 256.915 21.88C257.316 21.2601 257.839 20.7981 258.471 20.4821C259.103 20.1661 259.76 19.9959 260.44 19.9959C261.121 19.9959 261.741 20.1417 262.239 20.4456C262.738 20.7495 263.115 21.1507 263.382 21.6612C263.637 22.1596 263.771 22.743 263.771 23.3873C263.771 23.6912 263.735 23.9829 263.674 24.2382H259.042C259.091 25.0769 259.322 25.709 259.735 26.1101C260.149 26.5113 260.635 26.7057 261.194 26.7057C261.632 26.7057 262.008 26.6207 262.312 26.4626C262.616 26.2925 262.896 26.0858 263.127 25.8427L263.686 26.3532C263.358 26.9853 262.908 27.4594 262.337 27.7633C261.765 28.0672 261.097 28.2252 260.319 28.2252L260.307 28.2495Z" fill="#AED3BD"/>
<path d="M267.636 28.2495C266.628 28.2495 265.692 28.0064 264.853 27.508L264.901 25.551H266.178L266.445 27.1433C266.64 27.2163 266.834 27.277 267.017 27.3257C267.211 27.3621 267.418 27.3743 267.636 27.3743C268.098 27.3743 268.451 27.3014 268.694 27.1555C268.937 26.9975 269.059 26.7544 269.059 26.4383C269.059 26.1952 268.974 25.9764 268.791 25.7941C268.609 25.6117 268.256 25.4416 267.722 25.2957L266.859 25.0404C266.239 24.8581 265.752 24.5664 265.412 24.1531C265.084 23.7519 264.914 23.2414 264.914 22.6458C264.914 21.9043 265.205 21.2844 265.777 20.786C266.348 20.2754 267.187 20.0202 268.256 20.0202C268.73 20.0202 269.156 20.081 269.557 20.2025C269.958 20.3119 270.371 20.4699 270.797 20.6887L270.688 22.4391H269.411L269.095 21.0656C268.876 20.9805 268.572 20.9318 268.208 20.9318C267.843 20.9318 267.551 21.0048 267.333 21.1506C267.114 21.2965 267.017 21.5275 267.017 21.8192C267.017 22.038 267.102 22.2203 267.272 22.3905C267.442 22.5485 267.807 22.7187 268.366 22.8889L269.156 23.1077C269.91 23.3265 270.457 23.6547 270.785 24.068C271.113 24.4813 271.283 24.9918 271.283 25.5874C271.283 26.4261 270.955 27.0826 270.311 27.5566C269.666 28.0185 268.779 28.2495 267.649 28.2495H267.636Z" fill="#AED3BD"/>
</g>
<path d="M275.088 28.2495C274.079 28.2495 273.143 28.0064 272.304 27.508L272.353 25.551H273.629L273.897 27.1433C274.091 27.2163 274.286 27.277 274.468 27.3257C274.662 27.3621 274.869 27.3743 275.088 27.3743C275.55 27.3743 275.902 27.3014 276.145 27.1555C276.388 26.9975 276.51 26.7544 276.51 26.4383C276.51 26.1952 276.425 25.9764 276.243 25.7941C276.06 25.6117 275.708 25.4416 275.173 25.2957L274.31 25.0404C273.69 24.8581 273.204 24.5664 272.863 24.1531C272.535 23.7519 272.365 23.2414 272.365 22.6458C272.365 21.9043 272.657 21.2844 273.228 20.786C273.799 20.2754 274.638 20.0202 275.708 20.0202C276.182 20.0202 276.607 20.081 277.008 20.2025C277.41 20.3119 277.823 20.4699 278.236 20.6887L278.127 22.4391H276.85L276.534 21.0656C276.316 20.9805 276.012 20.9318 275.659 20.9318C275.307 20.9318 275.003 21.0048 274.772 21.1506C274.553 21.2965 274.456 21.5275 274.456 21.8192C274.456 22.038 274.541 22.2203 274.711 22.3905C274.881 22.5485 275.246 22.7187 275.805 22.8889L276.595 23.1077C277.349 23.3265 277.896 23.6547 278.224 24.068C278.552 24.4813 278.722 24.9918 278.722 25.5874C278.722 26.4261 278.394 27.0826 277.75 27.5566C277.106 28.0185 276.218 28.2495 275.088 28.2495Z" fill="#AED3BD"/>
<defs>
<linearGradient id="paint0_linear_62559_6447" x1="147.758" y1="185.992" x2="147.758" y2="0" gradientUnits="userSpaceOnUse">
<filter id="blurFilter" x="-50%" y="-50%" width="200%" height="200%">
  <feGaussianBlur in="SourceGraphic" stdDeviation="4.86"/>
</filter>
<stop stop-color="#002F2B"/>
<stop offset="1" stop-color="#004843"/>
</linearGradient>
<linearGradient id="paint1_linear_62559_6447" x1="42.7222" y1="81.2842" x2="48.5812" y2="71.3896" gradientUnits="userSpaceOnUse">
<stop/>
<stop offset="1" stop-color="#242424"/>
</linearGradient>
<linearGradient id="paint2_linear_62559_6447" x1="35.0521" y1="55.405" x2="53.9175" y2="87.4592" gradientUnits="userSpaceOnUse">
<stop offset="0.1" stop-color="#431610"/>
<stop offset="0.2" stop-color="#451810"/>
<stop offset="0.26" stop-color="#4E2113"/>
<stop offset="0.32" stop-color="#5E2F17"/>
<stop offset="0.37" stop-color="#73431C"/>
<stop offset="0.38" stop-color="#79491E"/>
<stop offset="0.82" stop-color="#481D13"/>
</linearGradient>
<linearGradient id="paint3_linear_62559_6447" x1="35.1736" y1="53.5088" x2="49.9183" y2="81.2113" gradientUnits="userSpaceOnUse">
<stop offset="0.16" stop-color="#E7D587"/>
<stop offset="0.43" stop-color="#F2E9AA"/>
<stop offset="0.62" stop-color="#F9F6BF"/>
<stop offset="1" stop-color="#CBA42C"/>
</linearGradient>
<linearGradient id="paint4_linear_62559_6447" x1="52.7992" y1="54.8702" x2="59.6549" y2="74.8782" gradientUnits="userSpaceOnUse">
<stop offset="0.16" stop-color="#E7D587"/>
<stop offset="0.43" stop-color="#F2E9AA"/>
<stop offset="0.62" stop-color="#F9F6BF"/>
<stop offset="1" stop-color="#CBA42C"/>
</linearGradient>
<linearGradient id="paint5_linear_62559_6447" x1="26.8714" y1="56.6571" x2="36.1461" y2="82.7429" gradientUnits="userSpaceOnUse">
<stop offset="0.16" stop-color="#E7D587"/>
<stop offset="0.43" stop-color="#F2E9AA"/>
<stop offset="0.62" stop-color="#F9F6BF"/>
<stop offset="1" stop-color="#CBA42C"/>
</linearGradient>
<linearGradient id="paint6_linear_62559_6447" x1="40.1331" y1="55.6846" x2="47.3171" y2="77.674" gradientUnits="userSpaceOnUse">
<stop offset="0.16" stop-color="#E7D587"/>
<stop offset="0.42" stop-color="#F2E9AA"/>
<stop offset="0.6" stop-color="#F9F6BF"/>
<stop offset="1" stop-color="#CBA42C"/>
</linearGradient>
<linearGradient id="paint7_linear_62559_6447" x1="52.9451" y1="78.6708" x2="40.0359" y2="70.4171" gradientUnits="userSpaceOnUse">
<stop stop-color="#FCD45C"/>
<stop offset="0.45" stop-color="#E0B255"/>
<stop offset="0.83" stop-color="white"/>
</linearGradient>
<linearGradient id="paint8_linear_62559_6447" x1="41.689" y1="59.9391" x2="47.3049" y2="77.1513" gradientUnits="userSpaceOnUse">
<stop offset="0.01" stop-color="#E7D587"/>
<stop offset="0.31" stop-color="#F2E9AA"/>
<stop offset="0.53" stop-color="#F9F6BF"/>
<stop offset="1" stop-color="#CBA42C"/>
</linearGradient>
<clipPath id="clip0_62559_6447">
<path d="M295.205 156.734C295.266 157.536 295.23 158.849 295.23 158.849V175.089C295.23 181.142 290.416 185.992 284.363 185.992H11.3366C5.28312 185.992 0.189941 181.227 0.189941 175.174V11.098C0.189941 5.04456 5.28312 0 11.3366 0H284.375C290.428 0 295.327 4.91085 295.327 10.9522L295.266 108.379V110.883L295.242 110.907C291.741 116.098 289.261 123.768 288.921 130.016C288.848 131.426 288.836 132.933 288.836 134.38C288.836 142.439 290.999 150.595 295.181 156.709L295.205 156.734Z" fill="white"/>
</clipPath>
</defs>
</svg>
