<svg width="296" height="187" viewBox="0 0 296 187" fill="none" xmlns="http://www.w3.org/2000/svg">
<g clip-path="url(#clip0_62559_6373)">
<path d="M295.205 156.734C295.266 157.536 295.23 158.849 295.23 158.849V175.089C295.23 181.142 290.416 185.992 284.363 185.992H11.3366C5.28312 185.992 0.189941 181.227 0.189941 175.174V11.098C0.189941 5.04456 5.28312 0 11.3366 0H284.375C290.428 0 295.327 4.91085 295.327 10.9522L295.266 108.379V110.883L295.242 110.907C291.741 116.098 289.261 123.768 288.921 130.016C288.848 131.426 288.836 132.933 288.836 134.38C288.836 142.439 290.999 150.595 295.181 156.709L295.205 156.734Z" fill="url(#paint0_linear_62559_6373)"/>
<mask id="mask0_62559_6373" style="mask-type:luminance" maskUnits="userSpaceOnUse" x="0" y="0" width="296" height="187">
<path d="M284.606 0.20665H11.5675C5.5188 0.20665 0.615356 5.1101 0.615356 11.1588V175.101C0.615356 181.149 5.5188 186.053 11.5675 186.053H284.606C290.654 186.053 295.558 181.149 295.558 175.101V11.1588C295.558 5.1101 290.654 0.20665 284.606 0.20665Z" fill="white"/>
</mask>
<g mask="url(#mask0_62559_6373)">
<path d="M-11.3214 -6.39381H40.6679L132.771 86.0735L40.6679 191.754H-11.3214L54.039 86.0735L-11.3214 -6.39381Z" fill="#15615B"/>
<path d="M93.7512 -6.39381H145.741L237.843 86.0735L145.741 191.754H93.7512L159.112 86.0735L93.7512 -6.39381Z" fill="#15615B"/>
</g>
<g filter="url(#blurFilterLocked)">
<path d="M243.386 156.709C243.386 162.726 253.901 166.859 249.598 170.372C246.328 173.034 242.171 174.627 237.649 174.627C227.146 174.627 218.637 166.045 218.637 155.457C218.637 144.87 227.146 136.288 237.649 136.288C242.244 136.288 246.462 137.929 249.744 140.664C253.974 144.177 243.398 150.753 243.398 156.709" fill="#ED1C24"/>
<path d="M280.157 155.457C280.157 166.045 271.648 174.627 261.145 174.627C256.709 174.627 252.624 173.095 249.391 170.53C249.391 170.53 249.452 170.372 249.44 170.372C249.087 170.081 249.209 169.898 248.856 169.582C245.051 166.081 255.566 161.535 255.566 155.931C255.566 150.328 244.553 144.712 248.431 141.199C251.798 138.148 256.247 136.288 261.133 136.288C271.636 136.288 280.145 144.87 280.145 155.457" fill="#F99F1C"/>
<path d="M256.66 155.457C256.66 149.343 253.816 143.897 249.403 140.384C244.979 143.897 242.146 149.343 242.146 155.457C242.146 161.572 244.991 167.017 249.403 170.53C253.828 167.017 256.66 161.572 256.66 155.457Z" fill="#F37021"/>
<path d="M278.346 167.333V166.713H278.589V166.592H277.957V166.713H278.2V167.333H278.333M279.561 167.333V166.592H279.367L279.148 167.102L278.929 166.592H278.734V167.333H278.868V166.774L279.075 167.26H279.221L279.427 166.774V167.333H279.561Z" fill="#F99F1C"/>
<path d="M240.834 113.557C241.235 113.557 241.563 113.618 241.842 113.752C242.122 113.885 242.365 114.056 242.547 114.274V111.539H244.116V119.234H242.572V118.626C242.377 118.845 242.134 119.027 241.855 119.173C241.575 119.319 241.223 119.38 240.821 119.38C240.42 119.38 240.043 119.307 239.703 119.161C239.351 119.015 239.059 118.808 238.804 118.553C238.548 118.298 238.354 117.982 238.208 117.629C238.062 117.277 237.989 116.888 237.989 116.475C237.989 116.061 238.062 115.672 238.208 115.32C238.354 114.967 238.548 114.651 238.804 114.396C239.059 114.141 239.363 113.934 239.703 113.788C240.043 113.642 240.42 113.569 240.821 113.569M241.125 114.955C240.894 114.955 240.688 114.992 240.505 115.077C240.323 115.162 240.165 115.259 240.031 115.405C239.898 115.539 239.8 115.709 239.727 115.891C239.654 116.073 239.618 116.28 239.618 116.487C239.618 116.693 239.654 116.9 239.727 117.082C239.8 117.265 239.898 117.423 240.031 117.569C240.165 117.702 240.323 117.812 240.505 117.897C240.688 117.982 240.906 118.018 241.125 118.018C241.344 118.018 241.563 117.982 241.745 117.909C241.928 117.836 242.086 117.727 242.219 117.593C242.353 117.459 242.45 117.289 242.523 117.107C242.596 116.924 242.633 116.718 242.633 116.499C242.633 116.28 242.596 116.086 242.523 115.891C242.45 115.709 242.353 115.539 242.219 115.405C242.086 115.271 241.928 115.162 241.745 115.089C241.563 115.016 241.356 114.979 241.125 114.979V114.955ZM248.37 113.557C248.795 113.557 249.184 113.63 249.525 113.764C249.877 113.91 250.169 114.104 250.424 114.359C250.68 114.615 250.862 114.919 251.008 115.283C251.141 115.648 251.214 116.037 251.214 116.462C251.214 116.547 251.214 116.645 251.214 116.73C251.214 116.815 251.202 116.9 251.19 116.961H247.033C247.069 117.167 247.142 117.338 247.227 117.471C247.325 117.617 247.434 117.739 247.568 117.824C247.701 117.921 247.847 117.994 248.005 118.03C248.175 118.079 248.346 118.103 248.528 118.103C248.783 118.103 249.039 118.055 249.294 117.97C249.549 117.885 249.792 117.751 249.999 117.581L250.923 118.541C250.582 118.833 250.205 119.039 249.792 119.173C249.379 119.307 248.917 119.38 248.419 119.38C247.969 119.38 247.556 119.307 247.191 119.173C246.814 119.039 246.498 118.833 246.231 118.59C245.963 118.334 245.757 118.03 245.611 117.678C245.465 117.325 245.38 116.924 245.38 116.487C245.38 116.049 245.453 115.66 245.599 115.295C245.744 114.931 245.951 114.627 246.206 114.372C246.462 114.116 246.778 113.91 247.142 113.776C247.507 113.63 247.908 113.557 248.346 113.557H248.37ZM248.358 114.846C247.981 114.846 247.689 114.943 247.47 115.137C247.252 115.332 247.106 115.599 247.045 115.952H249.634C249.561 115.587 249.415 115.32 249.197 115.125C248.978 114.931 248.698 114.846 248.358 114.846ZM255.773 113.557C256.174 113.557 256.551 113.63 256.903 113.776C257.244 113.922 257.547 114.129 257.803 114.384C258.058 114.639 258.252 114.955 258.398 115.308C258.544 115.66 258.617 116.049 258.617 116.462C258.617 116.876 258.544 117.265 258.398 117.617C258.252 117.97 258.058 118.286 257.803 118.541C257.547 118.796 257.244 119.003 256.903 119.149C256.563 119.295 256.186 119.368 255.773 119.368C255.359 119.368 255.019 119.295 254.739 119.161C254.46 119.027 254.217 118.845 254.022 118.614V119.222H252.479V111.527H254.047V114.262C254.241 114.043 254.472 113.873 254.752 113.74C255.031 113.606 255.372 113.545 255.761 113.545L255.773 113.557ZM255.493 114.955C255.262 114.955 255.068 114.992 254.885 115.064C254.703 115.137 254.545 115.247 254.411 115.381C254.278 115.514 254.18 115.684 254.107 115.867C254.034 116.049 253.998 116.256 253.998 116.475C253.998 116.693 254.034 116.9 254.107 117.082C254.18 117.265 254.278 117.435 254.411 117.569C254.545 117.702 254.703 117.812 254.885 117.885C255.068 117.958 255.274 117.994 255.493 117.994C255.712 117.994 255.931 117.958 256.125 117.872C256.308 117.787 256.466 117.678 256.599 117.544C256.733 117.411 256.83 117.24 256.903 117.058C256.976 116.876 257.013 116.669 257.013 116.462C257.013 116.256 256.976 116.061 256.903 115.867C256.83 115.684 256.733 115.514 256.599 115.381C256.466 115.247 256.308 115.137 256.125 115.052C255.943 114.967 255.736 114.931 255.493 114.931V114.955ZM261.437 119.258H259.857V113.715H261.437V119.258ZM267.272 115.04H265.145V117.058C265.145 117.228 265.169 117.374 265.218 117.496C265.266 117.617 265.327 117.714 265.4 117.787C265.473 117.86 265.57 117.921 265.679 117.945C265.789 117.982 265.898 117.994 266.02 117.994C266.214 117.994 266.397 117.958 266.591 117.885C266.786 117.812 266.956 117.727 267.126 117.641L267.709 118.808C267.454 118.979 267.162 119.112 266.859 119.222C266.555 119.331 266.19 119.392 265.765 119.392C265.035 119.392 264.488 119.197 264.124 118.821C263.759 118.444 263.577 117.897 263.577 117.167V115.028H262.446V113.703H263.577V112.05H265.157V113.703H267.284V115.028L267.272 115.04ZM260.647 110.992C260.793 110.992 260.915 111.017 261.048 111.065C261.17 111.114 261.279 111.187 261.364 111.272C261.449 111.357 261.522 111.454 261.583 111.576C261.632 111.697 261.656 111.819 261.656 111.953C261.656 112.086 261.632 112.208 261.583 112.329C261.534 112.451 261.462 112.548 261.364 112.633C261.267 112.718 261.17 112.791 261.048 112.84C260.927 112.889 260.793 112.913 260.647 112.913C260.501 112.913 260.38 112.889 260.246 112.84C260.124 112.791 260.015 112.731 259.93 112.633C259.845 112.548 259.772 112.451 259.723 112.329C259.675 112.208 259.65 112.086 259.65 111.953C259.65 111.819 259.675 111.697 259.723 111.576C259.772 111.454 259.845 111.357 259.93 111.272C260.027 111.187 260.124 111.114 260.246 111.065C260.368 111.017 260.501 110.992 260.647 110.992Z" fill="#AED3BD"/>
<path d="M11.677 74.3798C11.8471 74.6108 11.9808 74.8539 12.0659 75.1335C12.1632 75.4009 12.2118 75.6926 12.2118 75.9965C12.2118 76.3004 12.1632 76.5921 12.0659 76.8596C11.9808 77.127 11.8471 77.3823 11.677 77.6132C11.446 77.9171 11.5068 78.3547 11.8228 78.5857C12.1267 78.8166 12.5643 78.7437 12.7953 78.4398C13.0505 78.0994 13.245 77.7226 13.3909 77.3093C13.5246 76.896 13.5975 76.4584 13.5975 75.9965C13.5975 75.5346 13.5246 75.097 13.3909 74.6837C13.245 74.2704 13.0505 73.8936 12.7953 73.5533C12.5643 73.2494 12.1267 73.1764 11.8228 73.4074C11.5068 73.6383 11.446 74.0759 11.677 74.3798Z" fill="#AED3BD"/>
<path d="M14.0595 73.0913C14.5821 73.9422 14.886 74.9268 14.886 75.9965C14.886 77.0662 14.5821 78.063 14.0595 78.9017C13.865 79.2299 13.9622 79.6553 14.2904 79.862C14.6186 80.0686 15.0441 79.9592 15.2507 79.631C15.9071 78.5735 16.2839 77.3215 16.2839 75.9965C16.2839 74.6594 15.9071 73.4195 15.2507 72.362C15.0441 72.0338 14.6186 71.9366 14.2904 72.1311C13.9622 72.3377 13.865 72.7631 14.0595 73.0913Z" fill="#AED3BD"/>
<path d="M16.5878 71.7664C17.3171 73.0063 17.7304 74.4528 17.7304 75.9965C17.7304 77.5403 17.3171 78.9868 16.5878 80.2267C16.3933 80.567 16.5027 80.9803 16.843 81.1748C17.1712 81.3693 17.5967 81.2599 17.7912 80.9195C18.6421 79.473 19.1161 77.7834 19.1161 75.9844C19.1161 74.1853 18.6299 72.5079 17.7912 71.0614C17.5967 70.7332 17.1712 70.6238 16.843 70.8061C16.5148 71.0006 16.4054 71.426 16.5878 71.7542" fill="#AED3BD"/>
<path d="M19.104 70.4414C20.04 72.0824 20.5627 73.9665 20.5748 75.9965C20.5748 78.0265 20.04 79.9106 19.104 81.5516C18.9217 81.8798 19.0311 82.3053 19.3714 82.4998C19.6996 82.6942 20.1251 82.5727 20.3196 82.2445C21.365 80.409 21.9606 78.2696 21.9606 76.0087C21.9606 73.7477 21.365 71.6084 20.3196 69.7729C20.1251 69.4447 19.6996 69.3231 19.3714 69.5176C19.0311 69.7121 18.9217 70.1254 19.104 70.4657" fill="#AED3BD"/>
<path opacity="0.89" d="M62.5358 82.1472C62.5358 84.8701 60.3235 87.0702 57.6006 87.0702H35.6234C32.8884 87.0702 30.6761 84.8579 30.6761 82.1472V67.3418C30.6761 64.6068 32.8884 62.3945 35.6234 62.3945H57.6006C60.3235 62.3945 62.5358 64.6068 62.5358 67.3418V82.1472Z" fill="url(#paint1_linear_62559_6373)"/>
<path d="M62.2076 81.8798C62.2076 84.6148 59.9953 86.8028 57.2846 86.8028H35.3073C32.5723 86.8028 30.3722 84.6027 30.3722 81.8798V67.0744C30.3722 64.3394 32.5845 62.1514 35.3073 62.1514H57.2846C59.9953 62.1514 62.2076 64.3515 62.2076 67.0744V81.8798Z" fill="url(#paint2_linear_62559_6373)"/>
<path d="M62.0131 81.7826C62.0131 84.4568 59.8373 86.6326 57.1509 86.6326H35.5383C32.8519 86.6326 30.6761 84.4568 30.6761 81.7826V67.2081C30.6761 64.5338 32.8519 62.358 35.5383 62.358H57.1509C59.8373 62.358 62.0131 64.5338 62.0131 67.2081V81.7826Z" fill="url(#paint3_linear_62559_6373)"/>
<path d="M57.3818 62.358H35.7693C33.0829 62.358 30.907 64.5338 30.907 67.2081V81.7826C30.907 84.4568 33.0829 86.6326 35.7693 86.6326H57.3818C60.0682 86.6326 62.2441 84.4568 62.2441 81.7826V67.2081C62.2441 64.5338 60.0682 62.358 57.3818 62.358ZM51.0974 78.4884C51.0974 81.1505 49.0674 84.469 46.5756 84.469C44.0837 84.469 42.0537 81.1505 42.0537 78.4884C42.0537 76.9325 42.7587 75.5468 43.8284 74.6716C42.7587 73.7842 42.0537 72.4106 42.0537 70.8426C42.0537 68.1805 44.1201 64.7526 46.612 64.7526C49.1039 64.7526 51.0974 68.1684 51.0974 70.8426C51.0974 72.3985 50.3924 73.7842 49.3227 74.6716C50.4046 75.5589 51.0974 76.9325 51.0974 78.4884Z" fill="#4E2914"/>
<path d="M62.0131 69.0679V67.2202C62.0131 64.9714 60.4694 63.0752 58.3786 62.5282V69.0679H62.0131ZM58.3665 86.4868C60.4572 85.9519 62.001 84.0557 62.001 81.7947V80.0565H58.3665V86.4989V86.4868ZM58.3665 79.6797H62.001V74.9755H58.3665V79.6797ZM58.3665 69.4447V74.5986H62.001V69.4447H58.3665Z" fill="url(#paint4_linear_62559_6373)"/>
<path d="M30.907 80.0686V81.8069C30.907 83.922 32.2928 85.7331 34.2012 86.3774V80.0565H30.907V80.0686ZM34.2012 74.9876H30.907V79.6918H34.2012V74.9876ZM34.2012 69.4568H30.907V74.6108H34.2012V69.4568ZM34.2012 62.6376C32.2928 63.2818 30.907 65.093 30.907 67.2324V69.08H34.2012V62.6497V62.6376Z" fill="url(#paint5_linear_62559_6373)"/>
<path d="M34.3836 80.0686V86.4868C34.7847 86.584 35.198 86.657 35.6477 86.657H57.2725C57.5764 86.657 57.8681 86.6205 58.172 86.5597V80.0565H34.3957L34.3836 80.0686ZM34.3836 74.5986H58.1598V69.4447H34.3836V74.5986ZM34.3836 79.6918H58.1598V74.9876H34.3836V79.6918ZM58.1598 69.08V62.4674C57.8559 62.4188 57.5642 62.3945 57.2603 62.3945H35.6356C35.198 62.3945 34.7725 62.4431 34.3714 62.5646V69.0922H58.1477L58.1598 69.08Z" fill="url(#paint6_linear_62559_6373)"/>
<path d="M46.2352 65.2267V62.3458H46.4175V65.2267H46.2352Z" fill="#4E2914"/>
<path d="M46.7579 65.2267V62.3458H46.9402V65.2267H46.7579Z" fill="#4E2914"/>
<path d="M46.2352 86.6934V84.238H46.4175V86.6934H46.2352Z" fill="#4E2914"/>
<path d="M46.7579 86.6934V84.238H46.9402V86.6934H46.7579Z" fill="#4E2914"/>
<path d="M42.0051 78.4155C42.0051 76.9325 42.6493 75.6076 43.6947 74.7202C42.6615 73.8328 42.0051 72.5079 42.0051 71.0249C42.0172 68.3872 44.0837 65.0201 46.7214 64.9958C49.3592 65.0201 51.3405 68.3872 51.3527 71.0249C51.3527 72.5079 50.6963 73.8328 49.6631 74.7202C50.6841 75.6076 51.3527 76.9325 51.3527 78.4155C51.3527 81.0532 49.3106 84.3109 46.6728 84.3352C44.0472 84.3109 42.0172 81.0532 42.0051 78.4155ZM43.6218 67.2202C42.8073 68.3385 42.2968 69.785 42.2968 71.0249C42.2968 72.4836 42.9775 73.7721 44.0107 74.5865C44.0107 74.5865 44.0715 74.6594 44.0715 74.7202C44.0715 74.7202 44.0472 74.8174 44.0107 74.8418C42.9775 75.6562 42.2968 76.969 42.2968 78.4155C42.2968 79.6675 42.7952 81.0654 43.5974 82.1716C44.3997 83.2656 45.4937 84.0314 46.6728 84.0314C47.8519 84.0314 48.9459 83.2656 49.7603 82.1716C50.5626 81.0654 51.061 79.6675 51.061 78.4155C51.061 76.9568 50.3681 75.6562 49.347 74.8418C49.347 74.8418 49.2862 74.7688 49.2862 74.7202C49.2862 74.7202 49.3106 74.6351 49.347 74.5865C50.3802 73.7721 51.061 72.4836 51.061 71.0249C51.061 69.7729 50.5626 68.3264 49.7846 67.1959C48.9945 66.0776 47.9005 65.2996 46.7336 65.2996C45.5666 65.2996 44.4605 66.0776 43.6461 67.2081L43.6218 67.2202Z" fill="url(#paint7_linear_62559_6373)"/>
<path d="M41.847 78.4763C41.847 76.9933 42.4913 75.6683 43.5367 74.781C42.4913 73.8936 41.847 72.5687 41.847 71.0857C41.847 68.4479 43.9256 65.093 46.5634 65.0687C49.2012 65.093 51.1825 68.4479 51.1947 71.0857C51.1947 72.5687 50.5383 73.8936 49.505 74.781C50.5383 75.6683 51.1947 76.9933 51.1947 78.4763C51.1947 81.114 49.1525 84.3717 46.5148 84.396C43.8892 84.3839 41.8592 81.1262 41.847 78.4763ZM43.4637 67.281C42.6493 68.3993 42.1388 69.8458 42.1388 71.0857C42.1388 72.5443 42.8195 73.8328 43.8527 74.6594C43.8527 74.6594 43.9135 74.7323 43.9135 74.781C43.9135 74.781 43.8892 74.8661 43.8527 74.8904C42.8073 75.7291 42.1388 77.0176 42.1388 78.4641C42.1388 79.7161 42.6372 81.1262 43.4394 82.2202C44.2417 83.3142 45.3357 84.08 46.5148 84.08C47.6939 84.08 48.7879 83.3142 49.6023 82.2202C50.4046 81.1262 50.8908 79.7161 50.8908 78.4641C50.8908 77.0054 50.2101 75.7169 49.1768 74.8904C49.1768 74.8904 49.1282 74.8174 49.1282 74.781C49.1282 74.781 49.1525 74.6837 49.1768 74.6594C50.2222 73.8328 50.8908 72.5443 50.8908 71.0857C50.8908 69.8337 50.4046 68.3993 49.6144 67.281C48.8365 66.1505 47.7425 65.3726 46.5756 65.3726H46.5634C45.3965 65.3726 44.2903 66.1627 43.488 67.281H43.4637Z" fill="#4E2914"/>
<path d="M46.5634 65.324C44.1688 65.324 42.1631 68.5938 42.1631 71.1343C42.1631 72.6173 42.8438 73.9301 43.877 74.7688C42.8316 75.6197 42.1631 76.9325 42.1631 78.4033C42.1631 80.956 44.1201 84.1164 46.5148 84.1164C48.9094 84.1164 50.8665 80.956 50.8665 78.4033C50.8665 76.9204 50.1979 75.6076 49.1647 74.7688C50.1979 73.9179 50.8665 72.6051 50.8665 71.1343C50.8665 68.5816 48.9702 65.324 46.5512 65.324H46.5634Z" fill="url(#paint8_linear_62559_6373)"/>
<path d="M154.19 73.4471H153.19V71.4471C153.19 68.6871 150.95 66.4471 148.19 66.4471C145.43 66.4471 143.19 68.6871 143.19 71.4471V73.4471H142.19C141.09 73.4471 140.19 74.3471 140.19 75.4471V85.4471C140.19 86.5471 141.09 87.4471 142.19 87.4471H154.19C155.29 87.4471 156.19 86.5471 156.19 85.4471V75.4471C156.19 74.3471 155.29 73.4471 154.19 73.4471ZM145.19 71.4471C145.19 69.7871 146.53 68.4471 148.19 68.4471C149.85 68.4471 151.19 69.7871 151.19 71.4471V73.4471H145.19V71.4471ZM154.19 85.4471H142.19V75.4471H154.19V85.4471ZM148.19 82.4471C149.29 82.4471 150.19 81.5471 150.19 80.4471C150.19 79.3471 149.29 78.4471 148.19 78.4471C147.09 78.4471 146.19 79.3471 146.19 80.4471C146.19 81.5471 147.09 82.4471 148.19 82.4471Z" fill="white"/>
<path d="M103.748 107.323C103.291 107.323 102.885 107.407 102.53 107.575C102.175 107.743 101.872 107.986 101.62 108.303C101.377 108.62 101.191 109.003 101.06 109.451C100.939 109.899 100.878 110.403 100.878 110.963C100.878 111.719 100.981 112.368 101.186 112.909C101.391 113.441 101.704 113.852 102.124 114.141C102.553 114.43 103.09 114.575 103.734 114.575C104.163 114.575 104.574 114.533 104.966 114.449C105.367 114.356 105.787 114.234 106.226 114.085V115.611C105.815 115.779 105.4 115.9 104.98 115.975C104.569 116.05 104.093 116.087 103.552 116.087C102.525 116.087 101.676 115.877 101.004 115.457C100.332 115.028 99.8326 114.43 99.5059 113.665C99.1793 112.89 99.0159 111.985 99.0159 110.949C99.0159 110.193 99.1186 109.502 99.3239 108.877C99.5386 108.252 99.8419 107.71 100.234 107.253C100.635 106.796 101.13 106.441 101.718 106.189C102.306 105.937 102.983 105.811 103.748 105.811C104.252 105.811 104.747 105.872 105.232 105.993C105.727 106.105 106.189 106.264 106.618 106.469L106.002 107.939C105.647 107.78 105.279 107.64 104.896 107.519C104.523 107.388 104.14 107.323 103.748 107.323ZM111.335 108.219C112.315 108.219 113.057 108.434 113.561 108.863C114.074 109.283 114.331 109.946 114.331 110.851V115.947H113.085L112.735 114.897H112.679C112.464 115.168 112.24 115.396 112.007 115.583C111.783 115.76 111.521 115.886 111.223 115.961C110.933 116.045 110.579 116.087 110.159 116.087C109.711 116.087 109.305 116.003 108.941 115.835C108.586 115.667 108.306 115.41 108.101 115.065C107.895 114.71 107.793 114.267 107.793 113.735C107.793 112.951 108.077 112.363 108.647 111.971C109.225 111.57 110.098 111.35 111.265 111.313L112.581 111.271V110.893C112.581 110.408 112.464 110.062 112.231 109.857C111.997 109.652 111.671 109.549 111.251 109.549C110.868 109.549 110.499 109.605 110.145 109.717C109.79 109.829 109.445 109.96 109.109 110.109L108.549 108.877C108.922 108.681 109.347 108.522 109.823 108.401C110.308 108.28 110.812 108.219 111.335 108.219ZM111.657 112.391C110.882 112.419 110.345 112.554 110.047 112.797C109.748 113.03 109.599 113.348 109.599 113.749C109.599 114.104 109.706 114.36 109.921 114.519C110.135 114.678 110.411 114.757 110.747 114.757C111.26 114.757 111.694 114.612 112.049 114.323C112.403 114.024 112.581 113.586 112.581 113.007V112.363L111.657 112.391ZM120.617 108.219C120.729 108.219 120.86 108.224 121.009 108.233C121.158 108.242 121.284 108.261 121.387 108.289L121.233 109.927C121.149 109.908 121.037 109.894 120.897 109.885C120.766 109.866 120.65 109.857 120.547 109.857C120.267 109.857 119.996 109.904 119.735 109.997C119.483 110.081 119.254 110.212 119.049 110.389C118.853 110.557 118.694 110.776 118.573 111.047C118.461 111.318 118.405 111.64 118.405 112.013V115.947H116.641V108.359H117.999L118.251 109.675H118.335C118.484 109.404 118.671 109.162 118.895 108.947C119.119 108.723 119.376 108.546 119.665 108.415C119.964 108.284 120.281 108.219 120.617 108.219ZM125.126 116.087C124.249 116.087 123.535 115.76 122.984 115.107C122.443 114.444 122.172 113.464 122.172 112.167C122.172 110.87 122.447 109.89 122.998 109.227C123.549 108.555 124.272 108.219 125.168 108.219C125.541 108.219 125.868 108.27 126.148 108.373C126.437 108.466 126.685 108.597 126.89 108.765C127.095 108.933 127.268 109.12 127.408 109.325H127.492C127.464 109.194 127.436 108.994 127.408 108.723C127.38 108.452 127.366 108.2 127.366 107.967V105.307H129.13V115.947H127.758L127.436 114.953H127.366C127.226 115.158 127.053 115.35 126.848 115.527C126.643 115.695 126.4 115.83 126.12 115.933C125.84 116.036 125.509 116.087 125.126 116.087ZM125.658 114.659C126.311 114.659 126.773 114.472 127.044 114.099C127.315 113.726 127.45 113.161 127.45 112.405V112.181C127.45 111.36 127.319 110.734 127.058 110.305C126.806 109.876 126.33 109.661 125.63 109.661C125.098 109.661 124.687 109.885 124.398 110.333C124.109 110.772 123.964 111.392 123.964 112.195C123.964 112.998 124.109 113.609 124.398 114.029C124.687 114.449 125.107 114.659 125.658 114.659ZM136.984 108.359V115.947H135.22V108.359H136.984ZM136.102 105.433C136.364 105.433 136.592 105.503 136.788 105.643C136.984 105.774 137.082 106.012 137.082 106.357C137.082 106.693 136.984 106.936 136.788 107.085C136.592 107.225 136.364 107.295 136.102 107.295C135.832 107.295 135.598 107.225 135.402 107.085C135.216 106.936 135.122 106.693 135.122 106.357C135.122 106.012 135.216 105.774 135.402 105.643C135.598 105.503 135.832 105.433 136.102 105.433ZM144.506 113.749C144.506 114.253 144.385 114.682 144.142 115.037C143.899 115.382 143.54 115.644 143.064 115.821C142.597 115.998 142.023 116.087 141.342 116.087C140.81 116.087 140.353 116.05 139.97 115.975C139.587 115.9 139.223 115.784 138.878 115.625V114.127C139.251 114.304 139.667 114.454 140.124 114.575C140.581 114.696 141.006 114.757 141.398 114.757C141.883 114.757 142.233 114.682 142.448 114.533C142.663 114.384 142.77 114.183 142.77 113.931C142.77 113.782 142.728 113.646 142.644 113.525C142.56 113.404 142.397 113.278 142.154 113.147C141.911 113.007 141.543 112.834 141.048 112.629C140.563 112.433 140.157 112.237 139.83 112.041C139.513 111.845 139.27 111.612 139.102 111.341C138.943 111.061 138.864 110.711 138.864 110.291C138.864 109.61 139.135 109.096 139.676 108.751C140.217 108.396 140.931 108.219 141.818 108.219C142.285 108.219 142.723 108.266 143.134 108.359C143.554 108.443 143.974 108.583 144.394 108.779L143.834 110.081C143.601 109.978 143.367 109.89 143.134 109.815C142.91 109.731 142.681 109.666 142.448 109.619C142.224 109.572 141.995 109.549 141.762 109.549C141.379 109.549 141.09 109.61 140.894 109.731C140.698 109.843 140.6 110.002 140.6 110.207C140.6 110.366 140.647 110.506 140.74 110.627C140.843 110.739 141.015 110.856 141.258 110.977C141.51 111.089 141.865 111.238 142.322 111.425C142.779 111.602 143.167 111.789 143.484 111.985C143.811 112.172 144.063 112.405 144.24 112.685C144.417 112.965 144.506 113.32 144.506 113.749ZM151.804 115.947H150.04V105.307H151.804V115.947ZM160.935 112.139C160.935 112.774 160.851 113.334 160.683 113.819C160.515 114.304 160.273 114.72 159.955 115.065C159.647 115.401 159.265 115.658 158.807 115.835C158.359 116.003 157.86 116.087 157.309 116.087C156.787 116.087 156.306 116.003 155.867 115.835C155.429 115.658 155.046 115.401 154.719 115.065C154.402 114.72 154.155 114.304 153.977 113.819C153.8 113.334 153.711 112.774 153.711 112.139C153.711 111.299 153.856 110.59 154.145 110.011C154.435 109.423 154.85 108.98 155.391 108.681C155.942 108.373 156.591 108.219 157.337 108.219C158.047 108.219 158.667 108.373 159.199 108.681C159.741 108.98 160.165 109.423 160.473 110.011C160.781 110.59 160.935 111.299 160.935 112.139ZM155.517 112.139C155.517 112.671 155.578 113.128 155.699 113.511C155.83 113.884 156.026 114.169 156.287 114.365C156.558 114.561 156.903 114.659 157.323 114.659C157.753 114.659 158.098 114.561 158.359 114.365C158.63 114.169 158.826 113.884 158.947 113.511C159.069 113.128 159.129 112.671 159.129 112.139C159.129 111.598 159.064 111.145 158.933 110.781C158.812 110.408 158.616 110.128 158.345 109.941C158.084 109.745 157.743 109.647 157.323 109.647C156.689 109.647 156.227 109.862 155.937 110.291C155.657 110.72 155.517 111.336 155.517 112.139ZM165.925 116.087C165.206 116.087 164.581 115.952 164.049 115.681C163.526 115.401 163.12 114.976 162.831 114.407C162.551 113.828 162.411 113.091 162.411 112.195C162.411 111.262 162.565 110.506 162.873 109.927C163.19 109.339 163.624 108.91 164.175 108.639C164.726 108.359 165.356 108.219 166.065 108.219C166.541 108.219 166.966 108.266 167.339 108.359C167.712 108.452 168.03 108.564 168.291 108.695L167.773 110.081C167.484 109.969 167.194 109.876 166.905 109.801C166.616 109.717 166.336 109.675 166.065 109.675C165.645 109.675 165.295 109.768 165.015 109.955C164.744 110.142 164.544 110.422 164.413 110.795C164.282 111.159 164.217 111.621 164.217 112.181C164.217 112.722 164.282 113.175 164.413 113.539C164.553 113.903 164.758 114.178 165.029 114.365C165.3 114.542 165.636 114.631 166.037 114.631C166.466 114.631 166.844 114.58 167.171 114.477C167.498 114.374 167.806 114.234 168.095 114.057V115.583C167.806 115.76 167.493 115.886 167.157 115.961C166.83 116.045 166.42 116.087 165.925 116.087ZM171.723 110.361C171.723 110.604 171.713 110.86 171.695 111.131C171.676 111.392 171.657 111.649 171.639 111.901H171.681C171.755 111.789 171.844 111.668 171.947 111.537C172.049 111.397 172.152 111.262 172.255 111.131C172.367 110.991 172.474 110.865 172.577 110.753L174.817 108.359H176.819L173.781 111.635L177.015 115.947H174.957L172.605 112.699L171.723 113.427V115.947H169.973V105.307H171.723V110.361ZM181.355 108.219C182.037 108.219 182.62 108.359 183.105 108.639C183.6 108.91 183.983 109.302 184.253 109.815C184.524 110.319 184.659 110.935 184.659 111.663V112.559H179.647C179.666 113.25 179.857 113.786 180.221 114.169C180.585 114.542 181.089 114.729 181.733 114.729C182.228 114.729 182.667 114.682 183.049 114.589C183.441 114.486 183.843 114.342 184.253 114.155V115.569C183.88 115.746 183.493 115.877 183.091 115.961C182.69 116.045 182.209 116.087 181.649 116.087C180.912 116.087 180.254 115.947 179.675 115.667C179.106 115.378 178.658 114.944 178.331 114.365C178.014 113.786 177.855 113.068 177.855 112.209C177.855 111.341 178 110.613 178.289 110.025C178.588 109.428 178.999 108.98 179.521 108.681C180.044 108.373 180.655 108.219 181.355 108.219ZM181.355 109.521C180.889 109.521 180.506 109.675 180.207 109.983C179.918 110.282 179.745 110.73 179.689 111.327H182.951C182.951 110.972 182.891 110.66 182.769 110.389C182.657 110.118 182.485 109.908 182.251 109.759C182.018 109.6 181.719 109.521 181.355 109.521ZM189.044 116.087C188.167 116.087 187.453 115.76 186.902 115.107C186.361 114.444 186.09 113.464 186.09 112.167C186.09 110.87 186.365 109.89 186.916 109.227C187.467 108.555 188.19 108.219 189.086 108.219C189.459 108.219 189.786 108.27 190.066 108.373C190.355 108.466 190.603 108.597 190.808 108.765C191.013 108.933 191.186 109.12 191.326 109.325H191.41C191.382 109.194 191.354 108.994 191.326 108.723C191.298 108.452 191.284 108.2 191.284 107.967V105.307H193.048V115.947H191.676L191.354 114.953H191.284C191.144 115.158 190.971 115.35 190.766 115.527C190.561 115.695 190.318 115.83 190.038 115.933C189.758 116.036 189.427 116.087 189.044 116.087ZM189.576 114.659C190.229 114.659 190.691 114.472 190.962 114.099C191.233 113.726 191.368 113.161 191.368 112.405V112.181C191.368 111.36 191.237 110.734 190.976 110.305C190.724 109.876 190.248 109.661 189.548 109.661C189.016 109.661 188.605 109.885 188.316 110.333C188.027 110.772 187.882 111.392 187.882 112.195C187.882 112.998 188.027 113.609 188.316 114.029C188.605 114.449 189.025 114.659 189.576 114.659ZM195.15 115.051C195.15 114.659 195.252 114.384 195.458 114.225C195.663 114.057 195.915 113.973 196.214 113.973C196.512 113.973 196.764 114.052 196.97 114.211C197.184 114.37 197.292 114.65 197.292 115.051C197.292 115.434 197.184 115.709 196.97 115.877C196.764 116.045 196.512 116.129 196.214 116.129C195.915 116.129 195.663 116.045 195.458 115.877C195.252 115.709 195.15 115.434 195.15 115.051Z" fill="white"/>
</g>
<rect x="0" y="0" width="296" height="187" fill="url(#lockOverlayGradient)" clip-path="url(#clip0_62559_6373)"/>
<path d="M144.403 13.286H149.57L158.735 22.4756L149.57 32.9902H144.403L150.907 22.4756L144.403 13.286Z" fill="#AED3BD"/>
<path d="M154.845 13.286H160.011L169.176 22.4756L160.011 32.9902H154.845L161.348 22.4756L154.845 13.286Z" fill="#AED3BD"/>
<path d="M177.965 22.974V25.0404C177.965 25.7212 177.989 26.4019 178.001 27.0704H178.536C179.46 27.0704 180.177 26.6936 180.7 25.9521C181.235 25.1985 181.502 24.1166 181.502 22.7309C181.502 21.3452 181.235 20.2512 180.7 19.5097C180.177 18.7682 179.46 18.4035 178.548 18.4035H178.001C178.001 19.0599 177.977 19.7285 177.965 20.4092V22.974ZM174.039 18.3427V17.4797H178.804C179.946 17.4797 180.919 17.6985 181.733 18.1239C182.548 18.5372 183.168 19.1328 183.605 19.923C184.043 20.7009 184.262 21.6369 184.262 22.7309C184.262 23.8249 184.031 24.7973 183.556 25.5874C183.082 26.3776 182.414 26.9853 181.551 27.3986C180.7 27.8119 179.679 28.0186 178.512 28.0186H174.039V27.1555L175.242 27.0218C175.266 26.3654 175.279 25.709 175.279 25.0404V20.47C175.279 19.8014 175.279 19.1328 175.242 18.4886L174.039 18.3549V18.3427Z" fill="#AED3BD"/>
<path d="M185.441 28.0064V27.2528L186.304 27.0583C186.304 26.6693 186.316 26.256 186.316 25.8063V23.8614C186.316 23.4238 186.316 23.0591 186.304 22.7674C186.304 22.4635 186.304 22.1596 186.267 21.8435L185.27 21.6977V21.0777L188.637 20.0081L188.905 20.1904L188.856 22.5121V25.8306C188.856 26.2803 188.856 26.7058 188.868 27.0947L189.671 27.2528V28.0064H185.428H185.441ZM187.58 18.829C187.203 18.829 186.887 18.7074 186.62 18.4765C186.352 18.2333 186.219 17.9295 186.219 17.5648C186.219 17.2001 186.352 16.8841 186.62 16.6531C186.887 16.41 187.203 16.2885 187.58 16.2885C187.957 16.2885 188.273 16.41 188.54 16.6531C188.808 16.8841 188.941 17.188 188.941 17.5648C188.941 17.9416 188.808 18.2333 188.54 18.4765C188.273 18.7074 187.957 18.829 187.58 18.829Z" fill="#AED3BD"/>
<path d="M190.631 28.0064V27.2528L191.518 27.0704C191.518 26.6693 191.531 26.256 191.531 25.8062V23.6912C191.531 23.3873 191.531 23.1442 191.518 22.9497C191.518 22.7552 191.518 22.585 191.506 22.4148C191.506 22.2447 191.506 22.0502 191.494 21.8435L190.522 21.6977V21.0777L193.682 20.008L193.974 20.1904L194.12 22.0866C194.338 21.4059 194.655 20.8954 195.068 20.5429C195.469 20.1904 195.87 20.008 196.271 20.008C196.624 20.008 196.928 20.1053 197.183 20.3119C197.438 20.5064 197.596 20.7982 197.669 21.1993C197.669 21.6126 197.548 21.9408 197.329 22.1717C197.11 22.3905 196.842 22.5121 196.526 22.5121C196.077 22.5121 195.663 22.2568 195.287 21.7584L195.189 21.6247C194.958 21.8435 194.74 22.1353 194.533 22.4756C194.338 22.816 194.205 23.1806 194.12 23.5453V25.7698C194.12 26.1952 194.12 26.5964 194.132 26.9732L195.396 27.2406V27.9942H190.655L190.631 28.0064Z" fill="#AED3BD"/>
<path d="M201.96 20.8468C201.656 20.8468 201.389 21.0291 201.121 21.4059C200.878 21.7706 200.732 22.4392 200.708 23.4238H202.069C202.458 23.4238 202.714 23.3508 202.835 23.205C202.969 23.0469 203.042 22.7795 203.042 22.4149C203.042 21.88 202.932 21.491 202.726 21.2236C202.507 20.9683 202.252 20.8346 201.96 20.8346V20.8468ZM201.996 28.2495C201.219 28.2495 200.526 28.0915 199.93 27.7633C199.334 27.4351 198.86 26.961 198.52 26.3533C198.18 25.7333 198.009 24.9918 198.009 24.1409C198.009 23.2414 198.204 22.4878 198.605 21.88C199.006 21.2601 199.529 20.7982 200.161 20.4821C200.793 20.1661 201.449 19.9959 202.13 19.9959C202.811 19.9959 203.431 20.1418 203.929 20.4456C204.428 20.7495 204.804 21.1507 205.072 21.6612C205.327 22.1596 205.461 22.743 205.461 23.3873C205.461 23.6912 205.424 23.9829 205.364 24.2382H200.732C200.781 25.0769 201.012 25.709 201.425 26.1101C201.838 26.5113 202.325 26.7058 202.884 26.7058C203.321 26.7058 203.698 26.6207 204.002 26.4627C204.306 26.2925 204.586 26.0858 204.817 25.8427L205.376 26.3533C205.048 26.9853 204.598 27.4594 204.026 27.7633C203.455 28.0672 202.787 28.2252 202.009 28.2252L201.996 28.2495Z" fill="#AED3BD"/>
<path d="M210.493 28.2495C209.764 28.2495 209.095 28.1036 208.488 27.7998C207.892 27.4959 207.406 27.034 207.041 26.4262C206.676 25.8184 206.494 25.0648 206.494 24.1652C206.494 23.2657 206.689 22.5364 207.065 21.9165C207.466 21.2965 207.989 20.8225 208.633 20.5064C209.29 20.1782 210.019 20.008 210.809 20.008C211.381 20.008 211.879 20.1174 212.317 20.3241C212.754 20.5429 213.107 20.8225 213.362 21.175C213.629 21.5275 213.775 21.9165 213.812 22.3419C213.641 22.9011 213.277 23.1806 212.718 23.1806C212.414 23.1806 212.134 23.0712 211.903 22.8403C211.672 22.6215 211.539 22.2204 211.502 21.649L211.393 20.8468C211.393 20.8468 211.308 20.8346 211.247 20.8346H211.089C210.785 20.8346 210.493 20.9319 210.189 21.1385C209.885 21.3452 209.642 21.6612 209.448 22.0988C209.253 22.5364 209.156 23.1199 209.156 23.8492C209.156 24.773 209.363 25.478 209.764 25.9764C210.177 26.4626 210.724 26.7179 211.393 26.7179C211.782 26.7179 212.11 26.6328 212.402 26.4748C212.693 26.3046 212.949 26.0858 213.192 25.8184L213.751 26.3168C213.447 26.9732 212.997 27.4594 212.438 27.7754C211.879 28.0793 211.223 28.2374 210.469 28.2374L210.493 28.2495Z" fill="#AED3BD"/>
<path d="M217.811 28.2495C217.094 28.2495 216.534 28.0793 216.133 27.739C215.732 27.3865 215.526 26.8152 215.526 26.025V25.2592C215.526 25.0161 215.538 24.7366 215.538 24.4205V21.3573H214.492V20.4092L215.684 20.2512L216.486 18.0024H218.115L218.078 20.2633H219.756V21.3573H218.078V25.8427C218.078 26.2195 218.151 26.4991 218.297 26.6814C218.455 26.8516 218.65 26.9367 218.893 26.9367C219.172 26.9367 219.464 26.8152 219.756 26.5842L220.157 26.9732C219.938 27.3743 219.646 27.6904 219.257 27.9213C218.881 28.1401 218.394 28.2617 217.799 28.2617L217.811 28.2495Z" fill="#AED3BD"/>
<path d="M220.704 18.3427V17.4797H228.872L228.982 20.239H227.657L227.341 18.3792H224.667C224.667 18.987 224.642 19.6069 224.63 20.2268V22.0988H226.356L226.551 20.8468H227.474V24.2868H226.551L226.356 23.0348H224.63V25.1377C224.63 25.7941 224.654 26.4626 224.667 27.1069H227.669L227.985 25.2471H229.31L229.201 28.0064H220.704V27.1434L221.907 27.0096C221.932 26.3532 221.944 25.6968 221.944 25.0404V20.4578C221.944 19.7892 221.944 19.1207 221.907 18.4764L220.704 18.3427Z" fill="#AED3BD"/>
<path d="M235.449 20.9683V20.2633H238.256V20.9683L237.345 21.1507L235.485 23.6669L237.637 27.0947L238.548 27.2528V28.0064H233.966V27.2528L234.707 27.1434L233.516 25.2228L232.264 27.1191L233.054 27.2649V28.0186H230.027V27.2649L231.133 27.0826L233.054 24.4691L230.975 21.1021L230.076 20.9683V20.2633H234.573V20.9683L233.868 21.0777L235.035 22.9375L236.226 21.1385L235.461 20.9562L235.449 20.9683Z" fill="#AED3BD"/>
<path d="M239.01 31.6409V30.8873L239.91 30.6928C239.91 30.1944 239.922 29.7203 239.922 29.2827C239.922 28.8573 239.934 28.444 239.934 28.0429V23.7033C239.934 23.2657 239.934 22.9254 239.922 22.6944C239.922 22.4513 239.922 22.1596 239.885 21.8435L238.889 21.6977V21.0777L242.025 20.008L242.292 20.1661L242.353 21.0656C243.021 20.3606 243.812 20.008 244.723 20.008C245.307 20.008 245.842 20.1661 246.316 20.47C246.79 20.7738 247.154 21.2358 247.434 21.8435C247.726 22.4513 247.872 23.205 247.872 24.0923C247.872 24.9797 247.713 25.6847 247.385 26.3168C247.069 26.9367 246.644 27.4108 246.121 27.739C245.611 28.0672 245.051 28.2374 244.444 28.2374C243.617 28.2374 242.949 27.9578 242.426 27.3986V29.2584C242.426 29.6839 242.45 30.1458 242.462 30.632L243.483 30.8751V31.6288H238.998L239.01 31.6409ZM243.581 21.4059C243.374 21.4059 243.179 21.4546 243.009 21.5396C242.839 21.6247 242.669 21.7341 242.499 21.8557V26.4991C242.815 26.7665 243.167 26.9002 243.544 26.9002C244.03 26.9002 244.419 26.6814 244.711 26.2317C245.015 25.7819 245.173 25.0891 245.173 24.1288C245.173 23.1685 245.027 22.4878 244.723 22.0623C244.431 21.6247 244.055 21.4059 243.581 21.4059Z" fill="#AED3BD"/>
<path d="M248.941 28.0064V27.2528L249.816 27.0704C249.816 26.6693 249.829 26.256 249.829 25.8062V23.6912C249.829 23.3873 249.829 23.1442 249.816 22.9497C249.816 22.7552 249.816 22.585 249.804 22.4148C249.804 22.2447 249.804 22.0502 249.792 21.8435L248.82 21.6977V21.0777L251.98 20.008L252.272 20.1904L252.418 22.0866C252.636 21.4059 252.953 20.8954 253.366 20.5429C253.767 20.1904 254.168 20.008 254.569 20.008C254.922 20.008 255.226 20.1053 255.481 20.3119C255.736 20.5064 255.894 20.7982 255.967 21.1993C255.967 21.6126 255.846 21.9408 255.627 22.1717C255.408 22.3905 255.141 22.5121 254.824 22.5121C254.375 22.5121 253.961 22.2568 253.585 21.7584L253.487 21.6247C253.256 21.8435 253.038 22.1353 252.831 22.4756C252.636 22.816 252.503 23.1806 252.418 23.5453V25.7698C252.418 26.1952 252.418 26.5964 252.43 26.9732L253.694 27.2406V27.9942H248.953L248.941 28.0064Z" fill="#AED3BD"/>
<path d="M260.27 20.8468C259.966 20.8468 259.699 21.0291 259.431 21.4059C259.188 21.7706 259.042 22.4392 259.018 23.4238H260.38C260.769 23.4238 261.024 23.3508 261.145 23.205C261.279 23.0469 261.352 22.7795 261.352 22.4149C261.352 21.88 261.243 21.491 261.036 21.2236C260.817 20.9683 260.562 20.8346 260.27 20.8346V20.8468ZM260.307 28.2495C259.529 28.2495 258.836 28.0915 258.24 27.7633C257.645 27.4351 257.171 26.961 256.83 26.3533C256.49 25.7333 256.32 24.9918 256.32 24.1409C256.32 23.2414 256.514 22.4878 256.915 21.88C257.316 21.2601 257.839 20.7982 258.471 20.4821C259.103 20.1661 259.76 19.9959 260.44 19.9959C261.121 19.9959 261.741 20.1418 262.239 20.4456C262.738 20.7495 263.115 21.1507 263.382 21.6612C263.637 22.1596 263.771 22.743 263.771 23.3873C263.771 23.6912 263.735 23.9829 263.674 24.2382H259.042C259.091 25.0769 259.322 25.709 259.735 26.1101C260.149 26.5113 260.635 26.7058 261.194 26.7058C261.632 26.7058 262.008 26.6207 262.312 26.4627C262.616 26.2925 262.896 26.0858 263.127 25.8427L263.686 26.3533C263.358 26.9853 262.908 27.4594 262.337 27.7633C261.765 28.0672 261.097 28.2252 260.319 28.2252L260.307 28.2495Z" fill="#AED3BD"/>
<path d="M267.636 28.2495C266.628 28.2495 265.692 28.0064 264.853 27.508L264.901 25.551H266.178L266.445 27.1434C266.64 27.2163 266.834 27.2771 267.017 27.3257C267.211 27.3622 267.418 27.3743 267.636 27.3743C268.098 27.3743 268.451 27.3014 268.694 27.1555C268.937 26.9975 269.059 26.7544 269.059 26.4383C269.059 26.1952 268.974 25.9764 268.791 25.7941C268.609 25.6118 268.256 25.4416 267.722 25.2957L266.859 25.0404C266.239 24.8581 265.752 24.5664 265.412 24.1531C265.084 23.752 264.914 23.2414 264.914 22.6458C264.914 21.9043 265.205 21.2844 265.777 20.786C266.348 20.2755 267.187 20.0202 268.256 20.0202C268.73 20.0202 269.156 20.081 269.557 20.2025C269.958 20.3119 270.371 20.47 270.797 20.6888L270.688 22.4392H269.411L269.095 21.0656C268.876 20.9805 268.572 20.9319 268.208 20.9319C267.843 20.9319 267.551 21.0048 267.333 21.1507C267.114 21.2965 267.017 21.5275 267.017 21.8192C267.017 22.038 267.102 22.2204 267.272 22.3905C267.442 22.5486 267.807 22.7187 268.366 22.8889L269.156 23.1077C269.91 23.3265 270.457 23.6547 270.785 24.068C271.113 24.4813 271.283 24.9918 271.283 25.5874C271.283 26.4262 270.955 27.0826 270.311 27.5566C269.666 28.0186 268.779 28.2495 267.649 28.2495H267.636Z" fill="#AED3BD"/>
</g>
<path d="M275.088 28.2495C274.079 28.2495 273.143 28.0064 272.304 27.508L272.353 25.551H273.629L273.897 27.1434C274.091 27.2163 274.286 27.2771 274.468 27.3257C274.662 27.3622 274.869 27.3743 275.088 27.3743C275.55 27.3743 275.902 27.3014 276.145 27.1555C276.388 26.9975 276.51 26.7544 276.51 26.4383C276.51 26.1952 276.425 25.9764 276.243 25.7941C276.06 25.6118 275.708 25.4416 275.173 25.2957L274.31 25.0404C273.69 24.8581 273.204 24.5664 272.863 24.1531C272.535 23.752 272.365 23.2414 272.365 22.6458C272.365 21.9043 272.657 21.2844 273.228 20.786C273.799 20.2755 274.638 20.0202 275.708 20.0202C276.182 20.0202 276.607 20.081 277.008 20.2025C277.41 20.3119 277.823 20.47 278.236 20.6888L278.127 22.4392H276.85L276.534 21.0656C276.316 20.9805 276.012 20.9319 275.659 20.9319C275.307 20.9319 275.003 21.0048 274.772 21.1507C274.553 21.2965 274.456 21.5275 274.456 21.8192C274.456 22.038 274.541 22.2204 274.711 22.3905C274.881 22.5486 275.246 22.7187 275.805 22.8889L276.595 23.1077C277.349 23.3265 277.896 23.6547 278.224 24.068C278.552 24.4813 278.722 24.9918 278.722 25.5874C278.722 26.4262 278.394 27.0826 277.75 27.5566C277.106 28.0186 276.218 28.2495 275.088 28.2495Z" fill="#AED3BD"/>
<defs>
<linearGradient id="lockOverlayGradient" x1="0" y1="0" x2="0" y2="187" gradientUnits="userSpaceOnUse">
<stop offset="0%" stop-color="rgba(0, 47, 43, 0.01)"/>
<filter id="blurFilterLocked" x="-50%" y="-50%" width="200%" height="200%">
  <feGaussianBlur in="SourceGraphic" stdDeviation="3"/>
</filter>
<stop offset="100%" stop-color="rgba(0, 72, 67, 0.01)"/>
</linearGradient>
<linearGradient id="paint0_linear_62559_6373" x1="147.758" y1="185.992" x2="147.758" y2="0" gradientUnits="userSpaceOnUse">
<stop stop-color="#002F2B"/>
<stop offset="1" stop-color="#004843"/>
</linearGradient>
<linearGradient id="paint1_linear_62559_6373" x1="42.7222" y1="81.2842" x2="48.5812" y2="71.3896" gradientUnits="userSpaceOnUse">
<stop/>
<stop offset="1" stop-color="#242424"/>
</linearGradient>
<linearGradient id="paint2_linear_62559_6373" x1="35.0521" y1="55.405" x2="53.9175" y2="87.4592" gradientUnits="userSpaceOnUse">
<stop offset="0.1" stop-color="#431610"/>
<stop offset="0.2" stop-color="#451810"/>
<stop offset="0.26" stop-color="#4E2113"/>
<stop offset="0.32" stop-color="#5E2F17"/>
<stop offset="0.37" stop-color="#73431C"/>
<stop offset="0.38" stop-color="#79491E"/>
<stop offset="0.82" stop-color="#481D13"/>
</linearGradient>
<linearGradient id="paint3_linear_62559_6373" x1="35.1736" y1="53.5088" x2="49.9183" y2="81.2113" gradientUnits="userSpaceOnUse">
<stop offset="0.16" stop-color="#E7D587"/>
<stop offset="0.43" stop-color="#F2E9AA"/>
<stop offset="0.62" stop-color="#F9F6BF"/>
<stop offset="1" stop-color="#CBA42C"/>
</linearGradient>
<linearGradient id="paint4_linear_62559_6373" x1="52.7992" y1="54.8702" x2="59.6549" y2="74.8782" gradientUnits="userSpaceOnUse">
<stop offset="0.16" stop-color="#E7D587"/>
<stop offset="0.43" stop-color="#F2E9AA"/>
<stop offset="0.62" stop-color="#F9F6BF"/>
<stop offset="1" stop-color="#CBA42C"/>
</linearGradient>
<linearGradient id="paint5_linear_62559_6373" x1="26.8714" y1="56.657" x2="36.1461" y2="82.7429" gradientUnits="userSpaceOnUse">
<stop offset="0.16" stop-color="#E7D587"/>
<stop offset="0.43" stop-color="#F2E9AA"/>
<stop offset="0.62" stop-color="#F9F6BF"/>
<stop offset="1" stop-color="#CBA42C"/>
</linearGradient>
<linearGradient id="paint6_linear_62559_6373" x1="40.1331" y1="55.6846" x2="47.3171" y2="77.674" gradientUnits="userSpaceOnUse">
<stop offset="0.16" stop-color="#E7D587"/>
<stop offset="0.42" stop-color="#F2E9AA"/>
<stop offset="0.6" stop-color="#F9F6BF"/>
<stop offset="1" stop-color="#CBA42C"/>
</linearGradient>
<linearGradient id="paint7_linear_62559_6373" x1="52.9451" y1="78.6708" x2="40.0359" y2="70.4171" gradientUnits="userSpaceOnUse">
<stop stop-color="#FCD45C"/>
<stop offset="0.45" stop-color="#E0B255"/>
<stop offset="0.83" stop-color="white"/>
</linearGradient>
<linearGradient id="paint8_linear_62559_6373" x1="41.689" y1="59.939" x2="47.3049" y2="77.1513" gradientUnits="userSpaceOnUse">
<stop offset="0.01" stop-color="#E7D587"/>
<stop offset="0.31" stop-color="#F2E9AA"/>
<stop offset="0.53" stop-color="#F9F6BF"/>
<stop offset="1" stop-color="#CBA42C"/>
</linearGradient>
<clipPath id="clip0_62559_6373">
<path d="M295.205 156.734C295.266 157.536 295.23 158.849 295.23 158.849V175.089C295.23 181.142 290.416 185.992 284.363 185.992H11.3366C5.28312 185.992 0.189941 181.227 0.189941 175.174V11.098C0.189941 5.04456 5.28312 0 11.3366 0H284.375C290.428 0 295.327 4.91085 295.327 10.9522L295.266 108.379V110.883L295.242 110.907C291.741 116.098 289.261 123.768 288.921 130.016C288.848 131.426 288.836 132.933 288.836 134.38C288.836 142.439 290.999 150.595 295.181 156.709L295.205 156.734Z" fill="white"/>
</clipPath>
</defs>
</svg>
