<svg width="24" height="24" viewBox="0 0 24 24" fill="none" xmlns="http://www.w3.org/2000/svg">
<mask id="mask0_61034_2309" style="mask-type:alpha" maskUnits="userSpaceOnUse" x="0" y="0" width="24" height="24">
<rect width="24" height="24" fill="#D9D9D9"/>
</mask>
<g mask="url(#mask0_61034_2309)">
<path d="M8 20V18.025H10V6H8V4H10C10.55 4 11.0208 4.19583 11.4125 4.5875C11.8042 4.97917 12 5.45 12 6V18C12 18.55 11.8042 19.0208 11.4125 19.4125C11.0208 19.8042 10.55 20 10 20H8ZM16 20C15.45 20 14.9792 19.8042 14.5875 19.4125C14.1958 19.0208 14 18.55 14 18V6C14 5.45 14.1958 4.97917 14.5875 4.5875C14.9792 4.19583 15.45 4 16 4H21C21.55 4 22.0208 4.19583 22.4125 4.5875C22.8042 4.97917 23 5.45 23 6V18C23 18.55 22.8042 19.0208 22.4125 19.4125C22.0208 19.8042 21.55 20 21 20H16ZM16 18.025H21V6H16V18.025ZM5 16L3.575 14.6L5.15 13H1V11H5.15L3.575 9.425L5 8L9 12L5 16Z" fill="#0B1F1E"/>
</g>
</svg>
