<svg width="24" height="24" viewBox="0 0 24 24" fill="none" xmlns="http://www.w3.org/2000/svg">
<mask id="mask0_61020_15514" style="mask-type:alpha" maskUnits="userSpaceOnUse" x="0" y="0" width="24" height="24">
<rect width="24" height="24" fill="#D9D9D9"/>
</mask>
<g mask="url(#mask0_61020_15514)">
<path d="M2 22V16H8V22H2ZM9 22V16H15V22H9ZM16 22V16H22V22H16ZM2 15V9H8V15H2ZM9 15V9H15V15H9ZM16 15V9H22V15H16ZM2 8V2H8V8H2ZM9 8V2H15V8H9ZM16 8V2H22V8H16ZM4 20H6V18H4V20ZM11 20H13V18H11V20ZM18 20H20V18H18V20ZM4 13H6V11H4V13ZM11 13H13V11H11V13ZM18 13H20V11H18V13ZM11 6H13V4H11V6ZM18 6H20V4H18V6Z" fill="#0B1F1E"/>
</g>
</svg>
