<svg width="24" height="24" viewBox="0 0 24 24" fill="none" xmlns="http://www.w3.org/2000/svg">
<path d="M6 22.5L4.4 21.3L7 17.825V12.5C7 11.9833 7.04583 11.4125 7.1375 10.7875C7.22917 10.1625 7.35 9.6 7.5 9.1L6 9.95V13.5H4V8.8L9.4 5.725C9.53333 5.64167 9.675 5.58333 9.825 5.55C9.975 5.51667 10.1333 5.5 10.3 5.5C10.7 5.5 11.0667 5.6 11.4 5.8C11.7333 6 11.9833 6.275 12.15 6.625L12.925 8.3C13.2583 9.03333 13.7667 9.58333 14.45 9.95C15.1333 10.3167 15.9833 10.5 17 10.5V12.5H16.025L21.5 22.05L20.625 22.55L14.7 12.225C14.0333 12.0083 13.4292 11.6958 12.8875 11.2875C12.3458 10.8792 11.8833 10.3833 11.5 9.8C11.3333 10.2833 11.2042 10.8375 11.1125 11.4625C11.0208 12.0875 10.9917 12.6667 11.025 13.2L13 16V22.5H11V17.5L9.225 14.95L9 18.5L6 22.5ZM11.5 5C10.95 5 10.4792 4.80417 10.0875 4.4125C9.69583 4.02083 9.5 3.55 9.5 3C9.5 2.45 9.69583 1.97917 10.0875 1.5875C10.4792 1.19583 10.95 1 11.5 1C12.05 1 12.5208 1.19583 12.9125 1.5875C13.3042 1.97917 13.5 2.45 13.5 3C13.5 3.55 13.3042 4.02083 12.9125 4.4125C12.5208 4.80417 12.05 5 11.5 5Z" fill="#0B1F1E"/>
</svg>
